<svg xmlns="http://www.w3.org/2000/svg" viewBox="0 0 583 278">
  <defs>
    <style>
      .cls-1 {
        fill: #1e5eaa;
      }

      .cls-1, .cls-2 {
        opacity: 0.4;
      }

      .cls-2 {
        fill: #dd4a43;
      }

      .cls-3 {
        fill: #1e3373;
      }
    </style>
  </defs>
  <title>合作</title>
  <g id="圖層_2" data-name="圖層 2">
    <g id="圖層_4" data-name="圖層 4">
      <circle class="cls-1" cx="482" cy="177" r="101"/>
      <circle class="cls-2" cx="87" cy="87" r="87"/>
      <g>
        <path class="cls-3" d="M146.81,120.14h6.4a69.33,69.33,0,0,0,13.23,13.76,70.52,70.52,0,0,0,16,9.8,24.34,24.34,0,0,0-4.09,5.6,94.22,94.22,0,0,1-10.95-6.79v4.81H133.75v-4.61a98.09,98.09,0,0,1-10.89,6.86,19.64,19.64,0,0,0-3.82-4.95,76.08,76.08,0,0,0,16.13-11.15A61.47,61.47,0,0,0,146.81,120.14Zm-16.89,62V154.91h41.57v27.18h-6.4v-2.64h-29v2.64Zm5.21-40.37h31.14q-10.49-7.92-16-15.44A69.59,69.59,0,0,1,135.13,141.72Zm30,18.86h-29v13.26h29Z"/>
        <path class="cls-3" d="M216.33,120.27l6,1.92a109.22,109.22,0,0,1-6.73,14.12v45.58h-6.33V146.2a60.33,60.33,0,0,1-5.55,6.67,26.63,26.63,0,0,0-3.49-6.54,62.6,62.6,0,0,0,9.1-11.67A77,77,0,0,0,216.33,120.27Zm46.38,16.83h-20v8.57h18.34v5.74H242.72v9h19.33v5.87H242.72V182h-6.4V137.1H232.5a69.13,69.13,0,0,1-9.17,13.59,29.69,29.69,0,0,0-4.88-4.29,58,58,0,0,0,8.31-11.48,80.33,80.33,0,0,0,6.33-14.18l6,1.65c-.89,2.41-2.07,5.32-3.57,8.7h27.18Z"/>
        <path class="cls-3" d="M342.53,167.51V173H315.61v9h-6.4v-9H283v-5.48h26.25v-4.42H289.55V138.88h46.84v24.21H315.61v4.42ZM310.4,122.58v13.2H287.51v-13.2Zm-6,9.24v-5.21H293.12v5.21Zm-8.71,12v4.75h13.52v-4.75Zm0,14.25h13.52v-4.82H295.69Zm42.55-35.5v13.2H315.15v-13.2Zm-8.25,26v-4.75H315.61v4.75Zm0,9.5v-4.82H315.61v4.82Zm2.31-26.26v-5.21H320.82v5.21Z"/>
        <path class="cls-3" d="M378.14,120.14l5.94,1.92a107.07,107.07,0,0,1-6.66,13.45v46.32h-5.94V144.55a77.86,77.86,0,0,1-6.6,7.66,51.65,51.65,0,0,0-3.43-6.4,62.56,62.56,0,0,0,9.43-11.45A71.74,71.74,0,0,0,378.14,120.14ZM410,173.05h15V179H381.24v-5.94h22.7a201.94,201.94,0,0,0,7.52-31l6.79,1.12A246.1,246.1,0,0,1,410,173.05Zm-27.32-40.37h16.69V120.8h6.34v11.88h17.81v5.94H382.69Zm16,36.35-6.2,1.38a141.28,141.28,0,0,0-4.62-26.91l5.67-1A146.16,146.16,0,0,1,398.66,169Z"/>
      </g>
    </g>
  </g>
</svg>
