<svg xmlns="http://www.w3.org/2000/svg" viewBox="0 0 103.53 138.04">
  <defs>
    <style>
      .cls-1 {
        fill: #dd4a43;
      }
    </style>
  </defs>
  <title>滑鼠點點</title>
  <g id="圖層_2" data-name="圖層 2">
    <g id="圖層_4" data-name="圖層 4">
      <path class="cls-1" d="M60.39,106.41a2.76,2.76,0,0,1,.57.06,2.87,2.87,0,0,1,1.95,1.42l13,23.48,12.1-6.05L75.13,102.06a2.85,2.85,0,0,1,0-2.85,2.88,2.88,0,0,1,2.48-1.42H93.71L46,50.09v66.79L58.62,107a2.86,2.86,0,0,1,1.77-.61ZM74.77,138a2.87,2.87,0,0,1-2.52-1.48L59.5,113.63,44.9,125a2.87,2.87,0,0,1-4.64-2.26V43.15a2.88,2.88,0,0,1,4.91-2l57.51,57.51a2.89,2.89,0,0,1-2,4.92H82.53l12,21.6a2.94,2.94,0,0,1,.23,2.25,2.86,2.86,0,0,1-1.46,1.72l-17.25,8.63a2.86,2.86,0,0,1-1.29.3Z"/>
      <path class="cls-1" d="M43.13,23a2.88,2.88,0,0,1-2.87-2.88V2.88a2.88,2.88,0,1,1,5.75,0V20.13A2.88,2.88,0,0,1,43.13,23Z"/>
      <path class="cls-1" d="M20.13,46H2.88a2.88,2.88,0,1,1,0-5.75H20.13a2.88,2.88,0,1,1,0,5.75Z"/>
      <path class="cls-1" d="M83.39,46H66.14a2.88,2.88,0,1,1,0-5.75H83.39a2.88,2.88,0,1,1,0,5.75Z"/>
      <path class="cls-1" d="M26.87,29.74a2.89,2.89,0,0,1-2-.84L12.63,16.7a2.87,2.87,0,1,1,4.07-4.06L28.9,24.83a2.89,2.89,0,0,1,0,4.07,2.85,2.85,0,0,1-2,.84Z"/>
      <path class="cls-1" d="M14.67,74.48a2.88,2.88,0,0,1-2-4.91l12.2-12.2a2.88,2.88,0,0,1,4.07,4.07L16.7,73.64a2.87,2.87,0,0,1-2,.84Z"/>
      <path class="cls-1" d="M59.4,29.74a2.88,2.88,0,0,1-2-4.91L69.57,12.64a2.87,2.87,0,0,1,4.07,4.06L61.44,28.9a2.89,2.89,0,0,1-2,.84Z"/>
    </g>
  </g>
</svg>
