<svg xmlns="http://www.w3.org/2000/svg" viewBox="0 0 116 110.26">
  <defs>
    <style>
      .cls-1 {
        opacity: 0.71;
      }

      .cls-2 {
        fill: #dd4a43;
      }
    </style>
  </defs>
  <title>首頁紅</title>
  <g id="圖層_2" data-name="圖層 2">
    <g id="圖層_4" data-name="圖層 4">
      <g class="cls-1">
        <path class="cls-2" d="M114.05,49,62,1.56a5.93,5.93,0,0,0-8,0L2,49A6,6,0,0,0,6,59.33h8.32v47.51a3.41,3.41,0,0,0,3.41,3.42H46.21a3.42,3.42,0,0,0,3.41-3.42V78H66.38v28.85a3.42,3.42,0,0,0,3.41,3.42H98.32a3.42,3.42,0,0,0,3.41-3.42V59.33H110a6,6,0,0,0,4-10.35Z"/>
        <path class="cls-2" d="M104.25,30.74V10.22a3.41,3.41,0,0,0-3.41-3.41H77.93l26.32,23.93Z"/>
      </g>
    </g>
  </g>
</svg>
