<svg xmlns="http://www.w3.org/2000/svg" data-name="圖層 1" width="41" height="65"><rect id="backgroundrect" width="100%" height="100%" x="0" y="0" fill="none" stroke="none" class="" style=""/><defs><style>.cls-1{fill:#942323;}.cls-2{fill:#133180;}.cls-3{fill:#1e556d;}</style></defs><title>網站</title><g class="currentLayer" style=""><title>Layer 1</title><g class="" transform="matrix(1,0,0,1,0,0) rotate(-6.366805076599121 20.571649551391616,30.7686634063721) " id="svg_7"><path class="cls-1" d="M36.25999987363794,53.87635226111536 c-0.7300000000000006,6.38 -7.27,10.88 -14.57,10 s-12.64,-6.71 -11.9,-13.08 c0.55,-4.75 4.29,-8.59 9.54,-9.78 a1.36,1.36 0 0 1 1.59,0.81 a1.08,1.08 0 0 1 -0.8800000000000008,1.37 c-4.23,1 -7.25,4.05 -7.7,7.8900000000000015 c-0.5900000000000006,5.14 3.72,9.870000000000001 9.6,10.55 s11.15,-3 11.75,-8.1 c0.45,-3.91 -2,-7.75 -6,-9.57 a1.09,1.09 0 0 1 -0.6000000000000006,-1.52 a1.35,1.35 0 0 1 1.7200000000000002,-0.4800000000000003 C33.81999987363794,44.23635226111536 36.81999987363794,49.00635226111535 36.25999987363794,53.87635226111536 z" id="svg_1"/><path class="cls-2" d="M22.379999873637942,22.206352261115356 a1,1 0 0 1 -0.19000000000000022,0.4900000000000003 a1.3800000000000001,1.3800000000000001 0 0 1 -1.78,0.3000000000000003 l-0.3100000000000004,-0.19000000000000022 a1.06,1.06 0 0 1 -0.3500000000000003,-1.58 a1.3900000000000001,1.3900000000000001 0 0 1 1.79,-0.25 l0.25,0.1500000000000002 A1.12,1.12 0 0 1 22.379999873637942,22.206352261115356 z" id="svg_2"/><path class="cls-1" d="M40.74999987363795,14.87635226111536 c-0.7300000000000006,6.38 -7.27,10.88 -14.57,10 a14.77,14.77 0 0 1 -5.77,-1.9 a1.06,1.06 0 0 1 -0.4,-1.57 a1.3800000000000001,1.3800000000000001 0 0 1 1.78,-0.3000000000000003 a11.92,11.92 0 0 0 4.66,1.53 c5.8900000000000015,0.680000000000001 11.15,-3 11.75,-8.1 s-3.72,-9.870000000000001 -9.6,-10.55 a11.91,11.91 0 0 0 -4.8900000000000015,0.4300000000000003 a1.3800000000000001,1.3800000000000001 0 0 1 -1.6600000000000001,-0.7000000000000006 a1.06,1.06 0 0 1 0.7400000000000008,-1.44 a14.77,14.77 0 0 1 6.06,-0.54 C36.13999987363793,2.606352261115362 41.479999873637944,8.476352261115352 40.74999987363795,14.87635226111536 z" id="svg_3"/><path class="cls-3" d="M27.249999873637947,12.19635226111535 L12.839999873637922,22.126352261115358 l-4.37,-4.8 a1.42,1.42 0 0 0 -1.81,-0.2100000000000002 a1,1 0 0 0 -0.1800000000000002,1.58 l14.79,16.26 l-14.41,-1.6600000000000001 a1.3,1.3 0 0 0 -1.26,0.55 a1,1 0 0 0 0.14,1.25 l16.29,17.91 a1.42,1.42 0 0 0 1.81,0.2100000000000002 a1,1 0 0 0 0.1800000000000002,-1.58 L9.699999873637935,35.87635226111536 L24.139999873637933,37.54635226111536 h0 l3.11,0.3600000000000003 l-0.25,2.13 a1.3,1.3 0 0 0 2.56,0.2900000000000003 l0.3700000000000004,-3.25 l0.39000000000000046,-3.4 a1.3,1.3 0 0 0 -2.56,-0.2900000000000003 l-0.26,2.2800000000000002 l-2.58,-0.3000000000000003 L14.469999873637946,23.876352261115358 l14.41,-9.93 a1,1 0 0 0 0.1800000000000002,-1.58 A1.42,1.42 0 0 0 27.249999873637947,12.19635226111535 z" id="svg_4"/><path class="cls-1" d="M4.4699998736379465,32.056352261115364 l-0.81,7 a1.86,1.86 0 0 1 -3.66,-0.4200000000000003 l0.81,-7 a1.86,1.86 0 0 1 3.66,0.4200000000000003 z" id="svg_5"/><path class="cls-3" d="M14.649999873637924,10.176352261115355 l-0.8700000000000008,7.57 a1.3,1.3 0 0 1 -2.56,-0.2900000000000003 L12.139999873637933,9.87635226111536 a1.3,1.3 0 0 1 2.56,0.2900000000000003 z" id="svg_6"/></g></g></svg>