<svg xmlns="http://www.w3.org/2000/svg" data-name="圖層 1" width="309" height="145" style=""><rect id="backgroundrect" width="100%" height="100%" x="0" y="0" fill="none" stroke="none"/><defs><style>.cls-1{opacity:0.43;}.cls-2{fill:#942323;}.cls-3{opacity:0.75;}.cls-4{fill:#1e556d;}</style></defs><title>網站</title><g class="currentLayer" style=""><title>Layer 1</title><g class="cls-1" id="svg_1"><circle class="cls-2" cx="341.2800064086914" cy="539.2754669189453" r="29.959999084472656" transform="rotate(-71.5 6.030006408691393,371.66546630859375) " id="svg_2"/></g><g class="cls-3" id="svg_3"><circle class="cls-4" cx="236.2699966430664" cy="102.53547668457031" r="17.459999084472656" id="svg_4"/></g><path class="cls-2" d="M62.72000396728515,78.71547119140624 l-3.38,4.5 a66.12,66.12 0 0 0 -10.76,-8 l3.2800000000000002,-4.5 A57.72,57.72 0 0 1 62.72000396728515,78.71547119140624 zm0.6700000000000002,10.16 a106.34,106.34 0 0 1 -9.7,21.2 l-4.69,-3.37 A107,107 0 0 0 58.49000396728516,86.29547119140625 zm0.7600000000000001,-24.27 l-4,4 a72.63,72.63 0 0 0 -10.71,-9.61 l4,-4 A64.7,64.7 0 0 1 64.15000396728516,64.59547119140625 zm39.11,12.08 H86.09000396728516 V85.29547119140625 h14.14 v24.54 H94.59000396728516 v-3 H72.18000396728516 v3 h-5.66 V85.29547119140625 h13.93 v-8.64 H63.27000396728516 l-0.06000000000000001,-5.17 h17.25 V63.29547119140625 q-7.36,0.7000000000000001 -13.93,0.8800000000000001 l-1.9500000000000002,-5.23 q19.56,0 34,-4 l2.77,4.5600000000000005 A98.17,98.17 0 0 1 86.09000396728516,62.65547119140625 v8.85 h17.18 zm-8.67,24.79 V90.63547119140625 H72.18000396728516 v10.83 z" id="svg_5"/><path class="cls-2" d="M141.58000396728517,69.89547119140624 h-12 v3.5300000000000002 h10.74 v18.31 H129.54000396728514 v3.5 h10.74 v4.35 H129.54000396728514 v4 a104.08,104.08 0 0 0 11,-1.58 l0.24000000000000002,4.44 q-13.47,2.25 -28.53,3.74 l-1.13,-4.5 L124.55000396728516,104.29547119140625 v-4.68 H113.66000396728515 v-4.35 h10.89 v-3.5 H113.66000396728515 V73.41547119140625 h10.89 V69.89547119140624 H112.09000396728516 V65.29547119140625 h12.5 v-3.56 q-4,0.52 -9.76,0.8200000000000001 l-1.37,-4.35 A156.1,156.1 0 0 0 138.75000396728515,55.29547119140625 l2.13,4 q-4.44,1 -11.35,1.9500000000000002 V65.29547119140625 h12 zm-17,10.71 v-3.19 h-5.84 v3.19 zm0,7 v-3.16 h-5.84 v3.16 zm10.68,-7 v-3.25 h-5.69 v3.25 zm0,7 v-3.16 h-5.69 v3.16 zm29.38,-20.5 q-0.06000000000000001,13 -0.5800000000000001,25.08 t-1.07,13.94 a5,5 0 0 1 -2.1,2.91 a9.45,9.45 0 0 1 -5,1 q-1.61,0 -3.3200000000000003,-0.15000000000000002 l-1.55,-5.29 q2.37,0.18000000000000002 3.77,0.18000000000000002 q2.71,0 3.16,-0.6800000000000002 t1.09,-11.13 q0.6400000000000001,-10.45 0.43000000000000005,-20.7 H154.09000396728516 q-0.15000000000000002,22.71 -8.3,37.89 l-4.8100000000000005,-2.37 q8.31,-15 7.7,-35.52 h-5.41 v-5.17 h5.54 q0.15000000000000002,-7.66 0.06000000000000001,-11.37 h5.41 q0,5.87 -0.18000000000000002,11.37 z" id="svg_6"/><path class="cls-2" d="M190.27000396728516,83.51547119140625 q-3.71,1.9500000000000002 -5,2.49 v18.95 q0,4.78 -4.78,4.78 q-2.19,0 -4.38,-0.18000000000000002 l-1.18,-5 q3.35,0.18000000000000002 3.92,0.18000000000000002 q1.31,0 1.31,-1.4300000000000002 V88.44547119140626 q-4.08,1.73 -5.84,2.31 l-1.06,-5.29 a74.35,74.35 0 0 0 6.9,-2.77 V72.17547119140625 h-6.42 v-5.23 h6.42 V55.62547119140625 h5.11 v11.31 h4.32 v5.23 H185.29000396728514 V80.29547119140625 q1.9500000000000002,-0.9400000000000001 4.68,-2.37 zm37.92,-18.37 H217.37000396728513 l3.44,1.61 q-0.8500000000000001,2.16 -2.19,4.87 h8.27 V104.29547119140625 a5.3,5.3 0 0 1 -1.54,4.17 a5.2,5.2 0 0 1 -3.5700000000000003,1.37 q-3,0 -6.14,-0.18000000000000002 L214.09000396728516,104.95547119140625 l6.8100000000000005,-0.06000000000000001 q0.91,0 0.91,-1.19 V76.55547119140624 h-9.58 v4.23 h7.66 v4.68 h-7.66 v3.6500000000000004 h5.47 V103.29547119140625 H201.25000396728518 V89.11547119140624 h5.72 v-3.6500000000000004 h-8 v-4.68 h8 v-4.23 H197.09000396728516 V109.79547119140625 H191.89000396728517 V71.62547119140626 h7.84 a51.47,51.47 0 0 0 -2.16,-5.23 l3.2800000000000002,-1.25 h-10 v-5 h15.63 q-0.28,-0.8800000000000001 -1.7000000000000002,-4.17 l5.41,-1.37 a36.21,36.21 0 0 1 2.31,5.54 h15.69 zm-12.56,0 H202.99000396728513 a63.53,63.53 0 0 1 2.55,6.48 h7.08 A65.49,65.49 0 0 0 215.64000396728517,65.14547119140624 zm-2.74,33.51 v-5 h-6.75 v5 z" id="svg_7"/><path class="cls-2" d="M290.18000396728513,61.59547119140625 H272.87000396728513 v4.8 h14.75 V81.29547119140625 H238.48000396728514 V66.39547119140624 h14.44 v-4.8 H235.80000396728514 v-4.93 h54.38 zm0.06000000000000001,30.35 H275.85000396728515 a43,43 0 0 1 -6.11,7.57 q8.06,2 19.25,6.11 l-2.37,4.74 q-8.3,-3.3200000000000003 -21.78,-7.18 q-8.88,5.69 -26.92,6.93 L236.09000396728516,104.95547119140625 q13.35,-0.30000000000000004 21.32,-3.56 q-6.84,-1.6700000000000002 -12.41,-2.68 a54.08,54.08 0 0 0 5.69,-6.78 H235.86000396728514 v-4.8 H254.09000396728516 q1.79,-2.74 3,-5.05 l5.41,1.25 a39.64,39.64 0 0 1 -2.25,3.8 h12.41 a22.79,22.79 0 0 0 1.61,-3.19 l5.41,0.9400000000000001 a17.69,17.69 0 0 1 -1.06,2.25 h11.65 zm-37.32,-15.26 v-5.69 h-9.09 v5.69 zm16.39,15.26 H257.09000396728516 q-1.25,1.77 -3,3.92 q4.44,0.7600000000000001 9.28,2 A33.1,33.1 0 0 0 269.3100039672852,91.93547119140624 zm-1.79,-25.55 v-4.8 h-9.16 v4.8 zm0,10.28 v-5.69 h-9.16 v5.69 zm14.63,0 v-5.69 h-9.28 v5.69 z" id="svg_8"/><g class="cls-3" id="svg_9"><path class="cls-4" d="M43.090003967285156,89.66547119140625 a44.85,44.85 0 1 1 46.61,-44.81 h-7.47 a37.37,37.37 0 1 0 -38.85,37.34 z" id="svg_10"/></g><path class="cls-2" d="M58.15000396728516,51.665471191406255 H29.82000396728516 a3.12,3.12 0 0 1 -3.12,-3.12 V27.82547119140625 a3.12,3.12 0 0 1 3.12,-3.12 h28.33 a3.12,3.12 0 0 1 3.12,3.12 v20.72 A3.12,3.12 0 0 1 58.15000396728516,51.665471191406255 zM29.82000396728516,26.485471191406248 a1.34,1.34 0 0 0 -1.34,1.34 v20.72 a1.34,1.34 0 0 0 1.34,1.34 h28.33 a1.34,1.34 0 0 0 1.34,-1.34 V27.82547119140625 a1.34,1.34 0 0 0 -1.34,-1.34 z" id="svg_11"/><path class="cls-2" d="M38.52000396728516,31.12547119140625 a0.8900000000000001,0.8900000000000001 0 0 1 -0.8900000000000001,-0.8900000000000001 V20.615471191406243 a0.8900000000000001,0.8900000000000001 0 1 1 1.78,0 v9.63 A0.8900000000000001,0.8900000000000001 0 0 1 38.52000396728516,31.12547119140625 z" id="svg_12"/><path class="cls-2" d="M50.090003967285156,31.12547119140625 a0.8900000000000001,0.8900000000000001 0 0 1 -0.8900000000000001,-0.8900000000000001 V20.615471191406243 a0.8900000000000001,0.8900000000000001 0 1 1 1.78,0 v9.63 A0.8900000000000001,0.8900000000000001 0 0 1 50.090003967285156,31.12547119140625 z" id="svg_13"/><rect class="cls-2" x="27.590003967285156" y="32.49546813964844" width="32.790000915527344" height="1.7799999713897705" id="svg_14"/><rect class="cls-2" x="29.910003662109375" y="35.86547088623047" width="5.21999979019165" height="5.21999979019165" rx="1.0499999523162842" ry="1.0499999523162842" id="svg_15"/><rect class="cls-2" x="29.910003662109375" y="42.825469970703125" width="5.21999979019165" height="5.21999979019165" rx="1.0499999523162842" ry="1.0499999523162842" id="svg_16"/><rect class="cls-2" x="37.36000061035156" y="35.86547088623047" width="5.21999979019165" height="5.21999979019165" rx="1.0499999523162842" ry="1.0499999523162842" id="svg_17"/><rect class="cls-2" x="37.36000061035156" y="42.825469970703125" width="5.21999979019165" height="5.21999979019165" rx="1.0499999523162842" ry="1.0499999523162842" id="svg_18"/><rect class="cls-2" x="44.81000518798828" y="35.86547088623047" width="5.21999979019165" height="5.21999979019165" rx="1.0499999523162842" ry="1.0499999523162842" id="svg_19"/><rect class="cls-2" x="52.27000427246094" y="35.86547088623047" width="5.21999979019165" height="5.21999979019165" rx="1.0499999523162842" ry="1.0499999523162842" id="svg_20"/><rect class="cls-2" x="44.81000518798828" y="42.825469970703125" width="5.21999979019165" height="5.21999979019165" rx="1.0499999523162842" ry="1.0499999523162842" id="svg_21"/></g></svg>