<svg xmlns="http://www.w3.org/2000/svg" viewBox="0 0 583 278">
  <defs>
    <style>
      .cls-1 {
        fill: #1e5eaa;
      }

      .cls-1, .cls-2 {
        opacity: 0.4;
      }

      .cls-2 {
        fill: #dd4a43;
      }

      .cls-3 {
        fill: #1e3373;
      }
    </style>
  </defs>
  <title>活動</title>
  <g id="圖層_2" data-name="圖層 2">
    <g id="圖層_4" data-name="圖層 4">
      <circle class="cls-1" cx="482" cy="177" r="101"/>
      <circle class="cls-2" cx="87" cy="87" r="87"/>
      <g>
        <path class="cls-3" d="M135.6,145.87l-3.5,5.21a137.83,137.83,0,0,0-12.4-7.25l3.43-4.62Q132.76,144,135.6,145.87Zm-9.31,35.3L121.08,177a176.63,176.63,0,0,0,12.67-21.31l4.55,4.15A233.19,233.19,0,0,1,126.29,181.17ZM139,127.79l-3.7,5q-2.43-1.71-12.4-7.39l3.5-4.49A120.77,120.77,0,0,1,139,127.79Zm42.29,17.82H163.44v10h13.92v26h-6v-2.51H149V182h-5.74V155.64h14.18v-10H138.7v-6h18.73V130q-7.78,1.18-14.05,1.65a19.25,19.25,0,0,0-1.78-5.28q21.51-2.24,32.06-6.13l5,4.88A89.08,89.08,0,0,1,163.44,129V139.6h17.88Zm-10,27.84V161.31H149v12.14Z"/>
        <path class="cls-3" d="M247.21,135.38h14c-.09,1.45-.14,2.42-.14,2.91q-.58,21.77-1.25,30.05t-2.24,10.39a5.27,5.27,0,0,1-1.95,2,8.57,8.57,0,0,1-2.8.86,46.11,46.11,0,0,1-8.32.07,15.53,15.53,0,0,0-1.78-5.94q3.1.26,7.06.26a2.87,2.87,0,0,0,2.44-1.12c.75-1,1.32-3.9,1.72-8.81s.73-13.2,1-24.9h-8q-.73,15-4.06,25a33,33,0,0,1-11.45,16.23,15.42,15.42,0,0,0-4.55-4.68,10.42,10.42,0,0,0,1.25-.93q-16.48,1.92-26.72,2.84l-.79-5.34q5.28-.33,14.12-1.13V168H202.48v-4.62h12.27V160H202.68V139.67h12.07v-3.5H200.83v-4.68h13.92v-3.76q-5.2.39-12,.66a14.58,14.58,0,0,0-1.51-4.55q18.86-1,29-3.3l3,4.75q-5.61,1.13-12.73,1.85v4.35h13.66v3.89h7.06q.06-4.62.06-14.45h6.07Q247.34,126.15,247.21,135.38Zm-39.39,8.38v4.16h6.93v-4.16Zm0,12.14h6.93v-4.16h-6.93ZM220.49,168v4.62q4.75-.47,12.8-1.32a34.33,34.33,0,0,0,5.57-12.67A98.61,98.61,0,0,0,241,141.19h-7.13v-5H220.49v3.5h12.6V160h-12.6v3.43h12.73V168Zm0-20.12h7.26v-4.16h-7.26Zm7.26,3.82h-7.26v4.16h7.26Z"/>
        <path class="cls-3" d="M301.63,148.25l.79,5.74c-.75.26-1.89.64-3.43,1.12s-2.71.86-3.5,1.12V175q0,4.49-2.44,5.81T284.27,182a17.69,17.69,0,0,0-1.71-5.81q4.68.14,5.94,0c.83,0,1.25-.4,1.25-1.19V158q-3.5,1.05-7.39,2.3L281,154.18l8.77-2.44V139H281.9v-5.81h7.85V120.08h5.74v13.06h6.73V139h-6.73v11.14Zm41-22.1v5.34h-7.25l.46.07q-1.71,4.49-3,7.39h9v36.28a10.38,10.38,0,0,1-.5,3.6,3.81,3.81,0,0,1-1.88,2q-2.31,1-9,1a16.27,16.27,0,0,0-1.71-5.61c1.8,0,3.84.07,6.13.07a1,1,0,0,0,1.06-1.13v-31H324.85v5.21h8.57v4.68h-8.57v5.61H332v14.51H317.79V177h-4.62V159.66H320v-5.61h-8.64v-4.68H320v-5.21H309.08v37.73h-5.67V139h8.38a32.67,32.67,0,0,0-2.12-7l2.25-.46h-9.5v-5.34h16.82V120h6.2v6.14ZM327.35,139l-.33-.07a76.3,76.3,0,0,0,2.45-7.39H315.35a26,26,0,0,1,2.31,7.32l-.53.14Zm-.19,30.87v-5.74h-9.37v5.74Z"/>
        <path class="cls-3" d="M424.26,161.51H411.19a29,29,0,0,1-7.45,9.83,182.49,182.49,0,0,1,18.34,5.74l-3.69,5.14a182.51,182.51,0,0,0-20.92-6.86q-10.35,5.14-30.81,6.67a13.79,13.79,0,0,0-2.31-5.48q15.57-.72,24.15-3.5-3.63-.92-9.7-2.24l-1.12,1.45-6-1.91q2.56-3.3,6.46-8.84H363.23v-5.15H381.7q3.38-5.28,3.43-5.34H367.92V133h14.71v-4.82H364.68v-5.54h57.86v5.54H404V133h16v18H391.14l1,.26L390.38,154c-.77,1.21-1.27,2-1.48,2.34h35.36Zm-50.47-23.42v7.85h8.84v-7.85Zm30.41,23.42H385.46q-.52.8-1.68,2.34c-.77,1-1.33,1.84-1.68,2.41q5.47,1.05,14.32,3.16A24,24,0,0,0,404.2,161.51Zm-15.57-33.32V133h9.44v-4.82Zm0,17.75h9.44v-7.85h-9.44Zm25.2-7.85H404v7.85h9.83Z"/>
      </g>
    </g>
  </g>
</svg>
