<svg xmlns="http://www.w3.org/2000/svg" viewBox="0 0 583 278">
  <defs>
    <style>
      .cls-1 {
        fill: #1e5eaa;
      }

      .cls-1, .cls-2 {
        opacity: 0.4;
      }

      .cls-2 {
        fill: #dd4a43;
      }

      .cls-3 {
        fill: #1e3373;
      }
    </style>
  </defs>
  <title>科系</title>
  <g id="圖層_2" data-name="圖層 2">
    <g id="圖層_4" data-name="圖層 4">
      <circle class="cls-1" cx="482" cy="177" r="101"/>
      <circle class="cls-2" cx="87" cy="87" r="87"/>
      <g>
        <path class="cls-3" d="M145.63,156.43l-3.77,4.95a69.59,69.59,0,0,0-5.27-9V182h-6.07V154.58q-4.23,10.29-8.65,15.77a48.7,48.7,0,0,0-3-5.81,50,50,0,0,0,5.94-8.9,76.35,76.35,0,0,0,4.88-10.89h-10v-5.87h10.82v-9.11q-4,.73-8.51,1.39a16.25,16.25,0,0,0-1.79-4.88q14-2.18,21.51-5.48l3.56,5.15a59.43,59.43,0,0,1-8.7,2.57v10.36H146v5.87h-9.43v.92q1.51,1.59,4.78,5.48C143.55,153.75,145,155.5,145.63,156.43Zm36.21,6.79-8.31,1.45V182h-6.2V165.73L146,169.29l-.92-6,22.23-3.7V120h6.2V158.6l7.39-1.25ZM163,151.41l-4.22,4.09a52,52,0,0,0-11.28-10l4-3.63Q159.62,147.25,163,151.41Zm1.85-17.61-4.36,4Q157.44,133.47,150,128l4.09-3.63A50,50,0,0,1,164.89,133.8Z"/>
        <path class="cls-3" d="M215.48,163.88l6.53,2.38a66.75,66.75,0,0,1-7.49,7.85,78.94,78.94,0,0,1-8.48,6.73,30.45,30.45,0,0,0-5.74-4.36,53.81,53.81,0,0,0,8.35-5.7A44.27,44.27,0,0,0,215.48,163.88Zm47.23-2.64-5.67,3.7a38.68,38.68,0,0,0-4-5q-8.84.41-18.34.6V182h-6.6V160.72q-15.9.53-25.86.72l-.72-6.4q3.62,0,14.44-.13,2.06-1.38,5.28-4a87.1,87.1,0,0,0-14.71-10.82l4.35-4q2.78,1.59,4,2.38a101.63,101.63,0,0,0,7.66-8.58q-10.36.6-17.35.66a22.48,22.48,0,0,0-1.52-5.61q32-.72,49.21-4.22l4.42,5.35a225.12,225.12,0,0,1-26.78,3.29l.53.27a130.22,130.22,0,0,1-11.35,12.07c2.86,2,5,3.7,6.53,5a144.57,144.57,0,0,0,15.83-15.51l6.07,3.3a223.13,223.13,0,0,1-22.69,20.19q15.5-.27,22.3-.46-2.44-2.31-6.4-5.74l5.14-3.3q4.7,3.83,9.27,8.28A64.81,64.81,0,0,1,262.71,161.24Zm-22.36,5.88,5.21-3.57q10.89,7.39,16.43,13.13l-5.61,4Q251.24,174.83,240.35,167.12Z"/>
        <path class="cls-3" d="M312.38,126.34A60.68,60.68,0,0,1,301,139.67a83.43,83.43,0,0,1-15.83,11.41,19,19,0,0,0-3.9-5.21,66.16,66.16,0,0,0,16.17-11.58,57.2,57.2,0,0,0,11.28-14.41h6.66a63.62,63.62,0,0,0,12.84,14.91A61.62,61.62,0,0,0,344.18,145a30,30,0,0,0-4,5.74,82.65,82.65,0,0,1-15.83-10.95A63.28,63.28,0,0,1,312.38,126.34Zm-14.84,17.88h6.39v8.91c0,2.2-.07,4.18-.23,5.94a35,35,0,0,1-1.12,6,26,26,0,0,1-2.41,6.1,27.06,27.06,0,0,1-4.32,5.64,32.41,32.41,0,0,1-6.63,5.22,21.57,21.57,0,0,0-2.41-2.45,15.94,15.94,0,0,0-2.73-2,32.11,32.11,0,0,0,7.19-5.61,19.67,19.67,0,0,0,4.12-6.43,31.29,31.29,0,0,0,1.72-6.17,42.56,42.56,0,0,0,.43-6.33Zm23.42-.33h6.53V182H321Z"/>
        <path class="cls-3" d="M365.74,158.67l5.34.92q-1.45,10.89-4.55,17.22a20.28,20.28,0,0,0-4.75-2.37Q364.56,169,365.74,158.67Zm12.6-15.24,4.22-1.71q4.89,7.91,6.14,14l-4.56,2c-.13-.61-.5-1.82-1.12-3.63l-4.35.27v27.77h-5.61V154.65q-6.27.33-10.23.59l-.52-5.54,4.75-.13q3.63-5,3.82-5.35a60.4,60.4,0,0,0-8.38-9.43l3-4.09c.75.57,1.36,1.08,1.85,1.52A65.9,65.9,0,0,0,372.93,120l5.54,2.18q-4.49,8.58-7.65,13.39,1.85,2,3.23,3.76,3.3-5.34,6.4-11.55l5.21,2.31a218.15,218.15,0,0,1-13,19.2c2.72-.09,5.54-.22,8.44-.39C380.54,147.59,379.61,145.76,378.34,143.43Zm1.58,16.16,4.55-1.51a66,66,0,0,1,4.23,12.27L384,171.93A61.87,61.87,0,0,0,379.92,159.59Zm9.3-36.28h33.91c0,1.1-.08,1.91-.13,2.44q-.39,11.22-.86,15.73t-1.64,6a6.52,6.52,0,0,1-4.56,2.11,62.88,62.88,0,0,1-7.85.06,12.88,12.88,0,0,0-1.84-5.8q2.89.25,6.92.26a2.73,2.73,0,0,0,2.18-.66c.83-1,1.41-5.74,1.71-14.31H405.52a35.08,35.08,0,0,1-4.45,13.45q-3.33,5.48-10.66,8.78a13.76,13.76,0,0,0-3.69-4.69q6.19-2.57,9-6.89a26.51,26.51,0,0,0,3.69-10.65H389.22ZM391.73,182V154.05h30.08V181.7h-6.06v-3H397.54V182Zm24-22.37H397.54v13.59h18.21Z"/>
      </g>
    </g>
  </g>
</svg>
