<svg xmlns="http://www.w3.org/2000/svg" data-name="圖層 1" width="120" height="120"><rect id="backgroundrect" width="100%" height="100%" x="0" y="0" fill="none" stroke="none" class="" style=""/><defs><style>.cls-1{fill:#942323;}.cls-2{fill:#dad6b2;}</style></defs><title>最新消息</title><g class="currentLayer" style=""><title>Layer 1</title><g class=""><path class="cls-1" d="M80.48553741455078,62.39978949476034 l-2.43,-4.37 a10.22,10.22 0 0 0 5.07,-11 a10.27,10.27 0 0 0 -12.1,-8 l-1,-4.9 a15.27,15.27 0 0 1 18,11.89 A15.2,15.2 0 0 1 80.48553741455078,62.39978949476034 z" id="svg_1"/><path class="cls-1" d="M40.98553741455078,110.38978949476035 l-18.63,-27.61 l-4.77,2 L8.855537414550781,64.19978949476032 l14,-5.94 l43.46,-37.56 l22.51,52.89 l-49.48,4.57 l16.53,25.93 zm-16.79,-33.82 L42.85553741455078,104.16978949476032 l5.58,-2.37 l-13.75,-21.56 a4.52,4.52 0 0 1 -0.25,-4.46 a4.53,4.53 0 0 1 3.67,-2.5300000000000002 l43.38,-4 l-17.14,-40.28 l-38.86,33.59 l-10.08,4.29 l4.86,11.41 z" id="svg_2"/><line class="cls-2" x1="85.09554290771484" y1="24.839783658273518" x2="93.82554626464844" y2="12.11978339124471" id="svg_3"/><path class="cls-1" d="M85.09553741455079,27.33978949476034 a2.49,2.49 0 0 1 -1.4100000000000001,-0.4400000000000002 a2.5,2.5 0 0 1 -0.6500000000000006,-3.48 l8.73,-12.72 a2.5,2.5 0 0 1 3.48,-0.6500000000000006 a2.5,2.5 0 0 1 0.6500000000000006,3.48 l-8.73,12.72 A2.5,2.5 0 0 1 85.09553741455079,27.33978949476034 z" id="svg_4"/><line class="cls-2" x1="93.82554626464844" y1="39.47978400159627" x2="104.76554107666016" y2="32.18978308606893" id="svg_5"/><path class="cls-1" d="M93.85553741455078,41.989789494760345 a2.5,2.5 0 0 1 -2.08,-1.11 a2.5,2.5 0 0 1 0.6900000000000007,-3.47 l10.95,-7.3 a2.5,2.5 0 0 1 3.47,0.6900000000000007 a2.5,2.5 0 0 1 -0.6900000000000007,3.47 l-10.95,7.3 A2.49,2.49 0 0 1 93.85553741455078,41.989789494760345 z" id="svg_6"/><line class="cls-2" x1="95.72554779052734" y1="55.81978415418416" x2="108.64554595947266" y2="57.809782017953694" id="svg_7"/><path class="cls-1" d="M108.64553741455079,60.30978949476034 l-0.3900000000000003,0 l-12.92,-2 A2.5,2.5 0 0 1 93.25553741455079,55.469789494760334 a2.5,2.5 0 0 1 2.85,-2.09 l12.92,2 a2.5,2.5 0 0 1 2.09,2.85 A2.5,2.5 0 0 1 108.64553741455079,60.30978949476034 z" id="svg_8"/></g></g></svg>