<svg xmlns="http://www.w3.org/2000/svg" data-name="圖層 1" width="120" height="120"><rect id="backgroundrect" width="100%" height="100%" x="0" y="0" fill="none" stroke="none" class="" style=""/><defs><style>.cls-1{fill:#942323;}</style></defs><title>家長專欄</title><g class="currentLayer" style=""><title>Layer 1</title><g class="selected"><path class="cls-1" d="M37.23498374938964,96.69964981079102 h-14.3 a5.53,5.53 0 0 1 -5.53,-5.53 V16.28964981079102 a5.53,5.53 0 0 1 5.53,-5.53 h61 a5.53,5.53 0 0 1 5.53,5.53 v7.8100000000000005 h-3 v-7.8100000000000005 a2.5700000000000003,2.5700000000000003 0 0 0 -2.56,-2.56 h-61 a2.5700000000000003,2.5700000000000003 0 0 0 -2.56,2.56 v74.88 a2.5700000000000003,2.5700000000000003 0 0 0 2.56,2.56 h14.3 z" id="svg_1"/><path class="cls-1" d="M37.73498374938964,97.209649810791 h-14.8 a6,6 0 0 1 -6,-6 V16.28964981079102 a6,6 0 0 1 6,-6 h61 a6,6 0 0 1 6,6 v8.31 h-4 v-8.31 a2.07,2.07 0 0 0 -2.06,-2.06 h-61 a2.07,2.07 0 0 0 -2.06,2.06 v74.88 a2.07,2.07 0 0 0 2.06,2.06 h14.8 zm-14.8,-85.94 a5,5 0 0 0 -5,5 v74.88 a5,5 0 0 0 5,5 h13.8 v-2 h-13.8 a3.07,3.07 0 0 1 -3.06,-3.06 V16.28964981079102 a3.07,3.07 0 0 1 3.06,-3.06 h61 a3.07,3.07 0 0 1 3.06,3.06 v7.3100000000000005 h2 v-7.3100000000000005 a5,5 0 0 0 -5,-5 z" id="svg_2"/><path class="cls-1" d="M84.33498374938965,109.209649810791 h-43.59 a6.34,6.34 0 0 1 -6.33,-6.33 v-71 a6.34,6.34 0 0 1 6.33,-6.33 h55.49 a6.34,6.34 0 0 1 6.33,6.33 v59.81 a6.36,6.36 0 0 1 -2,4.6 L88.66498374938965,107.44964981079102 A6.3100000000000005,6.3100000000000005 0 0 1 84.33498374938965,109.209649810791 zM40.74498374938966,28.449649810791016 a3.37,3.37 0 0 0 -3.37,3.37 v71 a3.37,3.37 0 0 0 3.37,3.37 h43.59 a3.36,3.36 0 0 0 2.3200000000000003,-0.92 l11.9,-11.24 a3.38,3.38 0 0 0 1.06,-2.45 V31.81964981079102 a3.37,3.37 0 0 0 -3.37,-3.37 z" id="svg_3"/><path class="cls-1" d="M84.33498374938965,109.709649810791 h-43.59 a6.84,6.84 0 0 1 -6.83,-6.83 v-71 a6.84,6.84 0 0 1 6.83,-6.83 h55.49 a6.84,6.84 0 0 1 6.83,6.83 v59.81 a6.86,6.86 0 0 1 -2.14,5 l-11.9,11.24 A6.8100000000000005,6.8100000000000005 0 0 1 84.33498374938965,109.709649810791 zm-43.59,-83.72 a5.84,5.84 0 0 0 -5.83,5.83 v71 a5.84,5.84 0 0 0 5.83,5.83 h43.59 a5.82,5.82 0 0 0 4,-1.59 l11.9,-11.24 a5.86,5.86 0 0 0 1.83,-4.24 V31.81964981079102 a5.84,5.84 0 0 0 -5.83,-5.83 zm43.59,80.75 h-43.59 a3.87,3.87 0 0 1 -3.87,-3.87 v-71 a3.88,3.88 0 0 1 3.87,-3.87 h55.49 a3.88,3.88 0 0 1 3.87,3.87 v59.81 a3.88,3.88 0 0 1 -1.21,2.81 l-11.9,11.24 A3.8600000000000003,3.8600000000000003 0 0 1 84.33498374938965,106.73964981079104 zm-43.59,-77.79 a2.87,2.87 0 0 0 -2.87,2.87 v71 a2.87,2.87 0 0 0 2.87,2.87 h43.59 a2.8600000000000003,2.8600000000000003 0 0 0 2,-0.78 l11.9,-11.24 a2.88,2.88 0 0 0 0.9,-2.09 V31.81964981079102 a2.87,2.87 0 0 0 -2.87,-2.87 z" id="svg_4"/><path class="cls-1" d="M86.91498374938965,93.54964981079104 l-0.6500000000000004,14.18 l14.82,-14 l-12.05,-1.9 A1.83,1.83 0 0 0 86.91498374938965,93.54964981079104 z" id="svg_5"/><line class="cls-1" x1="44.78498458862305" y1="40.79965782165527" x2="91.21498680114746" y2="40.79965782165527" id="svg_6"/><rect class="cls-1" x="44.78498458862305" y="40.29965782165527" width="46.43000030517578" height="1" id="svg_7"/><path class="cls-1" d="M91.21498374938965,42.02964981079103 h-46.43 a1.23,1.23 0 0 1 -1.23,-1.23 a1.23,1.23 0 0 1 1.23,-1.23 h46.43 a1.23,1.23 0 0 1 1.23,1.23 A1.23,1.23 0 0 1 91.21498374938965,42.02964981079103 z" id="svg_8"/><path class="cls-1" d="M91.21498374938965,42.52964981079103 h-46.43 a1.7400000000000002,1.7400000000000002 0 0 1 -1.73,-1.7400000000000002 a1.7400000000000002,1.7400000000000002 0 0 1 1.73,-1.73 h46.43 a1.7400000000000002,1.7400000000000002 0 0 1 1.73,1.73 A1.7400000000000002,1.7400000000000002 0 0 1 91.21498374938965,42.52964981079103 zm-46.43,-2.47 a0.7400000000000003,0.7400000000000003 0 0 0 -0.7300000000000003,0.7300000000000003 a0.7400000000000003,0.7400000000000003 0 0 0 0.7300000000000003,0.7400000000000003 h46.43 a0.7400000000000003,0.7400000000000003 0 0 0 0.7300000000000003,-0.7400000000000003 a0.7400000000000003,0.7400000000000003 0 0 0 -0.7300000000000003,-0.7300000000000003 z" id="svg_9"/><line class="cls-1" x1="44.78498458862305" y1="48.69965744018555" x2="91.21498680114746" y2="48.69965744018555" id="svg_10"/><rect class="cls-1" x="44.78498458862305" y="48.19965744018555" width="46.43000030517578" height="1" id="svg_11"/><path class="cls-1" d="M91.21498374938965,49.929649810791005 h-46.43 a1.23,1.23 0 0 1 -1.23,-1.23 a1.23,1.23 0 0 1 1.23,-1.23 h46.43 a1.23,1.23 0 0 1 1.23,1.23 A1.23,1.23 0 0 1 91.21498374938965,49.929649810791005 z" id="svg_12"/><path class="cls-1" d="M91.21498374938965,50.449649810791016 h-46.43 a1.7400000000000002,1.7400000000000002 0 0 1 -1.73,-1.7400000000000002 a1.7400000000000002,1.7400000000000002 0 0 1 1.73,-1.73 h46.43 a1.7400000000000002,1.7400000000000002 0 0 1 1.73,1.73 A1.7400000000000002,1.7400000000000002 0 0 1 91.21498374938965,50.449649810791016 zm-46.43,-2.47 a0.7400000000000003,0.7400000000000003 0 0 0 -0.7300000000000003,0.7300000000000003 a0.7400000000000003,0.7400000000000003 0 0 0 0.7300000000000003,0.7400000000000003 h46.43 a0.7400000000000003,0.7400000000000003 0 0 0 0.7300000000000003,-0.7400000000000003 a0.7400000000000003,0.7400000000000003 0 0 0 -0.7300000000000003,-0.7300000000000003 z" id="svg_13"/><line class="cls-1" x1="44.78498458862305" y1="56.59965896606445" x2="91.21498680114746" y2="56.59965896606445" id="svg_14"/><rect class="cls-1" x="44.78498458862305" y="56.09965896606445" width="46.43000030517578" height="1" id="svg_15"/><path class="cls-1" d="M91.21498374938965,57.82964981079101 h-46.43 a1.23,1.23 0 0 1 -1.23,-1.23 a1.23,1.23 0 0 1 1.23,-1.23 h46.43 a1.23,1.23 0 0 1 1.23,1.23 A1.23,1.23 0 0 1 91.21498374938965,57.82964981079101 z" id="svg_16"/><path class="cls-1" d="M91.21498374938965,58.32964981079101 h-46.43 a1.7400000000000002,1.7400000000000002 0 0 1 -1.73,-1.7400000000000002 a1.7400000000000002,1.7400000000000002 0 0 1 1.73,-1.73 h46.43 a1.7400000000000002,1.7400000000000002 0 0 1 1.73,1.73 A1.7400000000000002,1.7400000000000002 0 0 1 91.21498374938965,58.32964981079101 zm-46.43,-2.47 a0.7400000000000003,0.7400000000000003 0 0 0 -0.7300000000000003,0.7300000000000003 a0.7400000000000003,0.7400000000000003 0 0 0 0.7300000000000003,0.7400000000000003 h46.43 a0.7400000000000003,0.7400000000000003 0 0 0 0.7300000000000003,-0.7400000000000003 a0.7400000000000003,0.7400000000000003 0 0 0 -0.7300000000000003,-0.7300000000000003 z" id="svg_17"/><line class="cls-1" x1="44.78498458862305" y1="64.4996566772461" x2="91.21498680114746" y2="64.4996566772461" id="svg_18"/><rect class="cls-1" x="44.78498458862305" y="63.999656677246094" width="46.43000030517578" height="1" id="svg_19"/><path class="cls-1" d="M91.21498374938965,65.72964981079099 h-46.43 a1.23,1.23 0 0 1 -1.23,-1.23 a1.23,1.23 0 0 1 1.23,-1.23 h46.43 a1.23,1.23 0 0 1 1.23,1.23 A1.23,1.23 0 0 1 91.21498374938965,65.72964981079099 z" id="svg_20"/><path class="cls-1" d="M91.21498374938965,66.22964981079099 h-46.43 a1.7400000000000002,1.7400000000000002 0 0 1 -1.73,-1.73 a1.7400000000000002,1.7400000000000002 0 0 1 1.73,-1.7400000000000002 h46.43 a1.7400000000000002,1.7400000000000002 0 0 1 1.73,1.7400000000000002 A1.7400000000000002,1.7400000000000002 0 0 1 91.21498374938965,66.22964981079099 zm-46.43,-2.47 a0.7400000000000003,0.7400000000000003 0 0 0 -0.7300000000000003,0.7400000000000003 a0.7400000000000003,0.7400000000000003 0 0 0 0.7300000000000003,0.7300000000000003 h46.43 a0.7400000000000003,0.7400000000000003 0 0 0 0.7300000000000003,-0.7300000000000003 a0.7400000000000003,0.7400000000000003 0 0 0 -0.7300000000000003,-0.7400000000000003 z" id="svg_21"/><line class="cls-1" x1="44.78498458862305" y1="72.4096565246582" x2="91.21498680114746" y2="72.4096565246582" id="svg_22"/><rect class="cls-1" x="44.78498458862305" y="71.9096565246582" width="46.43000030517578" height="1" id="svg_23"/><path class="cls-1" d="M91.21498374938965,73.63964981079101 h-46.43 a1.23,1.23 0 0 1 -1.23,-1.23 a1.23,1.23 0 0 1 1.23,-1.23 h46.43 a1.23,1.23 0 0 1 1.23,1.23 A1.23,1.23 0 0 1 91.21498374938965,73.63964981079101 z" id="svg_24"/><path class="cls-1" d="M91.21498374938965,74.13964981079101 h-46.43 a1.7400000000000002,1.7400000000000002 0 0 1 -1.73,-1.73 a1.7400000000000002,1.7400000000000002 0 0 1 1.73,-1.7400000000000002 h46.43 a1.7400000000000002,1.7400000000000002 0 0 1 1.73,1.7400000000000002 A1.7400000000000002,1.7400000000000002 0 0 1 91.21498374938965,74.13964981079101 zm-46.43,-2.47 a0.7400000000000003,0.7400000000000003 0 0 0 -0.7300000000000003,0.7400000000000003 a0.7400000000000003,0.7400000000000003 0 0 0 0.7300000000000003,0.7300000000000003 h46.43 a0.7400000000000003,0.7400000000000003 0 0 0 0.7300000000000003,-0.7300000000000003 a0.7400000000000003,0.7400000000000003 0 0 0 -0.7300000000000003,-0.7400000000000003 z" id="svg_25"/><line class="cls-1" x1="44.78498458862305" y1="80.30965805053711" x2="91.21498680114746" y2="80.30965805053711" id="svg_26"/><rect class="cls-1" x="44.78498458862305" y="79.80965805053711" width="46.43000030517578" height="1" id="svg_27"/><path class="cls-1" d="M91.21498374938965,81.53964981079099 h-46.43 a1.23,1.23 0 0 1 -1.23,-1.23 a1.23,1.23 0 0 1 1.23,-1.23 h46.43 a1.23,1.23 0 0 1 1.23,1.23 A1.23,1.23 0 0 1 91.21498374938965,81.53964981079099 z" id="svg_28"/><path class="cls-1" d="M91.21498374938965,82.03964981079099 h-46.43 a1.7400000000000002,1.7400000000000002 0 0 1 -1.73,-1.73 a1.7400000000000002,1.7400000000000002 0 0 1 1.73,-1.7400000000000002 h46.43 a1.7400000000000002,1.7400000000000002 0 0 1 1.73,1.7400000000000002 A1.7400000000000002,1.7400000000000002 0 0 1 91.21498374938965,82.03964981079099 zm-46.43,-2.47 a0.7400000000000003,0.7400000000000003 0 0 0 -0.7300000000000003,0.7400000000000003 a0.7400000000000003,0.7400000000000003 0 0 0 0.7300000000000003,0.7300000000000003 h46.43 a0.7400000000000003,0.7400000000000003 0 0 0 0.7300000000000003,-0.7300000000000003 a0.7400000000000003,0.7400000000000003 0 0 0 -0.7300000000000003,-0.7400000000000003 z" id="svg_29"/><line class="cls-1" x1="44.78498458862305" y1="88.20965957641602" x2="75.40498542785645" y2="88.20965957641602" id="svg_30"/><rect class="cls-1" x="44.78498458862305" y="87.70965957641602" width="30.6200008392334" height="1" id="svg_31"/><path class="cls-1" d="M75.40498374938966,89.44964981079102 h-30.62 a1.23,1.23 0 0 1 -1.23,-1.23 a1.23,1.23 0 0 1 1.23,-1.23 h30.62 a1.23,1.23 0 0 1 1.23,1.23 A1.23,1.23 0 0 1 75.40498374938966,89.44964981079102 z" id="svg_32"/><path class="cls-1" d="M75.40498374938966,89.93964981079102 h-30.62 a1.7400000000000002,1.7400000000000002 0 0 1 -1.73,-1.73 a1.7400000000000002,1.7400000000000002 0 0 1 1.73,-1.7400000000000002 h30.62 a1.7400000000000002,1.7400000000000002 0 0 1 1.73,1.7400000000000002 A1.7400000000000002,1.7400000000000002 0 0 1 75.40498374938966,89.93964981079102 zM44.78498374938965,87.44964981079102 a0.7400000000000003,0.7400000000000003 0 0 0 -0.7300000000000003,0.7400000000000003 a0.7400000000000003,0.7400000000000003 0 0 0 0.7300000000000003,0.7300000000000003 h30.62 a0.7400000000000003,0.7400000000000003 0 0 0 0.7300000000000003,-0.7300000000000003 a0.7400000000000003,0.7400000000000003 0 0 0 -0.7300000000000003,-0.7400000000000003 z" id="svg_33"/></g></g></svg>