<svg xmlns="http://www.w3.org/2000/svg" data-name="圖層 1" width="120" height="120"><rect id="backgroundrect" width="100%" height="100%" x="0" y="0" fill="none" stroke="none" class="" style=""/><defs><style>.cls-1{fill:#942323;}.cls-2{fill:none;}.cls-3{fill:#fff;}</style></defs><title>大學</title><g class="currentLayer" style=""><title>Layer 1</title><g class=""><path class="cls-1" d="M92.45344585418701,57.764537429809565 a15,15 0 0 0 -2.29,-0.6400000000000003 l-0.11000000000000004,26 c-0.78,3.67 -12.36,8.68 -29.91,8.68 c-18.29,0 -30,-5.36 -30,-9.05 a1.83,1.83 0 0 1 0,-0.3400000000000003 l0.05000000000000003,-0.25 v-25 a8.5,8.5 0 0 1 -5,-2.31 v26.84 a6.33,6.33 0 0 0 -0.1,1.08 c0,9.23 17.58,14.05 35,14.05 c16.41,0 33.67,-4.5 34.89,-13.11 l0.13,-25.53 A6.8100000000000005,6.8100000000000005 0 0 1 92.45344585418701,57.764537429809565 z" id="svg_1"/><path class="cls-2" d="M59.17344585418701,72.84453742980958 l-43.66,-21.26 a2.46,2.46 0 0 1 0,-4.37 L59.17344585418701,25.91453742980957 a2.2,2.2 0 0 1 1.94,0 l43.66,21.26 a2.46,2.46 0 0 1 0,4.37 l-43.66,21.26 A2.2,2.2 0 0 1 59.17344585418701,72.84453742980958 z" id="svg_2"/><path class="cls-1" d="M60.14344585418701,75.56453742980955 a4.71,4.71 0 0 1 -2.06,-0.48000000000000015 h0 l-43.66,-21.26 a4.88,4.88 0 0 1 -2.74,-4.43 A4.88,4.88 0 0 1 14.413445854187017,44.91453742980957 l43.66,-21.26 a4.69,4.69 0 0 1 4.13,0 L105.863445854187,44.91453742980957 a4.88,4.88 0 0 1 2.74,4.43 a4.88,4.88 0 0 1 -2.74,4.43 l-43.66,21.26 A4.71,4.71 0 0 1 60.14344585418701,75.56453742980955 zm-43.41,-26.18 l43.41,21.14 l43.41,-21.14 l-43.41,-21.14 z" id="svg_3"/><path class="cls-1" d="M12.903445854186998,89.99453742980955 a1.5,1.5 0 0 1 -0.6100000000000003,-0.13 a1.5,1.5 0 0 1 -0.7600000000000003,-2 l2.3,-5.18 V49.39453742980956 a1.5,1.5 0 0 1 1.5,-1.5 a1.5,1.5 0 0 1 1.5,1.5 v33.95 l-2.56,5.76 A1.5,1.5 0 0 1 12.903445854186998,89.99453742980955 z" id="svg_4"/><line class="cls-3" x1="17.543445110321045" y1="88.48453712463379" x2="15.333445310592651" y2="83.0245418548584" id="svg_5"/><path class="cls-1" d="M17.543445854187013,89.99453742980955 a1.5,1.5 0 0 1 -1.3900000000000001,-0.9400000000000003 l-2.2,-5.47 a1.5,1.5 0 0 1 0.8300000000000003,-2 a1.5,1.5 0 0 1 2,0.8300000000000003 l2.2,5.47 a1.5,1.5 0 0 1 -0.8300000000000003,2 A1.49,1.49 0 0 1 17.543445854187013,89.99453742980955 z" id="svg_6"/></g></g></svg>