<svg xmlns="http://www.w3.org/2000/svg" data-name="圖層 1" width="100" height="100" style=""><rect id="backgroundrect" width="100%" height="100%" x="0" y="0" fill="none" stroke="none" class="" style=""/><defs><style>.cls-1,.cls-2{fill:#942323;}.cls-2{stroke:#942323;stroke-miterlimit:10;stroke-width:2px;fill-rule:evenodd;}.cls-3{fill:#fff;}</style></defs><title>報名</title><g class="currentLayer" style=""><title>Layer 1</title><g class=""><rect class="cls-1" x="1.5360565185546875" y="10.304080963134766" width="51.09000015258789" height="36.79999923706055" rx="12" ry="12" id="svg_1"/><path class="cls-2" d="M44.006056823730475,79.93407974243163 a2.18,2.18 0 0 0 1.1400000000000001,2.49 c1.06,0.53 26.24,12.93 43.06,4.12 l0.19000000000000009,-0.1 h0 c5.44,-2.9 8.71,-7 9.73,-12.08 c2.26,-11.29 -7.54,-23.44 -8,-24 a2.16,2.16 0 0 0 -1.58,-0.8 c-11.65,-0.56 -17.44,1.12 -21.66,2.36 l-1.3,0.37000000000000016 l-8.61,-12.31 a6.6,6.6 0 0 0 -11.64,6.22 l4.21,7.9 l9.78,18.62 l-2.13,-0.35000000000000014 a13.17,13.17 0 0 0 -8.39,1 a9.85,9.85 0 0 0 -4.86,6.52 zm12.47,-3.25 l6.29,1 a2.2800000000000002,2.2800000000000002 0 0 0 1.46,-0.24000000000000007 a2.31,2.31 0 0 0 0.9500000000000003,-3.1 l-11.71,-22.32 l-4.19,-7.85 a2.25,2.25 0 0 1 4,-2.06 a2.24,2.24 0 0 0 0.13,0.22000000000000008 l9.54,13.64 a2.17,2.17 0 0 0 2.2800000000000002,0.8700000000000003 c1,-0.22000000000000008 1.92,-0.51 2.94,-0.8 c4,-1.17 9,-2.62 19.24,-2.23 c1.94,2.64 8.06,11.71 6.47,19.6 c-0.7600000000000003,3.83 -3.23,6.8100000000000005 -7.51,9.09 h0 l-0.1600000000000001,0.09000000000000007 c-12.5,6.55 -31.49,-0.78 -37.33,-3.33 a5,5 0 0 1 2.07,-2.09 a8.92,8.92 0 0 1 5.42,-0.5900000000000003 a0.19000000000000009,0.19000000000000009 0 0 0 0.13,0 z" id="svg_2"/><path class="cls-3" d="M18.506056823730475,33.404079742431634 H15.716056823730469 v3.18 H14.176056823730462 v-3.18 H11.036056823730462 V31.964079742431636 h3.14 V30.514079742431647 H11.426056823730462 V29.094079742431646 h1.4 a16.74,16.74 0 0 0 -0.6100000000000003,-2.34 H11.086056823730473 V25.27407974243164 h3.06 V23.94407974243164 H11.576056823730468 V22.504079742431642 h2.5700000000000003 V20.764079742431647 H15.716056823730469 v1.7400000000000002 h2.4 v1.44 H15.716056823730469 v1.33 h2.7600000000000002 v1.48 h-0.8400000000000003 q-0.22000000000000008,0.8700000000000003 -0.7100000000000003,2.34 h1.25 v1.4100000000000001 H15.716056823730469 v1.46 h2.83 zm-2.45,-6.65 H13.816056823730463 q0.25,0.93 0.51,2.34 h1 A18.08,18.08 0 0 0 16.046056823730467,26.764079742431647 zm11,8.59 l-1,1.27 a16,16 0 0 1 -2.33,-2 a12.12,12.12 0 0 1 -1.87,2 l-1,-1.23 a9.38,9.38 0 0 0 1.94,-2 a13.19,13.19 0 0 1 -1.8,-5.33 h-0.45 v8.48 H18.99605682373047 V20.994079742431637 h7.22 q0,1.3900000000000001 -0.1,2.54 a2,2 0 0 1 -0.8700000000000003,2 a3.26,3.26 0 0 1 -1.59,0.23 l-0.8600000000000003,0 l-0.52,-1.44 l1.79,0 a0.41000000000000014,0.41000000000000014 0 0 0 0.3400000000000003,-0.19000000000000009 a4.54,4.54 0 0 0 0.19000000000000009,-1.56 h-4 v4.08 h5.68 a18.82,18.82 0 0 1 -1.61,6.63 A11.86,11.86 0 0 0 27.076056823730468,35.33407974243164 zm-2.5300000000000002,-7.26 h-2 A10.86,10.86 0 0 0 23.71605682373047,31.80407974243164 A15.06,15.06 0 0 0 24.546056823730467,28.094079742431646 z" id="svg_3"/><path class="cls-3" d="M43.94605682373047,36.62407974243165 h-1.71 v-0.9400000000000003 H34.71605682373047 v0.92 h-1.6500000000000006 V30.66407974243164 a27.91,27.91 0 0 1 -3.07,1 l-1,-1.47 a36.41,36.41 0 0 0 7,-2.5700000000000003 a19.28,19.28 0 0 0 -2.52,-2.6 q-1.4100000000000001,0.8900000000000003 -2.84,1.6300000000000003 l-1.13,-1.24 a21.23,21.23 0 0 0 6.77,-4.86 l1.73,0.47000000000000014 q-0.35000000000000014,0.42000000000000015 -0.92,1 h6.44 v1.56 a20,20 0 0 1 -6.74,5.54 h7.09 zm-1.71,-2.54 V30.69407974243164 H34.71605682373047 v3.39 zm-0.8800000000000003,-10.5 h-5.87 a6.58,6.58 0 0 1 -0.5900000000000003,0.47000000000000014 a24.08,24.08 0 0 1 2.64,2.75 A16.23,16.23 0 0 0 41.35605682373047,23.574079742431636 z" id="svg_4"/></g></g></svg>