<svg xmlns="http://www.w3.org/2000/svg" data-name="圖層 1" width="120" height="120" style=""><rect id="backgroundrect" width="100%" height="100%" x="0" y="0" fill="none" stroke="none" class="" style=""/><defs><style>.cls-1{fill:#942323;}.cls-2{fill:#dad6b2;}</style></defs><title>時程</title><g class="currentLayer" style=""><title>Layer 1</title><g class=""><path class="cls-1" d="M99.82499710083007,104.89999866485596 h-79.65 a8.78,8.78 0 0 1 -8.77,-8.77 V37.89999866485596 a8.78,8.78 0 0 1 8.77,-8.77 h79.65 A8.78,8.78 0 0 1 108.59499710083008,37.89999866485596 v58.27 A8.78,8.78 0 0 1 99.82499710083007,104.89999866485596 zm-79.65,-70.8 a3.77,3.77 0 0 0 -3.77,3.77 v58.27 a3.77,3.77 0 0 0 3.77,3.77 h79.65 a3.77,3.77 0 0 0 3.77,-3.77 V37.89999866485596 a3.77,3.77 0 0 0 -3.77,-3.77 z" id="svg_1"/><line class="cls-2" x1="44.63500213623047" y1="17.599995613098145" x2="44.63500213623047" y2="44.65999507904053" id="svg_2"/><path class="cls-1" d="M44.63499710083008,47.15999866485595 a2.5,2.5 0 0 1 -2.5,-2.5 V17.599998664855946 a2.5,2.5 0 0 1 2.5,-2.5 a2.5,2.5 0 0 1 2.5,2.5 v27.06 A2.5,2.5 0 0 1 44.63499710083008,47.15999866485595 z" id="svg_3"/><line class="cls-2" x1="77.22500228881836" y1="17.599995613098145" x2="77.22500228881836" y2="44.65999507904053" id="svg_4"/><path class="cls-1" d="M77.22499710083008,47.15999866485595 a2.5,2.5 0 0 1 -2.5,-2.5 V17.599998664855946 a2.5,2.5 0 0 1 2.5,-2.5 a2.5,2.5 0 0 1 2.5,2.5 v27.06 A2.5,2.5 0 0 1 77.22499710083008,47.15999866485595 z" id="svg_5"/><line class="cls-2" x1="13.90500259399414" y1="53.509995460510254" x2="106.09500503540039" y2="53.509995460510254" id="svg_6"/><rect class="cls-1" x="13.90500259399414" y="51.009995460510254" width="92.19000244140625" height="5" id="svg_7"/><rect class="cls-1" x="20.425003051757812" y="60.48999500274658" width="14.670000076293945" height="14.670000076293945" rx="2.9200000762939453" ry="2.9200000762939453" id="svg_8"/><rect class="cls-1" x="20.425003051757812" y="80.04999256134033" width="14.670000076293945" height="14.670000076293945" rx="2.9200000762939453" ry="2.9200000762939453" id="svg_9"/><rect class="cls-1" x="41.37500190734863" y="60.48999500274658" width="14.670000076293945" height="14.670000076293945" rx="3.1700000762939453" ry="3.1700000762939453" id="svg_10"/><rect class="cls-1" x="41.37500190734863" y="80.04999256134033" width="14.670000076293945" height="14.670000076293945" rx="2.9200000762939453" ry="2.9200000762939453" id="svg_11"/><rect class="cls-1" x="62.32500076293945" y="60.48999500274658" width="14.670000076293945" height="14.670000076293945" rx="2.9200000762939453" ry="2.9200000762939453" id="svg_12"/><rect class="cls-1" x="83.27500534057617" y="60.48999500274658" width="14.670000076293945" height="14.670000076293945" rx="2.9200000762939453" ry="2.9200000762939453" id="svg_13"/><rect class="cls-1" x="62.32500076293945" y="80.04999256134033" width="14.670000076293945" height="14.670000076293945" rx="2.9200000762939453" ry="2.9200000762939453" id="svg_14"/></g></g></svg>