<svg xmlns="http://www.w3.org/2000/svg" data-name="圖層 1" width="120" height="120"><rect id="backgroundrect" width="100%" height="100%" x="0" y="0" fill="none" stroke="none" class="" style=""/><defs><style>.cls-1{fill:#942323;fill-rule:evenodd;}</style></defs><title>網站</title><g class="currentLayer" style=""><title>Layer 1</title><path class="cls-1" d="M39.9155650138855,69.49599670410156 a23,23 0 0 1 7.6,0.8800000000000003 l20.5,6.18 a2.84,2.84 0 0 1 2,2.43 a9.53,9.53 0 0 1 -8.13,10.49 c-6.65,1.08 -16.9,0.45 -17.33,0.42000000000000015 a2.7800000000000002,2.7800000000000002 0 1 1 0.35000000000000014,-5.55 c0.09000000000000007,0 10.07,0.5900000000000003 16.09,-0.35000000000000014 a3.6,3.6 0 0 0 3.13,-2.34 a2.24,2.24 0 0 0 0.11000000000000004,-0.37000000000000016 L45.9155650138855,75.75599670410156 c-7.63,-2.3 -16.56,2 -17.46,2.41 L8.145565013885502,90.37599670410157 a3,3 0 0 1 -1.45,0.4 a2.84,2.84 0 0 1 -2.4,-1.34 a2.8,2.8 0 0 1 1,-3.84 l20.39,-12.32 l0.17,-0.09000000000000007 A37.66,37.66 0 0 1 39.9155650138855,69.49599670410156 zm66.83,-3.84 a10.64,10.64 0 0 1 9,5.42 a2.79,2.79 0 0 1 -0.77,3.58 L74.4155650138855,104.31599670410156 a18.34,18.34 0 0 1 -13.61,3.2800000000000002 l-32.71,-5.22 l-7.59,6.34 a2.83,2.83 0 0 1 -4,-0.35000000000000014 a2.79,2.79 0 0 1 0.35000000000000014,-3.95 l8.59,-7.14 a3,3 0 0 1 2.24,-0.6100000000000003 l33.93,5.41 a12.8,12.8 0 0 0 9.43,-2.29 l38,-27.81 a0.36000000000000015,0.36000000000000015 0 0 0 -0.11000000000000004,-0.07 c-1.47,-0.91 -3.18,-0.91 -5.21,0 c-7.1,3.14 -22.19,10.4 -22.35,10.47 a2.8200000000000003,2.8200000000000003 0 0 1 -3.74,-1.31 a2.7800000000000002,2.7800000000000002 0 0 1 1.31,-3.72 c0.1600000000000001,-0.07 15.34,-7.37 22.53,-10.54 a12.6,12.6 0 0 1 5.21,-1.1600000000000001 zM63.9155650138855,40.87599670410157 A10.71,10.71 0 1 0 71.5055650138855,44.00599670410156 A10.63,10.63 0 0 0 63.9155650138855,40.87599670410157 zm0,-5.59 a16.28,16.28 0 1 1 -11.54,4.78 A16.24,16.24 0 0 1 63.9155650138855,35.29599670410157 zM83.08556501388549,16.205996704101565 a7.13,7.13 0 0 0 -5.05,12.17 a7.17,7.17 0 0 0 10.13,0 a7.13,7.13 0 0 0 -5.07,-12.17 zm0,-5.59 a12.71,12.71 0 1 1 -9,3.72 a12.7,12.7 0 0 1 9,-3.72 z" id="svg_1"/></g></svg>