<svg id="圖層_1" data-name="圖層 1" xmlns="http://www.w3.org/2000/svg" xmlns:xlink="http://www.w3.org/1999/xlink" viewBox="0 0 355 318.27"><defs><style>.cls-1{fill:none;}.cls-2{clip-path:url(#clip-path);}.cls-3,.cls-5{fill:#942323;}.cls-3{fill-rule:evenodd;}.cls-4{fill:#1e556d;}</style><clipPath id="clip-path"><circle class="cls-1" cx="177.5" cy="160.91" r="45.48"/></clipPath></defs><title>567</title><g class="cls-2"><path class="cls-3" d="M182.18,127c-10.7,0-11.86,8.23-11.86,11.77V145a2.88,2.88,0,0,1-2.91,2.91h-4v8.2h4.08a2.9,2.9,0,0,1,2.91,2.91v32.09h8.22V159.05a2.92,2.92,0,0,1,2.91-2.91h7.75l.73-8.2h-8a2.9,2.9,0,0,1-2.91-2.91v-5.58a5.9,5.9,0,0,1,6-6.28h5V127l-7.93,0Zm0-5.81,10.84.06a2.92,2.92,0,0,1,2.91,2.91v12A2.92,2.92,0,0,1,193,139h-7.87a.22.22,0,0,0-.15,0,1.15,1.15,0,0,0-.06.44v2.67h8.25a2.94,2.94,0,0,1,2.91,3.17l-1.28,14a2.94,2.94,0,0,1-2.91,2.65h-7.49v32.09a2.92,2.92,0,0,1-2.91,2.91h-14a2.92,2.92,0,0,1-2.91-2.91V162h-4.08a2.9,2.9,0,0,1-2.91-2.91V145a2.9,2.9,0,0,1,2.91-2.91h4v-3.4c0-8.11,4.63-17.59,17.69-17.59Zm-5.74-17.24a56.66,56.66,0,0,0-43.1,93.63,2.89,2.89,0,0,1,.55,2.85,43,43,0,0,1-10.81,16.86,37.54,37.54,0,0,0,26.84-5,2.93,2.93,0,0,1,2.77-.17,56.73,56.73,0,1,0,23.75-108.19Zm0-5.81A62.5,62.5,0,1,1,151.66,218,43.59,43.59,0,0,1,116,221.4a3,3,0,0,1-2-2.33,2.91,2.91,0,0,1,1.14-2.76A37.43,37.43,0,0,0,127.8,200,62.48,62.48,0,0,1,176.44,98.09Z"/></g><circle class="cls-4" cx="164.03" cy="97.03" r="2.99"/><circle class="cls-4" cx="139.5" cy="107.99" r="2.99"/><circle class="cls-4" cx="121.33" cy="129.32" r="2.99"/><circle class="cls-4" cx="113.83" cy="153.32" r="2.99"/><circle class="cls-4" cx="117.18" cy="179.32" r="2.99"/><circle class="cls-4" cx="128.68" cy="200.32" r="2.99"/><circle class="cls-4" cx="148.18" cy="215.82" r="2.99"/><circle class="cls-4" cx="174.51" cy="223.12" r="2.99"/><circle class="cls-5" cx="151.15" cy="101.01" r="4.61" transform="translate(-27.16 136.47) rotate(-45)"/><circle class="cls-5" cx="177.5" cy="94.03" r="4.61" transform="translate(-14.5 153.05) rotate(-45)"/><circle class="cls-5" cx="130.02" cy="117.56" r="4.61" transform="translate(-45.05 126.37) rotate(-45)"/><circle class="cls-5" cx="116.52" cy="141.06" r="4.61" transform="translate(-65.62 123.71) rotate(-45)"/><circle class="cls-5" cx="114.52" cy="166.56" r="4.61" transform="translate(-84.23 129.77) rotate(-45)"/><circle class="cls-5" cx="122.02" cy="190.06" r="4.61" transform="translate(-98.65 141.95) rotate(-45)"/><circle class="cls-5" cx="137.52" cy="209.06" r="4.61" transform="translate(-107.55 158.48) rotate(-45)"/><circle class="cls-5" cx="160.02" cy="221.06" r="4.61" transform="translate(-109.44 177.9) rotate(-45)"/><circle class="cls-4" cx="204.49" cy="215.89" r="2.99" transform="translate(-45.86 55.42) rotate(-13.89)"/><circle class="cls-4" cx="225.67" cy="199.36" r="2.99" transform="translate(-41.27 60.02) rotate(-13.89)"/><circle class="cls-4" cx="238.18" cy="174.29" r="2.99" transform="translate(-34.88 62.3) rotate(-13.89)"/><circle class="cls-4" cx="239.69" cy="149.19" r="2.99" transform="translate(-28.81 61.93) rotate(-13.89)"/><circle class="cls-4" cx="230.2" cy="124.75" r="2.99" transform="translate(-23.22 58.93) rotate(-13.89)"/><circle class="cls-4" cx="214" cy="107.13" r="2.99" transform="translate(-19.46 54.52) rotate(-13.89)"/><circle class="cls-4" cx="191.34" cy="96.77" r="2.99" transform="translate(-17.64 48.78) rotate(-13.89)"/><circle class="cls-5" cx="216.03" cy="208.93" r="4.61" transform="translate(-74.46 285.96) rotate(-58.89)"/><circle class="cls-5" cx="192.13" cy="222.03" r="4.61" transform="translate(-97.24 271.83) rotate(-58.89)"/><circle class="cls-5" cx="232.56" cy="187.79" r="4.61" transform="translate(-48.37 289.9) rotate(-58.89)"/><circle class="cls-5" cx="240.03" cy="161.74" r="4.61" transform="translate(-22.46 283.7) rotate(-58.89)"/><circle class="cls-5" cx="235.84" cy="136.5" r="4.61" transform="translate(-2.87 267.92) rotate(-58.89)"/><circle class="cls-5" cx="222.92" cy="115.49" r="4.61" transform="translate(8.87 246.7) rotate(-58.89)"/><circle class="cls-5" cx="203.31" cy="100.77" r="4.61" transform="translate(12 222.79) rotate(-58.89)"/></svg>