<svg id="圖層_1" data-name="圖層 1" xmlns="http://www.w3.org/2000/svg" xmlns:xlink="http://www.w3.org/1999/xlink" viewBox="0 0 355 318.27"><defs><style>.cls-1{fill:none;}.cls-2{clip-path:url(#clip-path);}.cls-3,.cls-4{fill:#942323;}.cls-3{fill-rule:evenodd;}.cls-5{fill:#1e556d;}</style><clipPath id="clip-path"><circle class="cls-1" cx="178.44" cy="158.69" r="43.13"/></clipPath></defs><title>567</title><g class="cls-2"><path class="cls-3" d="M179.18,142.67a16.09,16.09,0,0,1,15.31,15.11,15.87,15.87,0,0,1-1.86,8.46,1.53,1.53,0,0,1-2.44.35h0a1.57,1.57,0,0,1-.26-1.83,12.78,12.78,0,0,0,1.46-7.13,13,13,0,1,0-6.09,12.09,1.55,1.55,0,0,1,1.92.2v0a1.54,1.54,0,0,1-.27,2.39,15.91,15.91,0,0,1-9.4,2.39,16,16,0,0,1,1.66-32ZM195,135.91a4.14,4.14,0,1,1-4.16,4.14,4.15,4.15,0,0,1,4.16-4.14Zm-34.29-4.65a9.82,9.82,0,0,0-9.82,9.79v35.28a9.82,9.82,0,0,0,9.82,9.79h35.36a9.82,9.82,0,0,0,9.82-9.79V141a9.82,9.82,0,0,0-9.82-9.79Zm0-3.11h35.36A12.93,12.93,0,0,1,209,141v35.28a12.91,12.91,0,0,1-12.92,12.89H160.76a12.93,12.93,0,0,1-12.94-12.89V141a12.94,12.94,0,0,1,12.94-12.91Zm17.67-15.51a46.06,46.06,0,1,0,46.18,46,46.16,46.16,0,0,0-46.18-46Zm0-3.11a49.24,49.24,0,1,1-34.84,14.4,49,49,0,0,1,34.84-14.4Z"/><path class="cls-4" d="M178.43,208.84A50.22,50.22,0,1,1,214,194.15,49.95,49.95,0,0,1,178.43,208.84Zm0-98.34a48.26,48.26,0,1,0,34.17,14.12A48,48,0,0,0,178.43,110.51Zm0,95.22a47,47,0,1,1,47.16-47A47.15,47.15,0,0,1,178.43,205.73Zm0-92.11a45.07,45.07,0,1,0,45.2,45.07A45.18,45.18,0,0,0,178.43,113.62Zm17.69,76.58H160.76a13.91,13.91,0,0,1-13.92-13.87V141a13.92,13.92,0,0,1,13.92-13.89h35.36A13.91,13.91,0,0,1,210,141v35.28A13.91,13.91,0,0,1,196.12,190.2Zm-35.36-61.07a12,12,0,0,0-12,11.92v35.28a12,12,0,0,0,12,11.91h35.36a11.94,11.94,0,0,0,11.94-11.91V141a12,12,0,0,0-11.94-11.92Zm35.36,58H160.76A10.8,10.8,0,0,1,150,176.32V141a10.8,10.8,0,0,1,10.8-10.78h35.36A10.8,10.8,0,0,1,206.92,141v35.28A10.8,10.8,0,0,1,196.12,187.1Zm-35.36-54.87a8.84,8.84,0,0,0-8.84,8.81v35.28a8.84,8.84,0,0,0,8.84,8.81h35.36a8.84,8.84,0,0,0,8.84-8.81V141a8.84,8.84,0,0,0-8.84-8.81Zm17.71,43.48-1,0a17,17,0,1,1,18-18,16.9,16.9,0,0,1-2,9,2.51,2.51,0,0,1-3.87.69l-.16-.14a2.55,2.55,0,0,1-.43-3,11.81,11.81,0,0,0,1.35-6.59,12,12,0,0,0-20-7.82,12,12,0,0,0,8,20.79,11.41,11.41,0,0,0,6.43-1.8,2.52,2.52,0,0,1,3.12.33l.13.15a2.48,2.48,0,0,1,.62,1.92,2.53,2.53,0,0,1-1.17,1.88A16.87,16.87,0,0,1,178.47,175.72Zm0-32.09a15.06,15.06,0,0,0-.87,30.1,15,15,0,0,0,8.83-2.24.58.58,0,0,0,.26-.43.52.52,0,0,0-.15-.43l-.09-.09a.57.57,0,0,0-.63,0,14.2,14.2,0,0,1-7.49,2.1,13.94,13.94,0,1,1,12.46-7.42.59.59,0,0,0,.05.62l.07.07a.53.53,0,0,0,.47.16.54.54,0,0,0,.41-.28,14.94,14.94,0,0,0,1.75-7.94,15.19,15.19,0,0,0-14.37-14.19h0Zm16.6,1.54a5.12,5.12,0,1,1,5.14-5.12A5.14,5.14,0,0,1,195,145.17Zm0-8.28a3.16,3.16,0,1,0,3.17,3.16A3.17,3.17,0,0,0,195,136.89Z"/></g><circle class="cls-5" cx="164.25" cy="98.13" r="2.99"/><circle class="cls-5" cx="139.72" cy="109.09" r="2.99"/><circle class="cls-5" cx="121.56" cy="130.42" r="2.99"/><circle class="cls-5" cx="114.06" cy="154.42" r="2.99"/><circle class="cls-5" cx="117.41" cy="180.42" r="2.99"/><circle class="cls-5" cx="128.91" cy="201.42" r="2.99"/><circle class="cls-5" cx="148.41" cy="216.92" r="2.99"/><circle class="cls-5" cx="174.74" cy="224.22" r="2.99"/><circle class="cls-4" cx="151.37" cy="102.12" r="4.61" transform="translate(-27.87 136.95) rotate(-45)"/><circle class="cls-4" cx="177.72" cy="95.14" r="4.61" transform="translate(-15.22 153.53) rotate(-45)"/><circle class="cls-4" cx="130.25" cy="118.67" r="4.61" transform="translate(-45.76 126.86) rotate(-45)"/><circle class="cls-4" cx="116.75" cy="142.17" r="4.61" transform="translate(-66.33 124.19) rotate(-45)"/><circle class="cls-4" cx="114.75" cy="167.67" r="4.61" transform="translate(-84.95 130.25) rotate(-45)"/><circle class="cls-4" cx="122.25" cy="191.17" r="4.61" transform="translate(-99.37 142.43) rotate(-45)"/><circle class="cls-4" cx="137.75" cy="210.17" r="4.61" transform="translate(-108.26 158.96) rotate(-45)"/><circle class="cls-4" cx="160.25" cy="222.17" r="4.61" transform="translate(-110.16 178.38) rotate(-45)"/><circle class="cls-5" cx="204.71" cy="216.99" r="2.99" transform="translate(-46.12 55.51) rotate(-13.89)"/><circle class="cls-5" cx="225.89" cy="200.47" r="2.99" transform="translate(-41.53 60.11) rotate(-13.89)"/><circle class="cls-5" cx="238.4" cy="175.39" r="2.99" transform="translate(-35.14 62.38) rotate(-13.89)"/><circle class="cls-5" cx="239.92" cy="150.3" r="2.99" transform="translate(-29.07 62.01) rotate(-13.89)"/><circle class="cls-5" cx="230.43" cy="125.86" r="2.99" transform="translate(-23.48 59.02) rotate(-13.89)"/><circle class="cls-5" cx="214.22" cy="108.24" r="2.99" transform="translate(-19.72 54.61) rotate(-13.89)"/><circle class="cls-5" cx="191.57" cy="97.87" r="2.99" transform="translate(-17.9 48.87) rotate(-13.89)"/><circle class="cls-4" cx="216.25" cy="210.03" r="4.61" transform="translate(-75.3 286.69) rotate(-58.89)"/><circle class="cls-4" cx="192.35" cy="223.14" r="4.61" transform="translate(-98.07 272.56) rotate(-58.89)"/><circle class="cls-4" cx="232.79" cy="188.89" r="4.61" transform="translate(-49.21 290.63) rotate(-58.89)"/><circle class="cls-4" cx="240.25" cy="162.84" r="4.61" transform="translate(-23.29 284.42) rotate(-58.89)"/><circle class="cls-4" cx="236.07" cy="137.61" r="4.61" transform="translate(-3.71 268.64) rotate(-58.89)"/><circle class="cls-4" cx="223.15" cy="116.59" r="4.61" transform="translate(8.03 247.42) rotate(-58.89)"/><circle class="cls-4" cx="203.54" cy="101.87" r="4.61" transform="translate(11.16 223.52) rotate(-58.89)"/></svg>