<svg id="圖層_1" data-name="圖層 1" xmlns="http://www.w3.org/2000/svg" viewBox="0 0 355 318.27"><defs><style>.cls-1,.cls-2{fill:#942323;}.cls-1{fill-rule:evenodd;}.cls-3{fill:#133180;}.cls-4{fill:#1e556d;}</style></defs><title>567</title><path class="cls-1" d="M153.59,144.44v37.87a2,2,0,0,0,2,2h47.24a2,2,0,0,0,2-2V144.44Zm13.79-7.86h31.44a1.13,1.13,0,0,1,1.17,1.09,1.14,1.14,0,0,1-1.17,1.17H167.39a1.14,1.14,0,0,1-1.17-1.17,1.13,1.13,0,0,1,1.17-1.09Zm-5.26,0h.75a1.13,1.13,0,0,1,1.17,1.09,1.14,1.14,0,0,1-1.17,1.17h-.75a1.13,1.13,0,0,1-1.09-1.17,1.11,1.11,0,0,1,1.09-1.09Zm-4.52,0h.84a1.11,1.11,0,0,1,1.09,1.09,1.13,1.13,0,0,1-1.09,1.17h-.84a1.13,1.13,0,0,1-1.09-1.17,1.11,1.11,0,0,1,1.09-1.09Zm-2-3.51a2,2,0,0,0-2,2v7.19h51.25v-7.19a2,2,0,0,0-2-2Zm0-2.26h47.24a4.28,4.28,0,0,1,4.26,4.26v47.24a4.28,4.28,0,0,1-4.26,4.26H155.6a4.28,4.28,0,0,1-4.26-4.26V135.07a4.28,4.28,0,0,1,4.26-4.26Z"/><path class="cls-2" d="M202.84,187.55H155.6a5.25,5.25,0,0,1-5.25-5.24V135.07a5.25,5.25,0,0,1,5.25-5.24h47.24a5.25,5.25,0,0,1,5.24,5.24v47.24A5.25,5.25,0,0,1,202.84,187.55ZM155.6,131.79a3.29,3.29,0,0,0-3.28,3.28v47.24a3.29,3.29,0,0,0,3.28,3.28h47.24a3.29,3.29,0,0,0,3.28-3.28V135.07a3.29,3.29,0,0,0-3.28-3.28Zm47.24,53.51H155.6a3,3,0,0,1-3-3V143.45h53.21v38.85A3,3,0,0,1,202.84,185.3Zm-48.26-39.88v36.89a1.05,1.05,0,0,0,1,1h47.24a1.05,1.05,0,0,0,1-1V145.42Zm51.25-2.17H152.61v-8.17a3,3,0,0,1,3-3h47.24a3,3,0,0,1,3,3Zm-51.25-2h49.29v-6.21a1.05,1.05,0,0,0-1-1H155.6a1.05,1.05,0,0,0-1,1Zm44.26-1.47H167.38a2.11,2.11,0,1,1,0-4.22h31.45a2.11,2.11,0,1,1,0,4.22Zm-31.45-2.26c-.13,0-.19.08-.19.11a.17.17,0,0,0,.19.19h31.45a.17.17,0,0,0,.19-.19Zm-4.51,2.26h-.75a2.06,2.06,0,0,1-1.84-1.17,2.07,2.07,0,0,1-1.84,1.17h-.84a2.11,2.11,0,0,1,0-4.22h.84a2.1,2.1,0,0,1,1.84,1.14,2.1,2.1,0,0,1,1.84-1.14h.75a2.11,2.11,0,1,1,0,4.22Zm-.75-2.26a.13.13,0,0,0-.1.11l.86.19a.16.16,0,0,0,.19-.19Zm-4.52,0a.13.13,0,0,0-.11.11l.95.19v-.29Z"/><path class="cls-2" d="M166.95,174.39c-4,0-7.36-3.69-7.41-8.31s3.2-8.42,7.24-8.46a7.37,7.37,0,0,1,6.85,5.2.85.85,0,0,1-.38,1.06.68.68,0,0,1-.93-.44,5.94,5.94,0,0,0-5.53-4.19c-3.26,0-5.88,3.09-5.84,6.82s2.72,6.74,6,6.7a6,6,0,0,0,5.51-4.5.69.69,0,0,1,.9-.49.85.85,0,0,1,.43,1A7.47,7.47,0,0,1,166.95,174.39Z"/><path class="cls-3" d="M185.62,163.25a.63.63,0,0,1-.32-.08.87.87,0,0,1-.33-1.09l.09-.21a.67.67,0,0,1,1-.34.87.87,0,0,1,.3,1.1l-.07.17A.7.7,0,0,1,185.62,163.25Z"/><path class="cls-2" d="M191.65,174.15c-4,0-7.36-3.69-7.41-8.31a9.3,9.3,0,0,1,.73-3.75.67.67,0,0,1,.95-.37.87.87,0,0,1,.33,1.09,7.5,7.5,0,0,0-.59,3c0,3.73,2.72,6.74,6,6.7s5.88-3.09,5.84-6.82a7.49,7.49,0,0,0-.65-3,.87.87,0,0,1,.31-1.09.67.67,0,0,1,1,.35,9.3,9.3,0,0,1,.81,3.74C198.94,170.32,195.69,174.11,191.65,174.15Z"/><path class="cls-4" d="M192.25,165.51l-7.33-8.22,2.66-3.1a.9.9,0,0,0,0-1.15.65.65,0,0,0-1,0l-9,10.51-.09-9.13a.82.82,0,0,0-.44-.75.64.64,0,0,0-.77.18l-9.91,11.57a.9.9,0,0,0,0,1.15.65.65,0,0,0,1,0l8.72-10.18.09,9.13h0l0,2h-1.35a.82.82,0,0,0,0,1.62l2.06,0,2.15,0a.82.82,0,0,0,0-1.62h-1.44l0-1.63,6.34-7.4,7.33,8.22a.65.65,0,0,0,1,0A.9.9,0,0,0,192.25,165.51Z"/><path class="cls-2" d="M178.08,152.83l-4.46,0a1.17,1.17,0,0,1,0-2.32l4.46,0a1.17,1.17,0,0,1,0,2.32Z"/><path class="cls-4" d="M192.54,157.49l-4.79,0a.82.82,0,0,1,0-1.62l4.79,0a.82.82,0,0,1,0,1.62Z"/><circle class="cls-4" cx="164.25" cy="98.13" r="2.99"/><circle class="cls-4" cx="139.72" cy="109.09" r="2.99"/><circle class="cls-4" cx="121.56" cy="130.42" r="2.99"/><circle class="cls-4" cx="114.06" cy="154.42" r="2.99"/><circle class="cls-4" cx="117.41" cy="180.42" r="2.99"/><circle class="cls-4" cx="128.91" cy="201.42" r="2.99"/><circle class="cls-4" cx="148.41" cy="216.92" r="2.99"/><circle class="cls-4" cx="174.74" cy="224.22" r="2.99"/><circle class="cls-2" cx="151.37" cy="102.12" r="4.61" transform="translate(-27.87 136.95) rotate(-45)"/><circle class="cls-2" cx="177.72" cy="95.14" r="4.61" transform="translate(-15.22 153.53) rotate(-45)"/><circle class="cls-2" cx="130.25" cy="118.67" r="4.61" transform="translate(-45.76 126.86) rotate(-45)"/><circle class="cls-2" cx="116.75" cy="142.17" r="4.61" transform="translate(-66.33 124.19) rotate(-45)"/><circle class="cls-2" cx="114.75" cy="167.67" r="4.61" transform="translate(-84.95 130.25) rotate(-45)"/><circle class="cls-2" cx="122.25" cy="191.17" r="4.61" transform="translate(-99.37 142.43) rotate(-45)"/><circle class="cls-2" cx="137.75" cy="210.17" r="4.61" transform="translate(-108.26 158.96) rotate(-45)"/><circle class="cls-2" cx="160.25" cy="222.17" r="4.61" transform="translate(-110.16 178.38) rotate(-45)"/><circle class="cls-4" cx="204.71" cy="216.99" r="2.99" transform="translate(-46.12 55.51) rotate(-13.89)"/><circle class="cls-4" cx="225.89" cy="200.47" r="2.99" transform="translate(-41.53 60.11) rotate(-13.89)"/><circle class="cls-4" cx="238.4" cy="175.39" r="2.99" transform="translate(-35.14 62.38) rotate(-13.89)"/><circle class="cls-4" cx="239.92" cy="150.3" r="2.99" transform="translate(-29.07 62.01) rotate(-13.89)"/><circle class="cls-4" cx="230.43" cy="125.86" r="2.99" transform="translate(-23.48 59.02) rotate(-13.89)"/><circle class="cls-4" cx="214.22" cy="108.24" r="2.99" transform="translate(-19.72 54.61) rotate(-13.89)"/><circle class="cls-4" cx="191.57" cy="97.87" r="2.99" transform="translate(-17.9 48.87) rotate(-13.89)"/><circle class="cls-2" cx="216.25" cy="210.03" r="4.61" transform="translate(-75.3 286.69) rotate(-58.89)"/><circle class="cls-2" cx="192.35" cy="223.14" r="4.61" transform="translate(-98.07 272.56) rotate(-58.89)"/><circle class="cls-2" cx="232.79" cy="188.89" r="4.61" transform="translate(-49.21 290.63) rotate(-58.89)"/><circle class="cls-2" cx="240.25" cy="162.84" r="4.61" transform="translate(-23.29 284.42) rotate(-58.89)"/><circle class="cls-2" cx="236.07" cy="137.61" r="4.61" transform="translate(-3.71 268.64) rotate(-58.89)"/><circle class="cls-2" cx="223.15" cy="116.59" r="4.61" transform="translate(8.03 247.42) rotate(-58.89)"/><circle class="cls-2" cx="203.54" cy="101.87" r="4.61" transform="matrix(0.52, -0.86, 0.86, 0.52, 11.16, 223.52)"/></svg>