<svg xmlns="http://www.w3.org/2000/svg" data-name="圖層 1" width="309" height="145"><rect id="backgroundrect" width="100%" height="100%" x="0" y="0" fill="none" stroke="none"/><defs><style>.cls-1{opacity:0.43;}.cls-2{fill:#942323;}.cls-3{opacity:0.75;}.cls-4{fill:#1e556d;}.cls-5{fill:#dad6b2;}</style></defs><title>網站</title><g class="currentLayer" style=""><title>Layer 1</title><g class="cls-1" id="svg_1"><circle class="cls-2" cx="334.179988861084" cy="514.7754402160645" r="29.959997177124023" transform="rotate(-71.5 19.529994964599613,354.4954528808594) " id="svg_2"/></g><g class="cls-3" id="svg_3"><circle class="cls-4" cx="236.28998947143555" cy="102.57545852661133" r="17.459999084472656" id="svg_4"/></g><g class="cls-3" id="svg_5"><path class="cls-4" d="M43.08999313354492,89.66545486450195 A44.85,44.85 0 1 1 89.69999313354492,44.89545486450196 h-7.47 a37.37,37.37 0 1 0 -38.85,37.34 z" id="svg_6"/></g><path class="cls-2" d="M53.69999313354492,45.91545486450195 L52.69999313354492,44.02545486450195 a4.45,4.45 0 0 0 -3.05,-8.25 L49.20999313354493,33.66545486450195 A6.62,6.62 0 0 1 53.69999313354492,45.91545486450195 z" id="svg_7"/><path class="cls-2" d="M36.619993133544924,66.72545486450196 l-8.08,-12 l-2.07,0.8800000000000001 L22.699993133544922,46.66545486450195 L28.699993133544922,44.12545486450195 L47.55999313354492,27.835454864501955 l9.76,22.93 l-21.46,2 l7.17,11.24 zM29.339993133544922,52.06545486450196 l8.08,12 l2.42,-1 l-6,-9.35 a2,2 0 0 1 1.48,-3 l18.81,-1.7400000000000002 L46.69999313354492,31.42545486450196 L29.87999313354493,45.985454864501946 l-4.37,1.86 l2.11,4.95 z" id="svg_8"/><line class="cls-5" x1="55.739994049072266" y1="29.635456085205078" x2="59.52999496459961" y2="24.11545181274414" id="svg_9"/><path class="cls-2" d="M55.69999313354492,30.71545486450195 a1.08,1.08 0 0 1 -0.8900000000000001,-1.7000000000000002 l3.7800000000000002,-5.51 a1.08,1.08 0 1 1 1.79,1.23 l-3.7800000000000002,5.51 A1.08,1.08 0 0 1 55.69999313354492,30.71545486450195 z" id="svg_10"/><line class="cls-5" x1="59.52999496459961" y1="35.98545455932617" x2="64.26999282836914" y2="32.81545639038086" id="svg_11"/><path class="cls-2" d="M59.52999313354492,37.06545486450196 a1.08,1.08 0 0 1 -0.6000000000000001,-2 L63.69999313354492,31.915454864501953 a1.08,1.08 0 1 1 1.2,1.8 l-4.75,3.16 A1.08,1.08 0 0 1 59.52999313354492,37.06545486450196 z" id="svg_12"/><line class="cls-5" x1="60.34999465942383" y1="43.06545639038086" x2="65.94999313354492" y2="43.93545150756836" id="svg_13"/><path class="cls-2" d="M65.94999313354492,45.01545486450195 h-0.17 l-5.6,-0.8700000000000001 a1.08,1.08 0 0 1 0.33000000000000007,-2.14 l5.6,0.8700000000000001 a1.08,1.08 0 0 1 -0.16000000000000003,2.16 z" id="svg_14"/><path class="cls-2" d="M107.35999313354492,89.60545486450195 H79.59999313354493 v27.82 h-5.15 V112.16545486450195 A192.2,192.2 0 0 1 54.34999313354493,113.66545486450195 l-1.36,-4.9 h5.15 V89.60545486450195 H53.409993133544916 v-4.6 h53.95 zm-7.51,-6.87 h-5.33 V68.66545486450195 H66.18999313354492 v14.08 h-5.21 V64.05545486450195 h38.87 zm-25.4,9.9 v-3 h-11 v3 zm0,7.45 v-3.36 h-11 v3.36 zm0,7.27 v-3.12 h-11 v4.15 Q71.45999313354493,107.86545486450194 74.44999313354492,107.34545486450196 zm17.89,-31.88 H68.12999313354493 v-4.09 h24.22 zm0,6.8100000000000005 H68.12999313354493 v-4 h24.22 zM107.69999313354492,113.10545486450195 l-2.85,4.78 a45.25,45.25 0 0 1 -10.41,-5.9 A37.35,37.35 0 0 1 83.28999313354493,117.66545486450195 l-2.79,-4.54 a33.37,33.37 0 0 0 9.93,-4.51 A38,38 0 0 1 83.69999313354492,97.78545486450196 H81.69999313354492 V92.96545486450196 h23.37 a30.81,30.81 0 0 1 -7.05,15.56 A33.88,33.88 0 0 0 107.69999313354492,113.10545486450195 zm-9.17,-15.32 h-9.23 a25,25 0 0 0 5,7.39 A26.22,26.22 0 0 0 98.48999313354491,97.78545486450196 z" id="svg_15"/><path class="cls-2" d="M125.52999313354493,100.66545486450195 a55.62,55.62 0 0 1 -6,12.41 L115.04999313354492,109.66545486450195 A49.34,49.34 0 0 0 120.69999313354492,98.35545486450195 zm18.47,-3.91 H132.3999931335449 v20.71 h-5.45 V96.72545486450196 H115.52999313354493 v-5.15 h11.41 V86.66545486450195 H116.16999313354492 v-5 h6.08 A61.55,61.55 0 0 0 119.69999313354492,74.66545486450195 l3.6900000000000004,-1.9100000000000001 h-7.05 v-5 h9.93 a16.89,16.89 0 0 0 -1.8800000000000001,-3.7800000000000002 l5.9,-1.3 a42.7,42.7 0 0 1 2.3,5.09 h10.41 v5 h-6.72 l3.84,2.12 a62.18,62.18 0 0 1 -3.15,6.87 h6.08 v5 H132.3999931335449 v4.87 h11.59 zm-9.11,-24 H124.79999313354492 a63.38,63.38 0 0 1 3.27,9 h3.3 A54.85,54.85 0 0 0 134.87999313354493,72.74545486450195 zm8,33.85 l-4.48,2.54 a42.45,42.45 0 0 0 -4,-9.29 l4.6,-2.12 A35.56,35.56 0 0 1 142.8999931335449,106.59545486450196 zm26.52,-19.59 h-5.63 v30.3 H158.3999931335449 v-30.3 h-6.27 q-0.18000000000000002,21.19 -7.08,30.36 L140.53999313354493,113.66545486450195 q6.05,-8.14 6.05,-24.95 V67.47545486450196 a64.66,64.66 0 0 0 17.5,-4.6 l3.7800000000000002,4.6 a76.1,76.1 0 0 1 -15.74,4.69 V81.66545486450195 h17.29 z" id="svg_16"/><path class="cls-2" d="M191.69999313354492,86.00545486450196 l-3.39,4.54 a57.86,57.86 0 0 0 -11.11,-7.63 l3.36,-4.54 A62.47,62.47 0 0 1 191.69999313354492,86.00545486450196 zm0.8800000000000001,11 a96.67,96.67 0 0 1 -10.23,20.77 l-4.84,-3.24 a93.09,93.09 0 0 0 10.29,-20.59 zm0,-25.07 l-3.84,4.24 a52,52 0 0 0 -11,-9 l4,-4.18 A63.72,63.72 0 0 1 192.60999313354492,71.92545486450196 zm37,38.75 q0,4.21 -1.85,5.39 t-6.8100000000000005,1.18 q-1.82,0 -3.27,-0.12000000000000001 l-2,-5.15 q5.09,0.09000000000000002 6.86,0 t1.77,-1.33 v-7.17 q-10.05,2.7 -21.16,4.8100000000000005 l-1.85,-3.45 q-1.57,7.87 -6,12.38 L190.88999313354492,113.66545486450195 a18.23,18.23 0 0 0 3.89,-6.6 q1.56,-4.24 1.56,-12.75 V81.49545486450197 h13.83 V63.27545486450195 H215.69999313354492 v18.22 h13.9 zm-23,-33.54 l-4.78,2.72 a66.33,66.33 0 0 0 -8,-12.32 l4.84,-2.91 A66.72,66.72 0 0 1 206.56999313354493,77.13545486450195 zm17.68,21 V86.52545486450197 H201.77999313354493 v3.63 q9.69,0.7600000000000001 19.1,1.8800000000000001 l-1.42,5.27 q-7.8100000000000005,-1.36 -17.68,-2.12 a67.85,67.85 0 0 1 -0.30000000000000004,8 A194.16,194.16 0 0 0 224.24999313354493,98.17545486450194 zm7.3,-31.39 a64.73,64.73 0 0 1 -6.93,13.35 L219.4599931335449,77.66545486450195 a66,66 0 0 0 7,-13 z" id="svg_17"/><path class="cls-2" d="M251.63999313354492,101.50545486450196 a73.14,73.14 0 0 1 -8,13.9 l-4.6,-3 a68.86,68.86 0 0 0 7.75,-13.17 zm35.33,-3.72 h-41 V67.72545486450196 h11.66 a28.78,28.78 0 0 0 2.88,-5.27 l6.05,1.12 a20.54,20.54 0 0 1 -2.27,4.15 h22.67 zm-5.33,-21.55 v-3.7800000000000002 H251.30999313354494 v3.7800000000000002 zm0,8.42 v-3.91 H251.30999313354494 V84.66545486450195 zm0,8.39 v-3.91 H251.30999313354494 v3.91 zm0.7600000000000001,15.17 q-0.36000000000000004,8.57 -8.63,8.57 H260.5099931335449 a6.84,6.84 0 0 1 -4.65,-1.56 a5.74,5.74 0 0 1 -1.8,-4.59 v-10.6 h5.45 v9.81 a1.54,1.54 0 0 0 0.8300000000000001,1.53 a10.45,10.45 0 0 0 3.74,0.41000000000000003 l9.26,-0.09000000000000002 a4,4 0 0 0 2.21,-0.7000000000000001 q1.06,-0.7000000000000001 1.42,-5 zm-7.84,-2.15 l-4.75,2.91 a53,53 0 0 0 -6.27,-7.63 l4.51,-2.85 A42,42 0 0 1 274.55999313354494,106.04545486450195 zm19.68,6.69 l-4.84,2.66 a60.2,60.2 0 0 0 -8.57,-13 l4.78,-2.72 A67.43,67.43 0 0 1 294.23999313354494,112.73545486450195 z" id="svg_18"/></g></svg>