<svg xmlns="http://www.w3.org/2000/svg" viewBox="0 0 583 278">
  <defs>
    <style>
      .cls-1 {
        fill: #1e5eaa;
      }

      .cls-1, .cls-2 {
        opacity: 0.4;
      }

      .cls-2 {
        fill: #dd4a43;
      }

      .cls-3 {
        fill: #1e3373;
      }
    </style>
  </defs>
  <title>最新</title>
  <g id="圖層_2" data-name="圖層 2">
    <g id="圖層_4" data-name="圖層 4">
      <circle class="cls-1" cx="482" cy="177" r="101"/>
      <circle class="cls-2" cx="87" cy="87" r="87"/>
      <g>
        <path class="cls-3" d="M174.19,153.92l3.89,1.45a38.08,38.08,0,0,1-9.43,15.9,35.41,35.41,0,0,0,12.93,5.81,15.16,15.16,0,0,0-2.05,2.24,13.57,13.57,0,0,0-1.64,2.64,38.41,38.41,0,0,1-13.46-7A46.63,46.63,0,0,1,152,181.76a15.52,15.52,0,0,0-3.17-4.62V182h-6v-6c-1.81.17-4.3.44-7.49.79l-8.35.92c-2.37.27-4.46.48-6.26.66l-.47-5.47c.66-.05,1.7-.15,3.11-.3s2.41-.25,3-.3V150.62h-5.54v-5.14H180v5.14H148.79v26.06A38.11,38.11,0,0,0,160.14,171a43,43,0,0,1-6.8-11l3.63-1H150.9v-4.88h22.24Zm-1.71-31.8v20.19H128.8V122.12Zm-29.69,28.5H132.17v3.76h10.62Zm-10.62,8.25v4h10.62v-4Zm0,12.86,10.62-1v-3.36H132.17Zm34-41.56v-3.83H134.8v3.83Zm0,7.92v-3.9H134.8v3.9ZM170.43,159H158.62a30,30,0,0,0,5.67,8.51A32.4,32.4,0,0,0,170.43,159Z"/>
        <path class="cls-3" d="M230.12,167.91l-3.63,4.68a73.51,73.51,0,0,0-6.53-6.73v16h-6.07V166.06a48.75,48.75,0,0,1-10.09,11.35,19.69,19.69,0,0,0-4-4.49,36.24,36.24,0,0,0,6.93-6.1,47.59,47.59,0,0,0,5.94-8.08H201.36v-5.35h12.53v-6.13H201.16v-5.35h7a31.08,31.08,0,0,0-2.37-8.7l4.55-1.19h-8.25v-5.21h11.81v-6.4H220v6.4h11.81V132h-8.18l4.75,1.12q-2.51,6.33-3.69,8.77h7.85v5.35H220v6.13H231.9v5.35H220v1.12c.71.53,1.76,1.34,3.17,2.44s2.87,2.27,4.39,3.5ZM222.67,132h-12a27.55,27.55,0,0,1,2.71,8.84l-4,1h14.84l-4.62-1A56.22,56.22,0,0,0,222.67,132Zm39.91,10.36v5.8h-7.12v33.45h-6.07V148.18h-8.71v.59q0,22.83-10.56,33.45a10.56,10.56,0,0,0-1.94-2.37,12.19,12.19,0,0,0-2.48-2,28,28,0,0,0,4.82-6.63,30.17,30.17,0,0,0,2.77-7.72,59.4,59.4,0,0,0,1.12-7.36c.18-2.2.26-4.68.26-7.45V125.35l4.23,1.19q12.66-3,17.94-5.8l5.08,4.55q-7.51,3.43-21.24,6.13v11Z"/>
        <path class="cls-3" d="M297.47,145.21l-3.56,5.21a35.67,35.67,0,0,0-5.51-3.86,54.9,54.9,0,0,0-6.9-3.46l3.3-4.75A49.14,49.14,0,0,1,297.47,145.21Zm-8.31,35.89L283.75,177a178.22,178.22,0,0,0,12-21.37l4.75,4.09A231.28,231.28,0,0,1,289.16,181.1Zm11.94-53.5-3.57,5.08A45.94,45.94,0,0,0,285.26,125l3.5-4.61Q297.07,123.83,301.1,127.6Zm37.21,11.87v35.36a9.68,9.68,0,0,1-.63,3.9,4.31,4.31,0,0,1-2.21,2.11c-1.72.7-5.32,1-10.82,1A21.83,21.83,0,0,0,322.8,176c1.59.08,3.22.14,4.92.16s2.71,0,3.07,0q1.38-.08,1.38-1.32V168.3H311.46V182h-6.14v-42.1l-.92.93a17.88,17.88,0,0,0-4.95-3.43,42.38,42.38,0,0,0,5.44-6.47,41,41,0,0,0,4.12-7.19l6.14,1.85a64.19,64.19,0,0,1-9.37,13.85h12.67V119.94h6.33v19.53Zm-6.14,5.87H311.46v6h20.71ZM311.46,163h20.71v-6.2H311.46ZM328,126.08l4.95-3a65.88,65.88,0,0,1,6.3,6.87,44.86,44.86,0,0,1,4.59,6.66L338.57,140a37.82,37.82,0,0,0-4.35-6.76A81.09,81.09,0,0,0,328,126.08Z"/>
        <path class="cls-3" d="M367.58,179.78l-5.21-3.63q5.42-4.49,8.12-13.45l5.54,2Q372.79,175.22,367.58,179.78Zm47.57-54.49v32.85H373.26V125.29h15.5a36.21,36.21,0,0,0,1.85-6l7.52,1.12c-.44,1-1.3,2.63-2.57,4.88Zm-6.4,9.5v-4.62H379.26v4.62Zm0,9.23v-4.61H379.26V144Zm0,9.31v-4.69H379.26v4.69Zm-18.6,22.76h11c1.36,0,2.24-.35,2.63-1.06s.66-2.39.8-5.08a15.53,15.53,0,0,0,5.67,2.18q-.6,5.75-2.31,7.65t-6.2,1.92H389.55q-5.73,0-7.68-1.59c-1.3-1.05-1.95-3.08-1.95-6.07V163.55h6.14V174q0,1.38.72,1.74A9.24,9.24,0,0,0,390.15,176.09Zm-3.1-14.58,4.62-3.17q7.05,5.15,10,9.57l-4.95,3.43Q394,166.86,387.05,161.51Zm21.24,3.63,5-3.17a60.67,60.67,0,0,1,7.13,7.12,33.52,33.52,0,0,1,4.88,7.2l-5.41,3.56a33.86,33.86,0,0,0-4.65-7.26A64.36,64.36,0,0,0,408.29,165.14Z"/>
      </g>
    </g>
  </g>
</svg>
