<svg xmlns="http://www.w3.org/2000/svg" viewBox="0 0 583 278">
  <defs>
    <style>
      .cls-1 {
        fill: #1e5eaa;
      }

      .cls-1, .cls-2 {
        opacity: 0.4;
      }

      .cls-2 {
        fill: #dd4a43;
      }

      .cls-3 {
        fill: #1e3373;
      }
    </style>
  </defs>
  <title>家長</title>
  <g id="圖層_2" data-name="圖層 2">
    <g id="圖層_4" data-name="圖層 4">
      <circle class="cls-1" cx="482" cy="177" r="101"/>
      <circle class="cls-2" cx="87" cy="87" r="87"/>
      <g>
        <path class="cls-3" d="M173.33,144l4.95,4.22A97.19,97.19,0,0,1,165.09,157q6.25,10.35,16.29,14.51A17.61,17.61,0,0,0,177,177q-17.09-8.25-23.75-34.44h-.13a38.64,38.64,0,0,1-6.2,4.29,30.19,30.19,0,0,1,7.19,9.13,27.4,27.4,0,0,1,3.07,9.73,21.84,21.84,0,0,1-.73,8.38,10.42,10.42,0,0,1-3.59,5.61,11.71,11.71,0,0,1-7.59,2.51q-2.64,0-5.81-.2a14,14,0,0,0-1.78-6,58.67,58.67,0,0,0,6.34.33,6.23,6.23,0,0,0,4.42-1.39,6.56,6.56,0,0,0,2.21-4,16.73,16.73,0,0,0,0-6.33,90.37,90.37,0,0,1-12.87,8.18,91.93,91.93,0,0,1-14.05,6.13,26,26,0,0,0-3.3-5.21,80.31,80.31,0,0,0,15.54-6,58.05,58.05,0,0,0,13-8.51,29.62,29.62,0,0,0-1.78-3.43A92.89,92.89,0,0,1,126,166.46a17,17,0,0,0-3.16-4.82,80.59,80.59,0,0,0,11.51-4.19,53.27,53.27,0,0,0,9.93-5.51,19.81,19.81,0,0,0-2.51-2.37,105.46,105.46,0,0,1-16.29,6.07,23.46,23.46,0,0,0-3.3-4.89q13.46-3.09,22.16-8.24H131.84V137.1h37v5.41h-10a57.58,57.58,0,0,0,3.56,9.7A87.71,87.71,0,0,0,173.33,144ZM128.8,131.42v8.32h-6.2V125.68h24.61V120h6.46v5.67h25v14.06h-6.34v-8.32Z"/>
        <path class="cls-3" d="M254,157.42l5.07,3.43a97.77,97.77,0,0,1-14,8.51,44.83,44.83,0,0,0,17.75,7.19,15.93,15.93,0,0,0-4,5.61,45.25,45.25,0,0,1-18.81-8.71,41.57,41.57,0,0,1-11.8-16H219.5v16.16l16.23-2.51.4,5.55q-15,2.63-30,4.94l-1.52-5.74q.33-.06,8.45-1.25V157.42H201.49v-5.61H213.1V122.52h41.76v5.27H219.5v4.62H253v5H219.5v4.68H253v4.95H219.5v4.75h42.16v5.61Zm-.14,0h-19.2a36.56,36.56,0,0,0,6.27,8.51A84.73,84.73,0,0,0,253.87,157.42Z"/>
        <path class="cls-3" d="M343.12,162.3v5.08H327.49v8.31a8.3,8.3,0,0,1-.63,3.63,3.89,3.89,0,0,1-2.41,1.85q-2.31.79-11.08.79a17.18,17.18,0,0,0-1.91-5.41q6.19.19,8.57.07a2.06,2.06,0,0,0,1.06-.3,1.08,1.08,0,0,0,.26-.83v-8.11H298.92a46.92,46.92,0,0,1,9.17,7.32l-4.55,4.09A48.82,48.82,0,0,0,292.92,170l3-2.64H282.23V162.3h39.12v-3.43q-21.32.52-36.22.72l-.2-4.75q5.81,0,24.55-.13v-3.16H289.35V132.81h20.13v-3.17H284.14v-4.81h25.34v-4.75h6.13v4.75h24.94v4.81H315.61v3.17h20.78v18.74h-6.26a53.77,53.77,0,0,1,10.49,6.07l-3.7,3.36c-.4-.35-1.58-1.16-3.56-2.44l-5.87.13v3.63Zm-47.83-25.4v3.36h14.19V136.9Zm0,10.75h14.19v-3.56H295.29Zm35-10.75H315.61v3.36h14.65Zm0,10.75v-3.56H315.61v3.56Zm-14.65,3.9v3.16l10.89-.13a36.78,36.78,0,0,0-4.16-1.71l1.58-1.32Z"/>
        <path class="cls-3" d="M401.56,143.83H389.22V182H384V153.59l-3.17,5.15A67.54,67.54,0,0,0,377,152.4V182h-5.8V154.78q-3,10.09-6.2,15.11a26.71,26.71,0,0,0-3-5.41,58.59,58.59,0,0,0,5-11.19,99,99,0,0,0,3.73-13.69h-7.46v-5.67h7.92V120H377v13.92h5.94v5.67H377v5.68a74,74,0,0,1,7,8V123h17.61Zm-5-16.17h-7.33v3.7h7.33Zm-7.33,11.61h7.33v-4h-7.33ZM422.74,123v53.44a8,8,0,0,1-.43,3,3.49,3.49,0,0,1-1.62,1.68c-1.18.57-3.65.86-7.39.86a15.32,15.32,0,0,0-1.38-3.83l-.13.2a43.39,43.39,0,0,1-6.73-6.73v8.45h-4.42v-8.32a33.49,33.49,0,0,1-7.33,7.13,14.94,14.94,0,0,0-3.16-3.43,29,29,0,0,0,9-7.92h-7.13V154.25h8.58v-2.64h-9.3v-3.82h9.3v-3h4.42v3H415v3.82h-9.89v2.64h9v13.26h-7.46a33.3,33.3,0,0,0,8.58,7.32,27.83,27.83,0,0,0-2.64,2.58h3.63a.89.89,0,0,0,.92-1V143.83H404.6V123Zm-27.25,34.37v7.13h5.68v-7.13Zm.73,1.72,2.37-.79a16.42,16.42,0,0,1,1.92,4.55l-2.31.92A19.43,19.43,0,0,0,396.22,159.07Zm14.51,5.41v-7.13H404.6v7.13Zm-3.36-.8-2.18-.85c1.36-3.17,2.07-4.8,2.11-4.88l2.57,1.05Q408.55,161.58,407.37,163.68Zm9.76-36.08h-7.72v3.76h7.72Zm-7.72,11.67h7.72v-3.89h-7.72Z"/>
      </g>
    </g>
  </g>
</svg>
