<svg xmlns="http://www.w3.org/2000/svg" data-name="圖層 1" width="644" height="563"><rect id="backgroundrect" width="100%" height="100%" x="0" y="0" fill="none" stroke="none"/><defs><style>.cls-1{fill:#e3dfc1;}</style></defs><title>網站</title><g class="currentLayer" style=""><title>Layer 1</title><path class="cls-1" d="M514.7699975585938,50.389007568359375 A21.24,21.24 0 1 1 536.0099975585938,29.139007568359375 A21.26,21.26 0 0 1 514.7699975585938,50.389007568359375 zm0,-31 A9.74,9.74 0 1 0 524.5599975585938,29.139007568359375 A9.75,9.75 0 0 0 514.7699975585938,19.409007568359385 z" id="svg_1"/><path class="cls-1" d="M593.8699975585937,60.70900756835937 H431.2399975585937 a5.75,5.75 0 0 0 0,11.49 h72.48 L445.1299975585938,182.76900756835937 A5.75,5.75 0 1 0 455.2799975585938,188.13900756835938 l58.22,-109.87 l64,110.07 a5.75,5.75 0 1 0 9.94,-5.78 L523.2599975585938,72.19900756835938 h70.61 a5.75,5.75 0 0 0 0,-11.49 z" id="svg_2"/><path class="cls-1" d="M14.819997558593741,197.5590075683594 a5.75,5.75 0 1 1 0,-11.49 a6.49,6.49 0 0 0 5,-2.36 c8.71,-9.15 10.63,-39.67 9.8,-56.77 a5.75,5.75 0 1 1 11.48,-0.56 c0.25,5 2,49.58 -13,65.26 A18.09,18.09 0 0 1 14.819997558593741,197.5590075683594 z" id="svg_3"/><path class="cls-1" d="M179.93999755859375,187.4390075683594 c-7.79,0.37000000000000005 -14.85,-2.43 -21.5,-8.59 c-24.7,-22.85 -35.84,-83.16 -40.76,-126.16 h46.59 a5.75,5.75 0 0 0 0,-11.49 h-47.8 c-2,-20.57 -2.48,-35 -2.5,-35.45 a5.75,5.75 0 1 0 -11.49,0.3400000000000001 c0.05000000000000001,1.75 0.51,15.6 2.36,35.11 h-31.1 a41.43,41.43 0 1 0 0,82.87 c0.18000000000000002,0 0.35000000000000003,0 0.52,-0.05000000000000001 s0.3400000000000001,0.05000000000000001 0.52,0.05000000000000001 a29.94,29.94 0 0 1 0,59.88 a5.75,5.75 0 0 0 0,11.49 a41.43,41.43 0 0 0 0,-82.87 c-0.18000000000000002,0 -0.35000000000000003,0 -0.52,0.05000000000000001 s-0.3400000000000001,-0.05000000000000001 -0.52,-0.05000000000000001 a29.94,29.94 0 1 1 0,-59.88 h32.29 c5,44.71 16.9,109 44.6,134.6 c8.38,7.75 17.77,11.68 27.93,11.68 c0.6400000000000001,0 1.28,0 1.9300000000000002,0 a5.75,5.75 0 0 0 -0.55,-11.48 z" id="svg_4"/><path class="cls-1" d="M153.86999755859375,124.65900756835936 a20.63,20.63 0 1 1 20.63,-20.63 A20.66,20.66 0 0 1 153.86999755859375,124.65900756835936 zm0,-29.77 a9.14,9.14 0 1 0 9.14,9.14 A9.15,9.15 0 0 0 153.86999755859375,94.88900756835938 z" id="svg_5"/><circle class="cls-1" cx="142.54000854492188" cy="27.899002075195312" r="16.940000534057617" id="svg_6"/><path class="cls-1" d="M80.70999755859373,283.2490075683594 A39.23,39.23 0 0 1 41.55999755859375,244.0590075683594 a5.75,5.75 0 1 1 11.49,0 a27.73,27.73 0 0 0 27.7,27.69 a5.75,5.75 0 1 1 0,11.49 z" id="svg_7"/><path class="cls-1" d="M121.92999755859375,284.02900756835936 a5.75,5.75 0 1 1 0,-11.49 a27.72,27.72 0 0 0 27.69,-27.69 a5.75,5.75 0 1 1 11.49,0 A39.23,39.23 0 0 1 121.92999755859375,284.02900756835936 z" id="svg_8"/><circle class="cls-1" cx="135.05999755859375" cy="338.4289855957031" r="16.940000534057617" id="svg_9"/><path class="cls-1" d="M174.68999755859375,338.07900756835943 a40.14,40.14 0 1 0 -68.22,28.64 H68.78999755859377 a27.69,27.69 0 1 1 0,-55.39 h23.59 a5.75,5.75 0 0 0 0,-11.49 H68.78999755859377 a39.19,39.19 0 1 0 0,78.38 h66.36 a39.24,39.24 0 0 0 35.52,-22.65 A39.89,39.89 0 0 0 174.68999755859375,338.07900756835943 zm-68.79,0 a28.63,28.63 0 0 1 57.25,-0.81 a5.69,5.69 0 0 0 -0.30000000000000004,1.7600000000000002 a27.53,27.53 0 0 1 -2.15,10.68 a28.63,28.63 0 0 1 -54.8,-11.63 z" id="svg_10"/><path class="cls-1" d="M187.85999755859376,418.2290075683594 H107.55999755859375 V394.07900756835943 a5.75,5.75 0 1 0 -11.49,0 v24.15 H46.65999755859377 a27.73,27.73 0 0 1 -27.7,-27.69 a5.75,5.75 0 1 0 -11.49,0 a39.23,39.23 0 0 0 39.19,39.19 h49.38 v22.77 a5.75,5.75 0 0 0 11.49,0 V429.7190075683594 H187.85999755859376 a5.75,5.75 0 1 0 0,-11.49 z" id="svg_11"/><circle class="cls-1" cx="311.9000244140625" cy="338.0790100097656" r="22.559999465942383" id="svg_12"/><path class="cls-1" d="M359.55999755859375,414.0690075683593 H317.16999755859376 V394.1390075683594 a55.32,55.32 0 0 0 0.5,-110.09 V267.1390075683594 h73.1 a5.75,5.75 0 0 0 0,-11.49 h-73.1 V231.03900756835935 a5.77,5.77 0 0 0 -11.49,0 V255.63900756835938 H255.40999755859377 c-14.51,0 -26.31,-10.84 -26.31,-24.15 a5.75,5.75 0 1 0 -11.49,0 C217.55999755859375,251.13900756835938 234.55999755859375,267.1390075683594 255.40999755859377,267.1390075683594 h50.77 v16.87 a55.31,55.31 0 0 0 -0.49000000000000005,110 s0,0 0,0.07 v20 H223.34999755859377 a5.75,5.75 0 0 0 0,11.49 h82.33 v32.43 a5.75,5.75 0 0 0 11.49,0 V425.55900756835933 H359.55999755859375 c14.36,0 26.5,9.42 26.5,20.56 A5.75,5.75 0 1 0 397.55999755859375,446.1390075683594 C397.55999755859375,428.4490075683593 380.4699975585937,414.0690075683593 359.55999755859375,414.0690075683593 zm-91.9,-75 a44.28,44.28 0 1 1 13,31.31 A44,44 0 0 1 267.61999755859375,339.02900756835936 z" id="svg_13"/><circle class="cls-1" cx="468.82000732421875" cy="348.0790100097656" r="16.940000534057617" id="svg_14"/><path class="cls-1" d="M463.0099975585938,299.53900756835935 a24,24 0 0 1 -17.05,-7 a5.75,5.75 0 0 1 8.13,-8.13 a12.620000000000001,12.620000000000001 0 1 0 17.85,-17.85 a5.75,5.75 0 0 1 8.13,-8.13 a24.1,24.1 0 0 1 -17.05,41.15 z" id="svg_15"/><path class="cls-1" d="M555.8199975585937,299.53900756835935 a24,24 0 0 1 -17.05,-7 a5.75,5.75 0 1 1 8.13,-8.13 a12.620000000000001,12.620000000000001 0 1 0 17.85,-17.85 a5.75,5.75 0 0 1 8.13,-8.13 a24.1,24.1 0 0 1 -17.05,41.15 z" id="svg_16"/><path class="cls-1" d="M500.3599975585937,398.92900756835934 a5.75,5.75 0 0 0 -5.75,5.75 V415.1390075683594 a27.69,27.69 0 1 1 -55.39,0 V377.4590075683594 a40.13,40.13 0 1 0 11.14,-64.2 a39.24,39.24 0 0 0 -22.64,35.51 V415.1390075683594 a39.19,39.19 0 1 0 78.38,0 V404.67900756835934 A5.75,5.75 0 0 0 500.3599975585937,398.92900756835934 zM496.55999755859375,349.3790075683594 a28.65,28.65 0 1 1 -40.28,-26.15 a27.53,27.53 0 0 1 10.68,-2.15 a5.7,5.7 0 0 0 1.7600000000000002,-0.30000000000000004 A28.66,28.66 0 0 1 496.55999755859375,349.3790075683594 z" id="svg_17"/><path class="cls-1" d="M525.3399975585937,456.91900756835935 A5.75,5.75 0 0 1 519.5599975585938,451.1390075683594 V351.3690075683594 c0,-22.51 17.35,-40.83 38.67,-40.83 s38.67,18.32 38.67,40.83 l-0.08000000000000002,32.94 c0,21.59 -16.65,39.17 -37.13,39.17 a5.75,5.75 0 0 1 0,-11.49 c14.14,0 25.64,-12.42 25.64,-27.69 l0.08000000000000002,-32.94 c0,-16.16 -12.19,-29.32 -27.18,-29.32 S531.0799975585937,335.1390075683594 531.0799975585937,351.3690075683594 V451.1390075683594 A5.75,5.75 0 0 1 525.3399975585937,456.91900756835935 z" id="svg_18"/><path class="cls-1" d="M260.49999755859375,179.84900756835935 c-18.52,3.33 -36.68,-11.21 -40.49,-32.4 s8.15,-41.15 26.67,-44.48 c13.8,-2.48 27.74,4.79 35.51,18.52 a4,4 0 0 1 -0.9400000000000001,5.16 a3.18,3.18 0 0 1 -4.6,-1.31 c-6.27,-11.08 -17.51,-16.94 -28.64,-14.94 C233.07999755859373,113.13900756835938 223.42999755859375,129.13900756835938 226.49999755859375,146.27900756835936 S244.22999755859377,175.13900756835938 259.1599975585938,172.40900756835936 c11.34,-2 20.1,-12.07 21.79,-25 a3.2,3.2 0 0 1 3.77,-3 a4,4 0 0 1 2.8,4.42 C285.41999755859376,164.87900756835938 274.55999755859375,177.31900756835938 260.49999755859375,179.84900756835935 z" id="svg_19"/><path class="cls-1" d="M337.55999755859375,114.13900756835938 a3,3 0 0 1 -1.53,-0.13 a4.05,4.05 0 0 1 -2.35,-4.73 q0.12000000000000001,-0.52 0.26,-1 a3.1,3.1 0 0 1 4.13,-2.3 a4.07,4.07 0 0 1 2.22,4.8 c-0.07,0.27 -0.14,0.55 -0.21000000000000002,0.8300000000000001 A3.2800000000000002,3.2800000000000002 0 0 1 337.55999755859375,114.13900756835938 z" id="svg_20"/><path class="cls-1" d="M373.7799975585938,159.47900756835935 c-18.52,3.33 -36.68,-11.21 -40.5,-32.4 a43.32,43.32 0 0 1 0.44000000000000006,-17.81 a3.12,3.12 0 0 1 4.06,-2.45 a4,4 0 0 1 2.35,4.73 a34.93,34.93 0 0 0 -0.35000000000000003,14.36 c3.07,17.1 17.72,28.82 32.66,26.13 s24.58,-18.78 21.51,-35.87 A34.91,34.91 0 0 0 388.55999755859375,102.80900756835939 a4.05,4.05 0 0 1 0.55,-5.25 a3.12,3.12 0 0 1 4.66,0.8700000000000001 a43.31,43.31 0 0 1 6.640000000000001,16.57 C404.2599975585938,136.19900756835938 392.28999755859377,156.13900756835938 373.7799975585938,159.47900756835935 z" id="svg_21"/><path class="cls-1" d="M369.80999755859375,119.34900756835935 l-40.06,-32.05 L339.55999755859375,70.96900756835936 a4.18,4.18 0 0 0 -0.9500000000000001,-5.26 a3,3 0 0 0 -4.6,0.8300000000000001 L300.85999755859376,121.80900756835939 l-7.53,-41.86 a3.8200000000000003,3.8200000000000003 0 0 0 -2.62,-3.08 a3,3 0 0 0 -3.4,1.44 l-36.5,60.88 a4.18,4.18 0 0 0 0.9500000000000001,5.26 a3,3 0 0 0 4.6,-0.8300000000000001 L288.44999755859374,90.13900756835938 l7.53,41.86 h0 l1.62,9 L291.4099975585938,142.13900756835938 a3.81,3.81 0 0 0 1.34,7.44 l9.44,-1.7000000000000002 l9.86,-1.77 a3.81,3.81 0 0 0 -1.34,-7.44 l-6.62,1.19 l-1.35,-7.49 l23.35,-38.95 l40.06,32.05 a3,3 0 0 0 4.6,-0.8300000000000001 A4.18,4.18 0 0 0 369.80999755859375,119.34900756835935 z" id="svg_22"/><path class="cls-1" d="M294.80999755859375,72.13900756835938 l-20.43,3.67 c-2.56,0.46 -5.07,-1.54 -5.6,-4.48 s1.12,-5.69 3.6900000000000004,-6.15 l20.43,-3.67 c2.56,-0.46 5.07,1.54 5.6,4.48 S297.37999755859374,71.71900756835936 294.80999755859375,72.13900756835938 z" id="svg_23"/><path class="cls-1" d="M364.8399975585937,82.25900756835938 l-22,4 a3.81,3.81 0 0 1 -1.34,-7.44 l22,-4 a3.81,3.81 0 0 1 1.34,7.44 z" id="svg_24"/><path class="cls-1" d="M28.879997558593743,562.0490075683593 h-6 l-16.45,-25.36 a15.59,15.59 0 0 1 -1.33,-2.42 h-0.13 a40.7,40.7 0 0 1 0.2,5 v22.76 h-5.17 V527.6590075683594 h6.3100000000000005 l16,24.87 q1.13,1.78 1.51,2.46 h0.11000000000000001 a36,36 0 0 1 -0.24000000000000002,-4.93 v-22.4 h5.2 z" id="svg_25"/><path class="cls-1" d="M72.70999755859373,560.6990075683593 a21.22,21.22 0 0 1 -9.61,1.9300000000000002 q-7.46,0 -12,-4.69 t-4.5,-12.4 a18.37,18.37 0 0 1 5,-13.24 a17,17 0 0 1 12.84,-5.21 a21.41,21.41 0 0 1 8.24,1.3800000000000001 v5.4 a16.18,16.18 0 0 0 -8.06,-2 a11.65,11.65 0 0 0 -9,3.7 a13.73,13.73 0 0 0 -3.4,9.67 a13.27,13.27 0 0 0 3.18,9.24 a10.94,10.94 0 0 0 8.54,3.5300000000000002 a16.57,16.57 0 0 0 8.75,-2.29 z" id="svg_26"/><path class="cls-1" d="M116.26999755859373,562.0490075683593 h-7.08 l-12.12,-15.45 a6.33,6.33 0 0 1 -0.91,-1.44 h-0.11000000000000001 v16.9 h-5.33 V527.6590075683594 h5.33 v16.21 h0.11000000000000001 a9.43,9.43 0 0 1 0.93,-1.44 l11.66,-14.77 h6.48 L101.45999755859373,544.1390075683594 z" id="svg_27"/><path class="cls-1" d="M157.94999755859374,547.7990075683593 q0,14.83 -13.57,14.83 q-13,0 -13,-14.34 V527.6590075683594 h5.33 V548.1390075683594 q0,9.79 8.08,9.79 q7.84,0 7.84,-9.46 V527.6590075683594 h5.33 z" id="svg_28"/><path class="cls-1" d="M197.74999755859375,562.0490075683593 V527.6590075683594 h10.75 a12.31,12.31 0 0 1 7.67,2.15 a6.92,6.92 0 0 1 2.81,5.8 a7.8100000000000005,7.8100000000000005 0 0 1 -1.71,5 a9,9 0 0 1 -4.51,3 v0.09000000000000002 a8.94,8.94 0 0 1 5.65,2.64 A7.9,7.9 0 0 1 220.55999755859375,552.0390075683594 a9.1,9.1 0 0 1 -3.21,7.25 a12.52,12.52 0 0 1 -8.47,2.77 zm5.33,-30 V542.1390075683594 h3.8600000000000003 a7,7 0 0 0 4.73,-1.47 a5,5 0 0 0 1.6900000000000002,-4 q0,-4.57 -6.26,-4.57 zm0,14.45 v11.19 h5 A7.66,7.66 0 0 0 213.15999755859377,556.1390075683594 a5.18,5.18 0 0 0 1.8,-4.2 q0,-5.48 -7.39,-5.48 z" id="svg_29"/><path class="cls-1" d="M246.92999755859375,532.0090075683594 h-3.2 v25.69 h3.2 v4.35 h-11.7 v-4.35 h3.18 V532.0090075683594 h-3.18 v-4.35 h11.7 z" id="svg_30"/><path class="cls-1" d="M289.28999755859377,562.0490075683593 h-7.08 l-12.12,-15.45 a6.33,6.33 0 0 1 -0.91,-1.44 h-0.11000000000000001 v16.9 h-5.33 V527.6590075683594 h5.33 v16.21 h0.11000000000000001 a9.43,9.43 0 0 1 0.93,-1.44 l11.66,-14.77 h6.48 L274.47999755859377,544.1390075683594 z" id="svg_31"/><path class="cls-1" d="M323.8399975585937,562.0490075683593 H304.78999755859377 V527.6590075683594 H323.05999755859375 v4.57 H310.1199975585937 v10.12 h12 v4.55 h-12 v10.57 h13.72 z" id="svg_32"/><path class="cls-1" d="M382.4699975585937,532.2290075683594 h-13 v10.68 h12 v4.55 h-12 v14.59 h-5.33 V527.6590075683594 h18.3 z" id="svg_33"/><path class="cls-1" d="M419.1199975585937,562.0490075683593 H400.06999755859374 V527.6590075683594 h18.27 v4.57 H405.3999975585938 v10.12 h12 v4.55 h-12 v10.57 h13.72 z" id="svg_34"/><path class="cls-1" d="M435.1499975585938,554.9190075683593 a14.27,14.27 0 0 0 9.3,3.22 q6.84,0 6.84,-4.68 a4.18,4.18 0 0 0 -0.7500000000000001,-2.44 a7,7 0 0 0 -2,-1.9 a56.68,56.68 0 0 0 -5,-2.6100000000000003 a18.7,18.7 0 0 1 -6.48,-4.51 a8.31,8.31 0 0 1 -1.84,-5.37 a8.19,8.19 0 0 1 3.51,-7 a14.86,14.86 0 0 1 9,-2.55 a18.77,18.77 0 0 1 7.82,1.27 v5.46 a13.59,13.59 0 0 0 -7.93,-2.2 a8.83,8.83 0 0 0 -4.91,1.22 a3.81,3.81 0 0 0 -1.87,3.35 a4.09,4.09 0 0 0 1.37,3.18 a26.65,26.65 0 0 0 5.76,3.33 q5.13,2.4 7.08,4.8100000000000005 a8.54,8.54 0 0 1 2,5.54 A8.28,8.28 0 0 1 453.55999755859375,560.1390075683594 q-3.37,2.46 -9.35,2.46 a25.31,25.31 0 0 1 -4.88,-0.53 a12.74,12.74 0 0 1 -4.13,-1.42 z" id="svg_35"/><path class="cls-1" d="M496.3699975585937,532.2290075683594 h-9.88 v29.82 h-5.35 V532.2290075683594 h-9.86 v-4.57 h25.09 z" id="svg_36"/><path class="cls-1" d="M521.3699975585937,532.0090075683594 h-3.2 v25.69 h3.2 v4.35 h-11.7 v-4.35 h3.18 V532.0090075683594 h-3.18 v-4.35 h11.7 z" id="svg_37"/><path class="cls-1" d="M564.7999975585938,527.6590075683594 l-12.41,34.39 h-6 l-12.21,-34.39 h5.84 l8.7,26.09 a15.36,15.36 0 0 1 0.6900000000000002,3.2 H549.5599975585938 a14.58,14.58 0 0 1 0.78,-3.24 l8.81,-26 z" id="svg_38"/><path class="cls-1" d="M608.7199975585937,562.0490075683593 H602.8599975585937 L599.6399975585938,553.1390075683594 H585.8699975585937 l-3.06,8.95 h-5.86 l13,-34.39 h5.93 zm-10.57,-13.37 L593.3499975585937,535.1390075683594 a14.81,14.81 0 0 1 -0.53,-2.6 h-0.16000000000000003 a13,13 0 0 1 -0.56,2.55 l-4.77,13.61 z" id="svg_39"/><path class="cls-1" d="M643.6399975585938,562.0490075683593 H624.8799975585938 V527.6590075683594 h5.33 v29.82 h13.43 z" id="svg_40"/></g></svg>