<svg xmlns="http://www.w3.org/2000/svg" data-name="圖層 1" width="309" height="145"><rect id="backgroundrect" width="100%" height="100%" x="0" y="0" fill="none" stroke="none"/><defs><style>.cls-1{opacity:0.43;}.cls-2{fill:#942323;}.cls-3{opacity:0.75;}.cls-4{fill:#1e556d;}</style></defs><title>網站</title><g class="currentLayer" style=""><title>Layer 1</title><g class="cls-1" id="svg_1"><circle class="cls-2" cx="336.1799850463867" cy="539.1442565917969" r="29.959997177124023" transform="rotate(-71.5 3.559989929199181,368.06427001953125) " id="svg_2"/></g><g class="cls-3" id="svg_3"><circle class="cls-4" cx="236.2599868774414" cy="102.52426147460938" r="17.459999084472656" id="svg_4"/></g><g class="cls-3" id="svg_5"><path class="cls-4" d="M43.059989318847656,89.66426452636719 A44.85,44.85 0 1 1 89.69998931884766,44.82426452636719 h-7.47 a37.37,37.37 0 1 0 -38.85,37.34 z" id="svg_6"/></g><path class="cls-2" d="M108.10998931884765,105.64426452636718 l-3.1,4.44 q-10.57,-5.93 -15.67,-12.48 q0.09000000000000002,1.25 0.09000000000000002,2.8600000000000003 q0,7 -2,9.58 t-7.83,2.58 q-1.52,0 -4,-0.09000000000000002 l-1.79,-5.18 q4.2,0.15000000000000002 6,0.15000000000000002 A4.71,4.71 0 0 0 82.69998931884766,106.82426452636719 a4.27,4.27 0 0 0 1.09,-1.53 q0.39000000000000007,-0.91 0.39000000000000007,-5.58 q0,-1.49 -0.06000000000000001,-2.77 a68.19,68.19 0 0 1 -27.58,13.79 l-2.38,-4.59 a61.42,61.42 0 0 0 29.1,-14.68 a16,16 0 0 0 -1.28,-3.19 a60.23,60.23 0 0 1 -25,11.35 L54.699989318847656,95.2242645263672 a59.12,59.12 0 0 0 25,-10.69 q-0.18000000000000002,-0.24000000000000002 -2.08,-2.29 a67.41,67.41 0 0 1 -19.51,6.34 L55.699989318847656,83.9342645263672 A58.94,58.94 0 0 0 78.58998931884764,76.82426452636719 h-14.8 v-4.74 h34.46 V76.82426452636719 H85.69998931884766 a18.44,18.44 0 0 1 -3.72,2.8 a26.67,26.67 0 0 1 5.48,8.67 a47.31,47.31 0 0 0 12,-8.79 l3.84,3.43 a55.81,55.81 0 0 1 -12.75,9 Q96.27998931884767,99.60426452636719 108.10998931884765,105.64426452636718 zm-2,-30.86 h-5.3 v-6.23 H61.22998931884766 V74.82426452636719 h-5.39 V63.734264526367184 h22 a22.35,22.35 0 0 0 -2.3200000000000003,-3.6 l5.78,-1.1600000000000001 q1.46,2.29 2.74,4.77 h22.1 z" id="svg_7"/><path class="cls-2" d="M168.56998931884766,90.27426452636718 H128.17998931884765 V105.52426452636718 a93,93 0 0 0 12.75,-3.84 l0.39000000000000007,5.48 a172.77,172.77 0 0 1 -18.5,5.3 l-1.52,-4.5 a2.47,2.47 0 0 0 1.34,-2.2 V90.27426452636718 H115.49998931884767 v-5.06 h8.49 V60.374264526367185 h41 v4.88 H129.58998931884764 V68.82426452636719 h32.17 v4.71 H129.58998931884764 v3.6 h32.17 v4.5 H129.58998931884764 v3.6 h39 zm0.48000000000000004,17.45 L166.42998931884765,112.82426452636719 q-11,-2.59 -17.13,-6.67 a43.48,43.48 0 0 1 -11.53,-11.88 l4.77,-2.62 a44.54,44.54 0 0 0 6.13,7.63 a53.85,53.85 0 0 0 10.93,-7.74 l4.14,3.54 a63.37,63.37 0 0 1 -10.43,7.42 Q158.85998931884765,105.88426452636719 169.04998931884765,107.73426452636718 z" id="svg_8"/><path class="cls-2" d="M229.69998931884766,101.6242645263672 H217.69998931884766 V106.82426452636719 a6,6 0 0 1 -1.37,4 q-1.37,1.6400000000000001 -5.75,1.6400000000000001 q-1.85,0 -5.63,-0.15000000000000002 l-1.4,-4.83 q6.11,0.09000000000000002 7.4,-0.06000000000000001 t1.3,-1.34 V101.6242645263672 H176.49998931884767 v-4.41 h35.74 v-1.8800000000000001 H217.69998931884766 v1.8800000000000001 h12 zm-0.6000000000000001,-7.86 l-4.53,2.62 a38.33,38.33 0 0 0 -2.56,-3 Q196.29998931884768,94.82426452636719 179.29998931884765,94.5942645263672 l-1.4,-4.32 q4.41,0.09000000000000002 10.19,0.09000000000000002 q7.66,0 12.33,-0.15000000000000002 v-3.25 H181.79998931884765 V69.33426452636718 h18.62 v-2.8600000000000003 H177.23998931884765 v-4.2 h23.17 v-3 H205.69998931884766 v3 h22.82 v4.2 H205.69998931884766 v2.8600000000000003 h18.85 v17.63 h-1.58 Q226.38998931884765,90.48426452636718 229.09998931884763,93.76426452636719 zm-28.62,14.21 l-4.08,3.7800000000000002 a63.8,63.8 0 0 0 -9.47,-5.51 l4.05,-3.7800000000000002 A56.59,56.59 0 0 1 200.46998931884764,107.9742645263672 zm-0.06000000000000001,-31.6 v-3 H187.12998931884766 v3 zm0,6.4 v-2.74 H187.12998931884766 v2.74 zm18.85,-6.4 v-3 H205.69998931884766 v3 zm0,6.4 v-2.74 H205.69998931884766 v2.74 zm0.12000000000000001,4.2 H205.69998931884766 v3.07 q8.4,-0.27 12.39,-0.7500000000000001 a9,9 0 0 0 -1.1600000000000001,-1.22 z" id="svg_9"/><path class="cls-2" d="M253.90998931884764,85.27426452636718 l-3.34,3.48 a34.56,34.56 0 0 0 -1.28,-4 v27.91 h-5.27 V86.4342645263672 a42.56,42.56 0 0 1 -4.5600000000000005,11.11 L236.69998931884766,91.44426452636719 a53,53 0 0 0 6.640000000000001,-16.71 H237.49998931884767 v-5.12 h6.52 V59.364264526367194 h5.27 v10.25 h3.51 v5.12 h-3.51 v1.1600000000000001 A63.27,63.27 0 0 1 253.90998931884764,85.27426452636718 zm16.47,-8.31 H259.20998931884765 v35.68 h-5 V60.07426452636719 h16.17 zm-4.95,-10.37 v-2.38 h-6.22 v2.38 zm0,6.22 v-2.56 h-6.22 V72.82426452636719 zm17.93,31.07 l-2.29,3.2800000000000002 a38.7,38.7 0 0 0 -7,-4.08 v8.22 H269.69998931884766 V104.1242645263672 a25.87,25.87 0 0 1 -6.91,5.54 l-2.68,-3.72 a26.45,26.45 0 0 0 8.79,-6.94 H261.69998931884766 V86.4342645263672 h8 v-2.26 H261.2999893188477 v-4 H269.69998931884766 v-2.09 h4.32 v2.09 h8.49 v4 h-8.49 v2.26 h8 v12.57 H274.39998931884764 A48.46,48.46 0 0 1 283.3699893188477,103.89426452636718 zM269.69998931884766,95.57426452636719 v-5.8100000000000005 H265.49998931884767 v5.8100000000000005 zm-0.7400000000000001,-1.46 l-1.8800000000000001,0.6000000000000001 a10.25,10.25 0 0 0 -1,-3.4 l1.94,-0.6300000000000001 A12.45,12.45 0 0 1 268.97998931884763,94.1242645263672 zM289.40998931884764,107.82426452636719 a4.72,4.72 0 0 1 -1.3800000000000001,3.6900000000000004 q-1.3900000000000001,1.25 -5.76,1.25 q-1,0 -2.29,-0.06000000000000001 l-1.73,-5 q1.4300000000000002,0.15000000000000002 3.7800000000000002,0.15000000000000002 a3.8200000000000003,3.8200000000000003 0 0 0 2.06,-0.37000000000000005 a1.47,1.47 0 0 0 0.51,-1.27 V76.96426452636717 H273.2999893188477 V60.07426452636719 h16.11 zm-11.17,-12.27 v-5.8100000000000005 h-4.2 v5.8100000000000005 zm-0.7100000000000001,-4.26 a15.19,15.19 0 0 1 -1,3.51 l-1.7600000000000002,-0.54 a21,21 0 0 0 0.8300000000000001,-3.6 zm7.06,-24.72 v-2.38 h-6.34 v2.38 zm0,6.22 v-2.56 h-6.34 V72.82426452636719 z" id="svg_10"/><path class="cls-2" d="M32.62998931884766,54.67426452636718 H26.849989318847662 a2.24,2.24 0 0 1 -2.23,-2.23 V22.184264526367187 a2.24,2.24 0 0 1 2.23,-2.23 h24.66 A2.24,2.24 0 0 1 53.699989318847656,22.184264526367187 v3.16 h-1.2 V22.184264526367187 a1,1 0 0 0 -1,-1 H26.849989318847662 a1,1 0 0 0 -1,1 v30.26 a1,1 0 0 0 1,1 h5.78 z" id="svg_11"/><path class="cls-2" d="M32.82998931884765,54.874264526367185 h-6 a2.44,2.44 0 0 1 -2.44,-2.44 V22.184264526367187 a2.44,2.44 0 0 1 2.44,-2.44 h24.66 a2.44,2.44 0 0 1 2.44,2.44 v3.36 h-1.6 V22.184264526367187 a0.8300000000000001,0.8300000000000001 0 0 0 -0.8300000000000001,-0.8300000000000001 H26.849989318847662 a0.8300000000000001,0.8300000000000001 0 0 0 -0.8300000000000001,0.8300000000000001 v30.26 a0.8300000000000001,0.8300000000000001 0 0 0 0.8300000000000001,0.8300000000000001 h6 zm-6,-34.73 a2,2 0 0 0 -2,2 v30.26 a2,2 0 0 0 2,2 h5.58 v-0.79 H26.849989318847662 a1.24,1.24 0 0 1 -1.24,-1.24 V22.184264526367187 a1.24,1.24 0 0 1 1.24,-1.24 h24.66 A1.24,1.24 0 0 1 52.699989318847656,22.184264526367187 v3 h0.79 v-3 a2,2 0 0 0 -2,-2 z" id="svg_12"/><path class="cls-2" d="M51.699989318847656,59.72426452636719 H34.03998931884766 a2.56,2.56 0 0 1 -2.56,-2.56 V28.454264526367183 a2.56,2.56 0 0 1 2.56,-2.56 h22.42 a2.56,2.56 0 0 1 2.56,2.56 V52.624264526367185 a2.5700000000000003,2.5700000000000003 0 0 1 -0.8,1.86 l-4.8100000000000005,4.54 A2.55,2.55 0 0 1 51.699989318847656,59.72426452636719 zM34.03998931884766,27.094264526367184 A1.36,1.36 0 0 0 32.699989318847656,28.454264526367183 v28.71 a1.36,1.36 0 0 0 1.36,1.36 H51.699989318847656 a1.36,1.36 0 0 0 0.9400000000000001,-0.37000000000000005 l4.8100000000000005,-4.54 a1.37,1.37 0 0 0 0.43000000000000005,-1 V28.454264526367183 a1.36,1.36 0 0 0 -1.36,-1.36 z" id="svg_13"/><path class="cls-2" d="M51.699989318847656,59.92426452636718 H34.03998931884766 a2.7600000000000002,2.7600000000000002 0 0 1 -2.7600000000000002,-2.7600000000000002 V28.454264526367183 a2.77,2.77 0 0 1 2.7600000000000002,-2.7600000000000002 h22.42 a2.77,2.77 0 0 1 2.7600000000000002,2.7600000000000002 V52.624264526367185 a2.77,2.77 0 0 1 -0.8600000000000001,2 l-4.8100000000000005,4.54 A2.75,2.75 0 0 1 51.699989318847656,59.92426452636718 zM34.03998931884766,26.094264526367184 A2.36,2.36 0 0 0 31.699989318847656,28.454264526367183 v28.71 a2.36,2.36 0 0 0 2.36,2.36 H51.699989318847656 a2.35,2.35 0 0 0 1.62,-0.6400000000000001 l4.8100000000000005,-4.54 a2.37,2.37 0 0 0 0.7400000000000001,-1.71 V28.454264526367183 a2.36,2.36 0 0 0 -2.36,-2.36 zM51.699989318847656,58.734264526367184 H34.03998931884766 a1.57,1.57 0 0 1 -1.56,-1.56 V28.454264526367183 a1.57,1.57 0 0 1 1.56,-1.56 h22.42 a1.57,1.57 0 0 1 1.56,1.56 V52.624264526367185 a1.57,1.57 0 0 1 -0.49000000000000005,1.1400000000000001 L52.699989318847656,58.30426452636719 A1.56,1.56 0 0 1 51.699989318847656,58.734264526367184 zM34.03998931884766,27.294264526367186 a1.1600000000000001,1.1600000000000001 0 0 0 -1.1600000000000001,1.1600000000000001 v28.71 a1.1600000000000001,1.1600000000000001 0 0 0 1.1600000000000001,1.1600000000000001 H51.699989318847656 a1.1600000000000001,1.1600000000000001 0 0 0 0.8,-0.32000000000000006 l4.8100000000000005,-4.54 a1.1600000000000001,1.1600000000000001 0 0 0 0.36000000000000004,-0.8400000000000001 V28.454264526367183 a1.1600000000000001,1.1600000000000001 0 0 0 -1.1600000000000001,-1.1600000000000001 z" id="svg_14"/><path class="cls-2" d="M52.699989318847656,53.39426452636718 l-0.26,5.73 l6,-5.66 l-4.87,-0.77 A0.7400000000000001,0.7400000000000001 0 0 0 52.699989318847656,53.39426452636718 z" id="svg_15"/><rect class="cls-2" x="35.67999267578125" y="31.874267578125" width="18.760000228881836" height="0.4000000059604645" id="svg_16"/><path class="cls-2" d="M54.43998931884765,32.58426452636719 H35.699989318847656 a0.5,0.5 0 0 1 0,-1 h18.76 a0.5,0.5 0 0 1 0,1 z" id="svg_17"/><path class="cls-2" d="M54.43998931884765,32.82426452636719 H35.699989318847656 a0.7000000000000001,0.7000000000000001 0 1 1 0,-1.4 h18.76 a0.7000000000000001,0.7000000000000001 0 0 1 0,1.4 zM35.699989318847656,31.824264526367188 a0.30000000000000004,0.30000000000000004 0 1 0 0,0.5900000000000001 h18.76 a0.30000000000000004,0.30000000000000004 0 0 0 0,-0.5900000000000001 z" id="svg_18"/><rect class="cls-2" x="35.67999267578125" y="35.07426452636719" width="18.760000228881836" height="0.4000000059604645" id="svg_19"/><path class="cls-2" d="M54.43998931884765,35.77426452636719 H35.699989318847656 a0.5,0.5 0 0 1 0,-1 h18.76 a0.5,0.5 0 0 1 0,1 z" id="svg_20"/><path class="cls-2" d="M54.43998931884765,35.97426452636719 H35.699989318847656 a0.7000000000000001,0.7000000000000001 0 1 1 0,-1.4 h18.76 a0.7000000000000001,0.7000000000000001 0 0 1 0,1.4 zM35.699989318847656,34.97426452636719 a0.30000000000000004,0.30000000000000004 0 1 0 0,0.5900000000000001 h18.76 a0.30000000000000004,0.30000000000000004 0 0 0 0,-0.5900000000000001 z" id="svg_21"/><rect class="cls-2" x="35.67999267578125" y="38.26426696777344" width="18.760000228881836" height="0.4000000059604645" id="svg_22"/><path class="cls-2" d="M54.43998931884765,38.96426452636719 H35.699989318847656 a0.5,0.5 0 0 1 0,-1 h18.76 a0.5,0.5 0 0 1 0,1 z" id="svg_23"/><path class="cls-2" d="M54.43998931884765,39.16426452636719 H35.699989318847656 a0.7000000000000001,0.7000000000000001 0 0 1 0,-1.4 h18.76 a0.7000000000000001,0.7000000000000001 0 0 1 0,1.4 zm-18.76,-1 a0.30000000000000004,0.30000000000000004 0 1 0 0,0.5900000000000001 h18.76 a0.30000000000000004,0.30000000000000004 0 0 0 0,-0.5900000000000001 z" id="svg_24"/><rect class="cls-2" x="35.67999267578125" y="41.454261779785156" width="18.760000228881836" height="0.4000000059604645" id="svg_25"/><path class="cls-2" d="M54.43998931884765,42.16426452636719 H35.699989318847656 a0.5,0.5 0 0 1 0,-1 h18.76 a0.5,0.5 0 0 1 0,1 z" id="svg_26"/><path class="cls-2" d="M54.43998931884765,42.364264526367194 H35.699989318847656 a0.7000000000000001,0.7000000000000001 0 0 1 0,-1.4 h18.76 a0.7000000000000001,0.7000000000000001 0 0 1 0,1.4 zm-18.76,-1 a0.30000000000000004,0.30000000000000004 0 1 0 0,0.5900000000000001 h18.76 a0.30000000000000004,0.30000000000000004 0 0 0 0,-0.5900000000000001 z" id="svg_27"/><rect class="cls-2" x="35.67999267578125" y="44.654266357421875" width="18.760000228881836" height="0.4000000059604645" id="svg_28"/><path class="cls-2" d="M54.43998931884765,45.35426452636719 H35.699989318847656 a0.5,0.5 0 0 1 0,-1 h18.76 a0.5,0.5 0 0 1 0,1 z" id="svg_29"/><path class="cls-2" d="M54.43998931884765,45.55426452636719 H35.699989318847656 a0.7000000000000001,0.7000000000000001 0 0 1 0,-1.4 h18.76 a0.7000000000000001,0.7000000000000001 0 0 1 0,1.4 zm-18.76,-1 a0.30000000000000004,0.30000000000000004 0 1 0 0,0.5900000000000001 h18.76 a0.30000000000000004,0.30000000000000004 0 0 0 0,-0.5900000000000001 z" id="svg_30"/><rect class="cls-2" x="35.67999267578125" y="47.844261169433594" width="18.760000228881836" height="0.4000000059604645" id="svg_31"/><path class="cls-2" d="M54.43998931884765,48.544264526367186 H35.699989318847656 a0.5,0.5 0 0 1 0,-1 h18.76 a0.5,0.5 0 0 1 0,1 z" id="svg_32"/><path class="cls-2" d="M54.43998931884765,48.74426452636719 H35.699989318847656 a0.7000000000000001,0.7000000000000001 0 1 1 0,-1.4 h18.76 a0.7000000000000001,0.7000000000000001 0 0 1 0,1.4 zm-18.76,-1 a0.30000000000000004,0.30000000000000004 0 1 0 0,0.5900000000000001 h18.76 a0.30000000000000004,0.30000000000000004 0 0 0 0,-0.5900000000000001 z" id="svg_33"/><rect class="cls-2" x="35.67999267578125" y="51.034263610839844" width="12.369999885559082" height="0.4000000059604645" id="svg_34"/><path class="cls-2" d="M48.04998931884765,51.74426452636719 H35.699989318847656 a0.5,0.5 0 0 1 0,-1 h12.37 a0.5,0.5 0 0 1 0,1 z" id="svg_35"/><path class="cls-2" d="M48.04998931884765,51.94426452636719 H35.699989318847656 a0.7000000000000001,0.7000000000000001 0 1 1 0,-1.4 h12.37 a0.7000000000000001,0.7000000000000001 0 1 1 0,1.4 zm-12.37,-1 a0.30000000000000004,0.30000000000000004 0 1 0 0,0.5900000000000001 h12.37 a0.30000000000000004,0.30000000000000004 0 1 0 0,-0.5900000000000001 z" id="svg_36"/></g></svg>