<svg xmlns="http://www.w3.org/2000/svg" data-name="圖層 1" width="366" height="104"><rect id="backgroundrect" width="100%" height="100%" x="0" y="0" fill="none" stroke="none"/><defs><style>.cls-1,.cls-3{fill:#942323;}.cls-1{stroke:#942323;}.cls-1,.cls-2{stroke-miterlimit:10;fill-rule:evenodd;}.cls-2{fill:#fff;stroke:#fff;}</style></defs><title>網站</title><g class="currentLayer" style=""><title>Layer 1</title><path class="cls-1" d="M361.24352027893065,68.20044860839843 H100.86352027893066 a51.77,51.77 0 1 0 -4,9 H361.24352027893065 a4.48,4.48 0 1 0 0,-9 z" id="svg_1"/><path class="cls-2" d="M49.56352027893067,42.650448608398435 h4.48 v17.56 H49.56352027893067 V42.650448608398435 zm0,-6.9 h4.48 v4.45 H49.56352027893067 V35.760448608398434 zm2.22,-4.86 a17.45,17.45 0 1 0 17.45,17.44 A17.45,17.45 0 0 0 51.783520278930666,30.900448608398435 zm0,-2.8 a20.24,20.24 0 0 1 1.4,40.43 V81.15044860839845 H50.393520278930666 V68.54044860839844 a20.24,20.24 0 0 1 1.3900000000000001,-40.43 z" id="svg_2"/><path class="cls-3" d="M177.34352027893067,31.430448608398436 H164.99352027893067 q-1.85,1.34 -5.92,3.74 h15.94 v3.4 H157.27352027893068 l-1,3.5300000000000002 h19 a51.26,51.26 0 0 1 -0.7100000000000001,5.49 q-0.6500000000000001,3.9 -1.8900000000000001,5 a5.36,5.36 0 0 1 -2.29,1.3800000000000001 a39.89,39.89 0 0 1 -5.94,0.24000000000000002 q-3.6100000000000003,0 -7.92,-0.19000000000000003 l-1.15,-3.5300000000000002 q3.8200000000000003,0.27 12.77,0.27 a2.08,2.08 0 0 0 1.7400000000000002,-0.7500000000000001 q0.5900000000000001,-0.7400000000000001 1.13,-4.54 H151.24352027893067 l2.1,-7.45 q-7.05,3.23 -11.82,5 l-2,-3.23 A102.66,102.66 0 0 0 158.47352027893066,31.430448608398436 H139.97352027893066 V27.990448608398438 h14.19 v-4 H143.37352027893067 V20.52044860839844 h10.79 V16.91044860839844 h3.93 v3.6100000000000003 H167.47352027893066 v3.44 h-9.41 v4 h5.67 A66.73,66.73 0 0 0 174.17352027893065,17.680448608398436 l3,2 a62.9,62.9 0 0 1 -7.79,8.29 h8 z" id="svg_3"/><path class="cls-3" d="M196.61352027893065,24.17044860839843 h-13.9 V20.730448608398433 h5.25 a24.31,24.31 0 0 0 -1.4300000000000002,-3.19 l3.88,-0.9 a31.19,31.19 0 0 1 1.7600000000000002,4.09 h4.43 zm-0.78,6.49 H183.70352027893065 v-3.4 h12.14 zm0,6.11 H183.70352027893065 v-3.4 h12.14 zm0.08000000000000002,16.9 h-3.8200000000000003 v-2 h-4.26 v2.8600000000000003 h-3.88 v-14.8 h12 zm-3.8200000000000003,-5.42 v-5.08 h-4.26 v5.08 zm17.57,-0.6500000000000001 A90.66,90.66 0 0 1 197.47352027893066,52.280448608398444 l-0.53,-3.6500000000000004 a29,29 0 0 0 4.18,-1.32 V35.260448608398434 h-3.8 V31.850448608398438 h10.9 v3.44 h-3.4 V45.85044860839844 q1.51,-0.5900000000000001 4.51,-2 zm11.11,-1.85 a20.31,20.31 0 0 1 -1.48,6.34 q-1.1,2.44 -3,2.44 q-3.51,0 -4.91,-7.08 a119.22,119.22 0 0 1 -1.6400000000000001,-19.92 H197.60352027893066 V23.960448608398437 h12 l0,-7.18 h3.6500000000000004 q0,5.12 0.13,7.18 h6.84 v3.5700000000000003 h-6.76 a140.2,140.2 0 0 0 1.42,17.64 q1,5.21 1.42,5.21 q0.17,0 0.5900000000000001,-1.3800000000000001 a26.69,26.69 0 0 0 0.7100000000000001,-4.84 zm-1,-24.5 l-2.6500000000000004,1.85 a30.39,30.39 0 0 0 -3.3200000000000003,-4.14 L216.47352027893066,17.200448608398432 A23.59,23.59 0 0 1 219.81352027893067,21.250448608398443 z" id="svg_4"/><path class="cls-3" d="M263.67352027893065,29.850448608398438 l-1.8,3.44 a28,28 0 0 1 -3.74,-1.07 v16.17 H239.99352027893067 l1.85,2.14 a55.71,55.71 0 0 1 -14.32,4.14 l-1.85,-3.44 a50.49,50.49 0 0 0 11.74,-2.83 h-6.32 V32.13044860839844 h8.13 l-1.6400000000000001,-2.37 q7.54,-1.9100000000000001 11.23,-6.7 l3.91,0.8600000000000001 a6.8,6.8 0 0 1 -0.9500000000000001,1.45 A34.87,34.87 0 0 0 263.67352027893065,29.850448608398438 zm-25.15,-1.2 H226.01352027893066 V25.120448608398434 h12.51 zm-0.38000000000000006,-6.84 H226.58352027893068 V18.350448608398438 h11.57 zM254.27352027893068,36.680448608398436 V35.17044860839843 H235.10352027893066 v1.51 zm0,4.39 v-1.6 H235.10352027893066 v1.6 zm0,4.47 V43.85044860839844 H235.10352027893066 v1.6800000000000002 zm8.65,-23.26 a49.42,49.42 0 0 1 -3.7600000000000002,4.8100000000000005 l-3.25,-1.9300000000000002 q0.54,-0.6300000000000001 2.31,-2.88 H244.67352027893065 a34.23,34.23 0 0 1 -3.7800000000000002,3.7800000000000002 l-2.92,-2.5 a25.7,25.7 0 0 0 6.4,-7.3100000000000005 l3.5300000000000002,1.2 a4.05,4.05 0 0 1 -0.8200000000000001,1.51 h15.83 zm-5.21,9.85 a33.9,33.9 0 0 1 -8.4,-4.14 a22.75,22.75 0 0 1 -7,4.14 zM263.47352027893066,51.510448608398434 L261.37352027893064,54.85044860839844 a66.79,66.79 0 0 0 -12.6,-2.62 l2,-3.23 A55.23,55.23 0 0 1 263.47352027893066,51.510448608398434 z" id="svg_5"/><path class="cls-3" d="M282.8235202789307,23.850448608398438 H268.8835202789307 V20.390448608398444 h5.5 a14.65,14.65 0 0 0 -1.37,-2.67 l3.7800000000000002,-1.4300000000000002 a36.09,36.09 0 0 1 1.8900000000000001,4.09 h4.14 zm-0.9400000000000001,6.38 h-12 V26.80044860839844 h12 zm0,6.28 h-12 v-3.4 h12 zm0,16.75 h-3.7800000000000002 v-1.9300000000000002 h-4.51 v3 h-3.72 V39.390448608398444 h12 zM278.1435202789307,47.85044860839844 v-4.85 h-4.51 V47.85044860839844 zm28.68,-3.5700000000000003 a29,29 0 0 1 -1.17,6.12 a8.33,8.33 0 0 1 -1.6800000000000002,3.47 a2.77,2.77 0 0 1 -1.86,0.6900000000000002 a3,3 0 0 1 -2.21,-1 q-0.93,-1 -1.79,-5.76 a49.76,49.76 0 0 1 -0.8500000000000001,-8.61 V21.250448608398443 H291.47352027893066 V32.85044860839844 h4.62 v3.72 H291.47352027893066 v17.78 h-3.7 V36.56044860839843 h-4 V32.85044860839844 h4 V21.250448608398443 H284.2735202789307 V17.640448608398444 h16.69 v22.4 a33.71,33.71 0 0 0 1.3900000000000001,9.66 a36.69,36.69 0 0 0 1,-7.5600000000000005 z" id="svg_6"/></g></svg>