<svg xmlns="http://www.w3.org/2000/svg" data-name="圖層 1" width="366" height="104"><rect id="backgroundrect" width="100%" height="100%" x="0" y="0" fill="none" stroke="none"/><defs><style>.cls-1,.cls-3{fill:#942323;}.cls-1{stroke:#942323;stroke-miterlimit:10;}.cls-1,.cls-2{fill-rule:evenodd;}.cls-2{fill:#fff;}</style></defs><title>網站</title><g class="currentLayer" style=""><title>Layer 1</title><path class="cls-1" d="M361.2235040664673,68.20044860839843 H100.86350406646729 a51.77,51.77 0 1 0 -4,9 H361.2235040664673 a4.48,4.48 0 1 0 0,-9 z" id="svg_1"/><path class="cls-2" d="M36.91350406646728,65.04044860839844 l-5.44,5.43 a1.55,1.55 0 0 0 0,2.2 a1.57,1.57 0 0 0 2.21,0 l5.44,-5.43 l-2.21,-2.2 zm4.17,-4.16 l-2,1.9500000000000002 l2.21,2.21 l2,-1.9500000000000002 l-2.21,-2.21 zm12.9,-16.9 v6.23 H57.12350406646729 v-1.56 a1.56,1.56 0 0 1 3.13,0 v1.56 h3.13 v-6.23 zm4.7,-5.6 L56.223504066467285,40.86044860839844 h5 l-2.47,-2.48 zm0,-3.77 a1.56,1.56 0 0 1 1.11,0.46 l6.26,6.24 a1.57,1.57 0 0 1 0.46,1.1 v9.36 a1.56,1.56 0 0 1 -1.56,1.56 H52.43350406646728 a1.56,1.56 0 0 1 -1.57,-1.56 v-9.36 a1.6,1.6 0 0 1 0.46,-1.1 h0 l6.25,-6.24 a1.56,1.56 0 0 1 1.11,-0.46 zm0,-3.12 a14,14 0 1 0 14.08,14 a14.07,14.07 0 0 0 -14.08,-14 zm0,-3.12 a17.16,17.16 0 1 1 -11,30.35 l-2.17,2.16 l1.11,1.1 a1.56,1.56 0 0 1 0,2.21 L35.89350406646729,74.88044860839844 A4.69,4.69 0 0 1 29.223504066467285,68.26044860839843 L39.98350406646728,57.60044860839844 A1.56,1.56 0 0 1 42.223504066467285,57.60044860839844 l1.11,1.1 l2.17,-2.16 a17.15,17.15 0 0 1 13.22,-28.14 z" id="svg_2"/><path class="cls-3" d="M146.39350406646727,46.27044860839844 q-1.7400000000000002,7.45 -3.49,10.33 l-3.11,-2.5 a31.28,31.28 0 0 0 3.19,-9.07 zm11.74,-2.92 h-6.8 V57.800448608398426 h-3.7 V43.35044860839844 h-7.58 v-3.4 h7.58 v-3.21 H141.0235040664673 v-3.44 h3.34 a45.16,45.16 0 0 0 -1.7200000000000002,-5.9 h-1.7200000000000002 V24.06044860839843 h6.51 a15.71,15.71 0 0 0 -1.6,-2.8600000000000003 l3.74,-1.15 a42.38,42.38 0 0 1 1.9300000000000002,4 H157.22350406646729 v3.34 h-1.09 q-1.22,4.41 -1.7600000000000002,5.9 H157.22350406646729 v3.44 h-5.94 v3.21 h6.8 zm-5.86,-16 h-5.79 q1.51,5 1.6600000000000001,5.9 h2.46 A55.22,55.22 0 0 0 152.2735040664673,27.390448608398444 zM158.51350406646728,51.60044860839844 l-3.4,1.6400000000000001 a32.21,32.21 0 0 0 -2.54,-7 l3.23,-1.4100000000000001 A42.37,42.37 0 0 1 158.51350406646728,51.60044860839844 zM177.8735040664673,49.60044860839844 a30.12,30.12 0 0 1 -0.54,5.6 a3,3 0 0 1 -1.23,1.81 a6.9,6.9 0 0 1 -3.3,0.54 a8.37,8.37 0 0 1 -2.44,-0.24000000000000002 a2.73,2.73 0 0 1 -1.25,-1 a3.22,3.22 0 0 1 -0.56,-2 v-8.82 H166.22350406646729 q-0.5700000000000001,9.18 -7.54,12.620000000000001 l-2.5,-2.9 q6.51,-3.3 6.43,-9.72 h-2.94 V21.390448608398444 h16.13 v24.1 h-3.74 v7.58 q0,0.8600000000000001 1.05,0.8600000000000001 a1.23,1.23 0 0 0 0.8200000000000001,-0.26 q0.31000000000000005,-0.26 0.45,-2.18 a22.86,22.86 0 0 0 0.05000000000000001,-3.1 zm-5.77,-21.46 V24.850448608398438 h-8.82 v3.2800000000000002 zm0,6.84 v-3.44 h-8.82 v3.44 zm0,7 v-3.5300000000000002 h-8.82 v3.5300000000000002 z" id="svg_3"/><path class="cls-3" d="M220.38350406646728,40.900448608398435 H203.76350406646728 v13.25 a3.45,3.45 0 0 1 -0.81,2.3 a3.5700000000000003,3.5700000000000003 0 0 1 -1.79,1.22 a19.7,19.7 0 0 1 -4.07,0.26 q-1.57,0 -3.13,-0.08000000000000002 l-1.13,-3.74 q2.54,0.19000000000000003 3.95,0.19000000000000003 a6.87,6.87 0 0 0 2.49,-0.27 a1.13,1.13 0 0 0 0.54,-1.11 v-12 H183.0535040664673 v-3.74 h16.73 v-5.25 a59.51,59.51 0 0 0 9.76,-6.78 H187.97350406646729 V21.350448608398438 h27.74 v3.7800000000000002 a82.32,82.32 0 0 1 -11.95,9 v3 h16.63 z" id="svg_4"/><path class="cls-3" d="M243.22350406646729,32.390448608398444 H230.92350406646727 v25.53 h-3.8200000000000003 V21.08044860839844 H243.22350406646729 zm-3.8,-6.8 V23.950448608398432 h-8.5 V25.600448608398438 zm0,4 v-1.6400000000000001 h-8.5 V29.600448608398438 zM244.22350406646729,43.92044860839843 l-2.29,1.24 q-0.29000000000000004,-0.48000000000000004 -0.5700000000000001,-0.8600000000000001 q-4.66,0.6900000000000002 -8.08,0.9 l-0.6700000000000002,-2.23 a23,23 0 0 0 4.77,-3.2800000000000002 q-2.37,0.3400000000000001 -4,0.42000000000000004 l-0.6900000000000002,-2.23 a11.64,11.64 0 0 0 4.93,-4.8100000000000005 l2.75,1 a17.86,17.86 0 0 1 -3.5300000000000002,3.44 a21.07,21.07 0 0 0 3,-0.44000000000000006 a18,18 0 0 0 1.37,-1.7200000000000002 l2.75,1.11 a32.4,32.4 0 0 1 -6.61,6 a14.13,14.13 0 0 0 2.75,-0.3400000000000001 a3.18,3.18 0 0 0 -0.42000000000000004,-0.6500000000000001 l2.27,-1.1600000000000001 A25.63,25.63 0 0 1 244.22350406646729,43.92044860839843 zm-0.6900000000000002,3.48 q0,4.2 -1.79,6.33 T235.22350406646729,57.21044860839845 l-2,-2.94 q4.37,-0.7100000000000001 5.86,-2.67 H233.42350406646727 V46.400448608398435 h3.34 v2.63 h3.15 a2.18,2.18 0 0 0 0.08000000000000002,-0.7600000000000001 v-2.5 h3.49 zm13.63,-3.5300000000000002 l-2.54,1.2 a4.29,4.29 0 0 0 -0.55,-0.9500000000000001 q-2.94,0.46 -8.44,1 l-0.5900000000000001,-2.18 a17.74,17.74 0 0 0 4.37,-3.19 l-4.12,0.48000000000000004 l-0.6100000000000001,-2.29 a12.76,12.76 0 0 0 4.47,-4.890000000000001 l2.79,0.8600000000000001 a18.16,18.16 0 0 1 -3.6100000000000003,3.7 q2.41,-0.31000000000000005 3.19,-0.44000000000000006 a9.74,9.74 0 0 0 1.1600000000000001,-1.6400000000000001 l3,0.9500000000000001 a28.6,28.6 0 0 1 -6.17,6 q2.06,-0.21000000000000002 3,-0.38000000000000006 a4.84,4.84 0 0 0 -0.6100000000000001,-0.7300000000000001 l2.58,-1.11 A19.63,19.63 0 0 1 257.11350406646727,43.88044860839844 zm-1.11,7.890000000000001 h-6.63 v5.21 h-3.5700000000000003 V45.81044860839843 h3.5700000000000003 v3.3200000000000003 h3.19 v-2.67 h3.44 zm6.15,2.5 a3.52,3.52 0 0 1 -0.6700000000000002,2.21 a3.48,3.48 0 0 1 -1.6700000000000002,1.21 a12.31,12.31 0 0 1 -3.47,0.3400000000000001 a11.64,11.64 0 0 1 -1.6800000000000002,-0.11000000000000001 L253.22350406646729,54.19044860839844 q1.09,0.08000000000000002 2.44,0.08000000000000002 a14.93,14.93 0 0 0 2.17,-0.1 q0.6000000000000001,-0.11000000000000001 0.6000000000000001,-1.09 V32.390448608398444 H246.1535040664673 V21.08044860839844 h16 zM258.4135040664673,25.600448608398438 V23.950448608398432 h-8.44 V25.600448608398438 zm0,4 v-1.6400000000000001 h-8.44 V29.600448608398438 z" id="svg_5"/><path class="cls-3" d="M279.9135040664673,20.860448608398443 q-1.18,3.2800000000000002 -2.29,5.9 l-1.11,2.44 v28.64 h-3.6500000000000004 V36.17044860839843 q-0.8800000000000001,1.26 -2.83,3.7 l-1.6800000000000002,-3.95 a60.71,60.71 0 0 0 7.8100000000000005,-15.92 zm9.15,27.48 a47.56,47.56 0 0 1 -8.25,8.54 L277.5435040664673,54.60044860839844 a39.18,39.18 0 0 0 8.13,-8.12 zm5.25,-26.62 a55.89,55.89 0 0 1 -13.5,9.85 L278.2235040664673,29.030448608398444 a50,50 0 0 0 13,-9.07 zm12.28,23.26 l-3.21,1.85 a27.52,27.52 0 0 0 -1.7200000000000002,-2.88 q-3.42,0.48000000000000004 -7,0.8600000000000001 v9.45 a4,4 0 0 1 -1,2.6500000000000004 q-1,1.15 -5,1.15 a11.45,11.45 0 0 1 -1.32,-0.06000000000000001 l-1.47,-3.74 q4.26,0 4.61,0 t0.35000000000000003,-0.8200000000000001 v-8.25 q-4.77,0.44000000000000006 -11.07,0.7300000000000001 l-0.5900000000000001,-2.92 a73.58,73.58 0 0 0 10.48,-5.46 q-6.36,0.38000000000000006 -8.84,0.42000000000000004 l-0.6900000000000002,-3 q9.78,-4.91 15.1,-10.79 l3.44,1.8 a53.3,53.3 0 0 1 -11.19,8.5 q6.28,-0.31000000000000005 7.35,-0.49000000000000005 t4.79,-3.9 l3.7,1.7200000000000002 q-5,4.77 -15.26,10.37 q4.34,-0.19000000000000003 11.34,-1.09 q-0.8200000000000001,-1.13 -2,-2.44 l3.3200000000000003,-1.6400000000000001 A46.79,46.79 0 0 1 306.5935040664673,44.99044860839844 zm0,10.06 l-3.09,2 a58.26,58.26 0 0 0 -7.22,-8.8 l3,-2.12 A52.91,52.91 0 0 1 306.55350406646727,55.050448608398426 z" id="svg_6"/></g></svg>