<svg xmlns="http://www.w3.org/2000/svg" data-name="圖層 1" width="366" height="104"><rect id="backgroundrect" width="100%" height="100%" x="0" y="0" fill="none" stroke="none"/><defs><style>.cls-1,.cls-4{fill:#942323;}.cls-1{stroke:#942323;}.cls-1,.cls-3{stroke-miterlimit:10;}.cls-1,.cls-2,.cls-3{fill-rule:evenodd;}.cls-2,.cls-3{fill:#fff;}.cls-3{stroke:#fff;}</style></defs><title>網站</title><g class="currentLayer" style=""><title>Layer 1</title><path class="cls-1" d="M361.2535053253174,68.200439453125 H100.86350532531738 a51.77,51.77 0 1 0 -4,9 H361.2535053253174 a4.48,4.48 0 1 0 0,-9 z" id="svg_1"/><path class="cls-2" d="M36.31350532531738,83.71043945312499 a1.21,1.21 0 0 0 0.9,0.22000000000000003 a2.12,2.12 0 0 0 2,-1.23 L52.353505325317386,54.950439453125 l9.75,11.75 a2.46,2.46 0 0 0 2,0.78 a2.34,2.34 0 0 0 1.79,-1.23 l12.56,-26.74 a2.24,2.24 0 0 0 -1,-3 a2.2,2.2 0 0 0 -3,1.12 L63.34350532531738,61.200439453125 l-9.870000000000001,-11.86 a2.16,2.16 0 0 0 -3.7,0.56 L35.19350532531738,80.800439453125 a2.13,2.13 0 0 0 1.12,2.91 z" id="svg_2"/><path class="cls-3" d="M39.033505325317385,49.77043945312499 a1.2,1.2 0 0 1 -0.5900000000000001,-1.59 l7.73,-17 l-0.9,0.45 a1.2,1.2 0 0 1 -1.08,-2.14 l3.92,-2 a1.22,1.22 0 0 1 0.6900000000000002,-0.14 a1.26,1.26 0 0 1 1,0.81 h0 s0,0.06000000000000001 0,0.09000000000000002 l1.05,4.29 a1.2,1.2 0 1 1 -2.3200000000000003,0.5900000000000001 l-0.25,-1 L40.65350532531738,49.200439453125 a1.19,1.19 0 0 1 -1.58,0.5900000000000001 z" id="svg_3"/><path class="cls-4" d="M177.59350532531738,56.46043945312499 l-2.39,3.21 a36.21,36.21 0 0 1 -14.68,-14.53 v16.54 h-4 V45.100439453125006 a40,40 0 0 1 -14.68,14.32 L139.38350532531737,56.200439453125 a36.43,36.43 0 0 0 14,-13.1 H140.29350532531737 V39.200439453125 h16.25 v-6.7 H141.82350532531737 v-3.74 h14.72 v-4.7 h4 v4.7 h14.76 v3.74 H160.53350532531738 V39.200439453125 H176.65350532531738 v3.84 H163.59350532531738 Q167.41350532531737,50.710439453125005 177.59350532531738,56.46043945312499 z" id="svg_4"/><path class="cls-4" d="M220.91350532531737,56.75043945312501 L218.65350532531738,59.840439453124986 A43.32,43.32 0 0 1 203.65350532531738,47.200439453125 v14.68 h-3.91 V47.120439453125 a42.24,42.24 0 0 1 -14.89,12.77 l-2.39,-3.09 a41.11,41.11 0 0 0 17.28,-15.47 v-9.38 H183.5835053253174 V28.200439453125 h16.13 V24.150439453125003 H203.65350532531738 V28.200439453125 h16 v3.74 H203.65350532531738 v9.76 Q209.4935053253174,50.900439453125 220.91350532531737,56.75043945312501 zM196.65350532531738,43.590439453125 l-2.75,2.75 a32.91,32.91 0 0 0 -3.2800000000000002,-5.46 a38.35,38.35 0 0 1 -4.8100000000000005,6.49 l-2.94,-2.39 q4.39,-4.22 7.27,-12 l3.6100000000000003,0.8200000000000001 a20.05,20.05 0 0 1 -1.49,3.6500000000000004 A51.24,51.24 0 0 1 196.65350532531738,43.590439453125 zm23,0.78 l-2.67,2.67 a37.41,37.41 0 0 0 -4.68,-6 a24.26,24.26 0 0 1 -3.49,4.91 l-2.54,-2.67 q3.21,-3.4 5.38,-10.14 l3.5700000000000003,0.5900000000000001 a23.24,23.24 0 0 1 -1.32,4 A48.51,48.51 0 0 1 219.65350532531738,44.370439453125 z" id="svg_5"/><path class="cls-4" d="M263.8335053253174,58.200439453125 l-1,3.2800000000000002 q-18.73,0 -23.9,-1.25 a15,15 0 0 1 -8.77,-6.3100000000000005 a51.71,51.71 0 0 1 -1.85,8.55 l-2.88,-2.75 a71.13,71.13 0 0 0 2,-16.63 l3.2800000000000002,0 l-0.15000000000000002,5.71 a14.6,14.6 0 0 0 2,2.92 V40.500439453125 h-6.51 v-3.49 h6.51 v-4.77 h-5.5600000000000005 v-3.44 h5.5600000000000005 V24.290439453125003 h3.7 v4.51 h3.5700000000000003 v3.44 h-3.5700000000000003 v4.77 h4.68 v3.49 h-4.72 v4.77 h3.7800000000000002 v3.6100000000000003 h-3.7800000000000002 v6.53 q2.48,1.9300000000000002 9.82,2.34 T263.8335053253174,58.200439453125 zM262.4035053253174,42.200439453125 q-0.23,11.25 -1.28,13 t-4.14,1.77 l-2.54,-0.06000000000000001 l-1.28,-3.36 q1,0.08000000000000002 2.25,0.08000000000000002 a4.67,4.67 0 0 0 2.45,-0.35000000000000003 q0.35000000000000003,-0.35000000000000003 0.6600000000000001,-3.31 a48.63,48.63 0 0 0 0.31000000000000005,-5 h-12 a23.54,23.54 0 0 1 -2.37,1.8900000000000001 h2 v2.54 H248.65350532531738 q0.17,-3.2800000000000002 0.17,-3.5700000000000003 l3.21,0 a23.57,23.57 0 0 1 -0.21000000000000002,3.5300000000000002 h2.37 v-2.5 h3 V52.200439453125 h-5.75 q-1.78,4.49 -7.66,5 l-1.6,-2.88 q3.8600000000000003,-0.19000000000000003 5.42,-2.1 h-4.16 v-4.51 a7.25,7.25 0 0 1 -1.26,0.6700000000000002 l-1.6600000000000001,-2.79 a23.44,23.44 0 0 0 5.67,-4.47 q-1.18,0.36000000000000004 -1.7200000000000002,0.48000000000000004 l-1.55,-2.79 q4.16,-0.6100000000000001 5.29,-2.54 H244.05350532531736 v-3.95 l-1.6400000000000001,1.28 l-1.7200000000000002,-3 a22.15,22.15 0 0 0 5.84,-6.55 L249.65350532531738,25.200439453125 q-0.23,0.42000000000000004 -0.8600000000000001,1.49 H262.1535053253174 a84.91,84.91 0 0 1 -0.43000000000000005,8.49 a12.94,12.94 0 0 1 -0.8500000000000001,4 a3,3 0 0 1 -1.81,1.26 a12.38,12.38 0 0 1 -4,0.32000000000000006 l-0.9,-3 l2.79,0 q1,0 1.2,-1.75 t0.44000000000000006,-6.39 H246.80350532531736 q-0.7100000000000001,0.7600000000000001 -1.85,1.9100000000000001 h2.14 v2.23 h1.9300000000000002 q0.13,-1.83 0.17,-3.13 h3.06 q-0.06000000000000001,1.34 -0.19000000000000003,3.13 h1.83 v-2.23 h3 V36.200439453125 H251.65350532531738 a7.640000000000001,7.640000000000001 0 0 1 -3.5300000000000002,3.8600000000000003 l2.21,0.8600000000000001 q-0.55,0.8600000000000001 -0.8600000000000001,1.3 z" id="svg_6"/><path class="cls-4" d="M287.5935053253174,33.320439453125005 h-3.3200000000000003 v1.1600000000000001 q0,0.78 0.8200000000000001,0.78 h2.16 v2.88 h-3.15 q-3.13,0 -3.13,-3 v-1.85 h-3.7 a6.83,6.83 0 0 1 -2.52,3.8600000000000003 a9.82,9.82 0 0 1 -4.66,2.1 l-1.6,-2.75 q4.39,-1 5.38,-3.21 h-5 v-2.67 h8 v-1.9300000000000002 H270.6535053253174 v-2.71 h6.15 V24.150439453125003 h3.5700000000000003 v1.87 H286.6535053253174 v2.71 h-6.19 v1.9300000000000002 h7.18 zm0.08000000000000002,13.42 q-8.36,0.78 -17.93,1.32 l-0.5,-3 q4.11,0 7.6,-0.21000000000000002 v-2.16 h-6 v-2.83 h6 v-2.5 h3.6500000000000004 v2.5 H286.6535053253174 v2.83 h-6.11 v1.8900000000000001 q3.46,-0.19000000000000003 7.14,-0.5900000000000001 zm15.71,3.3 a48.16,48.16 0 0 1 -0.79,6.4 a7.41,7.41 0 0 1 -1.52,3.52 a5,5 0 0 1 -2.21,1.44 a18.89,18.89 0 0 1 -4.55,0.36000000000000004 q-1.13,0 -2,-0.06000000000000001 L291.0835053253174,58.200439453125 q1.6400000000000001,0.13 3.11,0.13 a12.94,12.94 0 0 0 3.29,-0.24000000000000002 a2.08,2.08 0 0 0 1.09,-1.06 a12.79,12.79 0 0 0 0.7200000000000001,-3.7600000000000002 H287.7635053253174 q-4.07,7.68 -16.54,8.9 l-1.7200000000000002,-3.48 q11.19,-0.9 14,-5.42 H271.8335053253174 v-3.19 h13.14 a7.67,7.67 0 0 0 0.6100000000000001,-2.1 l3.74,0.08000000000000002 a11.89,11.89 0 0 1 -0.38000000000000006,2 zm3.4,-9.07 q-0.6500000000000001,7 -3.7600000000000002,7 q-1.58,0 -2.7,-2.31 t-1.12,-11.15 q0,-1.51 0,-2.73 h-3 a41.45,41.45 0 0 1 -0.8600000000000001,6.8 a44,44 0 0 1 2.88,3.5700000000000003 l-2.46,2.88 a25.53,25.53 0 0 0 -1.6400000000000001,-2.46 a21.37,21.37 0 0 1 -3.17,5.21 L288.4535053253174,45.200439453125 a17.75,17.75 0 0 0 3.19,-5.5 a24.94,24.94 0 0 0 -3.15,-3 l2.06,-2.73 a20.3,20.3 0 0 1 1.87,1.6400000000000001 a38,38 0 0 0 0.38000000000000006,-3.8600000000000003 h-4.09 v-3.4 h4.09 a41.5,41.5 0 0 0 0.08000000000000002,-4.3 l3.4,0.08000000000000002 q0.06000000000000001,2.46 0,4.22 h6.57 q-0.13,3.36 -0.13,11.65 a16.64,16.64 0 0 0 0.16000000000000003,2.68 q0.16000000000000003,0.8900000000000001 0.28,0.8900000000000001 t0.4,-1.08 a14.92,14.92 0 0 0 0.4,-3 z" id="svg_7"/></g></svg>