<svg xmlns="http://www.w3.org/2000/svg" data-name="圖層 1" width="366" height="104"><rect id="backgroundrect" width="100%" height="100%" x="0" y="0" fill="none" stroke="none"/><defs><style>.cls-1,.cls-3{fill:#942323;}.cls-1{stroke:#942323;}.cls-1,.cls-2{stroke-miterlimit:10;fill-rule:evenodd;}.cls-2{fill:#fff;stroke:#fff;}</style></defs><title>網站</title><g class="currentLayer" style=""><title>Layer 1</title><path class="cls-1" d="M361.25350620269774,68.2004489135742 H100.86350620269775 a51.77,51.77 0 1 0 -4,9 H361.25350620269774 a4.48,4.48 0 1 0 0,-9 z" id="svg_1"/><path class="cls-2" d="M53.63350620269776,50.290448913574224 a1.2,1.2 0 0 1 0,-1.6900000000000002 l13.16,-13.19 l-1,0.11000000000000001 A1.2,1.2 0 0 1 65.48350620269775,33.13044891357421 l4.36,-0.49000000000000005 a1.22,1.22 0 0 1 0.6900000000000002,0.11000000000000001 a1.26,1.26 0 0 1 0.7000000000000001,1.12 h0 s0,0.05000000000000001 0,0.08000000000000002 l-0.51,4.39 a1.2,1.2 0 1 1 -2.38,-0.26 l0.11000000000000001,-1 L55.31350620269775,50.290448913574224 a1.19,1.19 0 0 1 -1.6900000000000002,0 zM34.373506202697754,37.160448913574214 c0.2,-5.14 4.24,-7.75 8.11,-8.1 c0.19000000000000003,0 1.13,0 1.37,0 a9.8,9.8 0 0 1 3.47,1 c0.21000000000000002,0.11000000000000001 0.77,0.43000000000000005 0.8400000000000001,0.49000000000000005 a7.94,7.94 0 0 1 3.6100000000000003,6.5600000000000005 c0.16000000000000003,4.45 -1.49,8 -4.54,9.86 a8.14,8.14 0 0 1 -8.32,0 c-3.05,-1.82 -4.7,-5.41 -4.54,-9.86 zm5.76,7.8 a5.74,5.74 0 0 0 5.88,0 c2.27,-1.36 3.5,-4.17 3.37,-7.71 a5.7,5.7 0 0 0 -1.4100000000000001,-3.6900000000000004 A8.43,8.43 0 0 1 40.82350620269776,38.03044891357422 a1.2,1.2 0 0 1 -1.27,-1.12 a1.18,1.18 0 0 1 1.1,-1.28 a6,6 0 0 0 5.35,-3.56 a7.62,7.62 0 0 0 -2.93,-0.6900000000000002 c-3,0.12000000000000001 -6.16,2 -6.3,5.82 c-0.13,3.55 1.1,6.35 3.37,7.71 zm33.78,8.56 V76.03044891357422 a1.1600000000000001,1.1600000000000001 0 0 1 -1.2,1.15 H52.653506202697756 A1.19,1.19 0 0 1 51.413506202697754,76.03044891357422 v-9.870000000000001 a1.25,1.25 0 0 1 1.24,-1.21 H60.483506202697754 a1.26,1.26 0 0 1 1.25,1.21 v8.620000000000001 h3.71 v-14 H60.03350620269775 v1 a1.19,1.19 0 1 1 -2.39,0 v-2.16 a1.19,1.19 0 0 1 1.13,-1.25 h7.82 a1.27,1.27 0 0 1 1.22,1.25 v15.19 H71.48350620269775 v-20 H66.13350620269776 v0.38000000000000006 a1.19,1.19 0 1 1 -2.39,0 v-1.57 a1.1600000000000001,1.1600000000000001 0 0 1 1.1600000000000001,-1.2 h7.8100000000000005 a1.2,1.2 0 0 1 1.2,1.2 zm-14.6,13.8 h-5.5 v7.44 h5.5 v-7.44 zm-6.36,-6.44 a1.2,1.2 0 0 0 1,-1.3900000000000001 l-0.2,-1.07 c-1,-5.34 -6,-7.77 -10.57,-7.77 h-0.09000000000000002 C38.483506202697754,50.67044891357422 33.483506202697754,53.03044891357422 32.483506202697754,58.40044891357422 l-2.81,15.27 a1.22,1.22 0 0 0 0.26,1 a1.2,1.2 0 0 0 0.92,0.44000000000000006 H46.723506202697756 a1.2,1.2 0 0 0 0,-2.4 H32.31350620269775 l2.55,-13.86 c0.7400000000000001,-4 4.68,-5.8 8.26,-5.8 s7.5,1.8 8.24,5.8 l0.19000000000000003,1.06 a1.2,1.2 0 0 0 1.4,1 zm-8.58,-2.2 a1.2,1.2 0 1 0 0,2.4 h2.33 a1.2,1.2 0 0 0 0,-2.4 z" id="svg_2"/><path class="cls-3" d="M163.76350620269776,35.03044891357422 h-9.89 v4.35 h8.42 v12.28 q0,2.6900000000000004 -3.6500000000000004,2.6900000000000004 a19.16,19.16 0 0 1 -2.23,-0.15000000000000002 l-1.18,-3.7 q0.27,0 2.54,0 a0.79,0.79 0 0 0 0.5,-0.24000000000000002 a0.6700000000000002,0.6700000000000002 0 0 0 0.27,-0.49000000000000005 V42.930448913574224 h-4.68 v13.23 h-3.8600000000000003 V42.930448913574224 H145.18350620269774 v11.25 H141.48350620269775 V39.36044891357422 h8.53 V35.03044891357422 H139.81350620269777 v-3.5300000000000002 h10.21 V27.03044891357422 h-5.48 a29,29 0 0 1 -1.81,3.3200000000000003 l-3.13,-2.21 a33.13,33.13 0 0 0 4,-9.28 l3.5300000000000002,1 a25.79,25.79 0 0 1 -1.15,3.6100000000000003 h4.05 V18.570448913574225 h3.8600000000000003 v4.91 h9 V27.03044891357422 h-9 v4.43 h9.89 zm5.42,13.21 h-3.6100000000000003 V21.550448913574215 h3.6100000000000003 zm7.1,4.93 a2.51,2.51 0 0 1 -1.26,2.09 q-1.26,0.8700000000000001 -7.08,0.8700000000000001 l-1.51,-3.7800000000000002 q1.8900000000000001,0.11000000000000001 3.09,0.1 a8.35,8.35 0 0 0 2.52,-0.2 a0.8300000000000001,0.8300000000000001 0 0 0 0.38000000000000006,-0.81 V18.570448913574225 h3.8600000000000003 z" id="svg_3"/><path class="cls-3" d="M220.35350620269776,24.800448913574215 h-30 v14.11 q0,10.56 -4.43,17.38 l-3.23,-2.16 q3.8200000000000003,-5.82 3.8200000000000003,-15.22 V21.430448913574224 h14.11 a22,22 0 0 0 -1.6400000000000001,-2.25 l4.18,-0.9 q0.8400000000000001,1.4300000000000002 1.81,3.15 h15.35 zm0.25,27.74 L219.48350620269775,56.190448913574215 A44.78,44.78 0 0 1 204.96350620269774,53.03044891357422 a51.23,51.23 0 0 1 -13.17,3.3200000000000003 l-1.7600000000000002,-3.6500000000000004 a36.13,36.13 0 0 0 10.75,-2 a15.52,15.52 0 0 1 -5.75,-6.36 h-1.8900000000000001 v-3.4 h22.57 v3.4 a22.34,22.34 0 0 1 -6.68,6.36 A37,37 0 0 0 220.60350620269776,52.540448913574224 zm-0.6700000000000002,-20.37 h-6.32 v6.32 H197.00350620269776 v-6.32 h-5.16 v-3.36 h5.16 v-2.54 h3.7 v2.54 h9.15 v-2.54 h3.7600000000000002 v2.54 h6.32 zm-9.09,12.16 H199.48350620269775 a15.7,15.7 0 0 0 5.33,4.74 A21.71,21.71 0 0 0 210.84350620269777,44.330448913574216 zm-1,-9.15 v-3 h-9.15 v3 z" id="svg_4"/><path class="cls-3" d="M263.9635062026978,52.90044891357422 l-1.3,3.3 a66.1,66.1 0 0 1 -18,-2.44 a60.33,60.33 0 0 1 -18,2.5 l-1.24,-3.4 a54.45,54.45 0 0 0 14.15,-1.18 a26.91,26.91 0 0 1 -4.91,-3.21 l3.11,-1.8900000000000001 a26.87,26.87 0 0 0 6.78,3.8200000000000003 a23.71,23.71 0 0 0 7.14,-4.77 H236.05350620269775 a42,42 0 0 1 -7.41,4.2 l-2.1,-2.71 a30.31,30.31 0 0 0 10.67,-6.87 l3.5300000000000002,1.32 a2.66,2.66 0 0 1 -0.9400000000000001,1 H262.48350620269775 v3.06 h-6.36 q-1.8900000000000001,3 -6.84,5.92 A71.17,71.17 0 0 0 263.9635062026978,52.90044891357422 zm-33.32,-17.2 a22.51,22.51 0 0 1 -2.37,6.13 l-2.67,-1.62 a21.09,21.09 0 0 0 2.14,-5.33 zm8.67,-2.54 l-2.79,0.6900000000000002 a5.8,5.8 0 0 0 -0.25,-0.8600000000000001 q-5.29,0.8600000000000001 -9,1.11 l-0.8200000000000001,-2.54 a19,19 0 0 0 5,-4.09 q-2.73,0.27 -4.39,0.27 l-0.53,-2.58 a17.29,17.29 0 0 0 5.33,-7.1 l3.44,0.9400000000000001 a26.44,26.44 0 0 1 -4.26,5.59 q1,0 3,-0.29000000000000004 A14.57,14.57 0 0 0 235.48350620269775,22.240448913574212 l2.83,1.49 a36.83,36.83 0 0 1 -6.45,7.1 q1.85,-0.21000000000000002 3.5300000000000002,-0.5 a4.69,4.69 0 0 0 -0.52,-1.26 l2.79,-0.8200000000000001 A27.1,27.1 0 0 1 239.31350620269777,33.160448913574214 zm-4.47,7.26 l-2.92,0.6900000000000002 a32,32 0 0 0 -0.6100000000000001,-5.5 l2.71,-0.52 A29.31,29.31 0 0 1 234.84350620269777,40.430448913574224 zm4.3,-1.47 l-2.71,0.9400000000000001 a24.58,24.58 0 0 0 -1.32,-4.72 l2.67,-0.6900000000000002 A18.77,18.77 0 0 1 239.14350620269775,38.960448913574226 zm11.23,-15.6 H239.14350620269775 V20.440448913574215 h3.6500000000000004 a10.21,10.21 0 0 0 -0.6100000000000001,-1.6400000000000001 l3.67,-0.6100000000000001 q0.7600000000000001,2 0.8400000000000001,2.25 h3.67 zm-1.18,16.82 h-9 v-7.33 h9 zm0,-12.79 h-9 V24.870448913574222 h9 zm0,4 h-9 v-2.54 h9 zm-3,6.15 v-2.12 h-2.92 v2.12 zm8.13,-1.7200000000000002 a29.69,29.69 0 0 1 -1.51,5.54 l-2.83,-1 a29.06,29.06 0 0 0 1.55,-5.42 zm9.24,-3 l-2.79,1 q-0.13,-0.4 -0.38000000000000006,-1 a74,74 0 0 1 -9.43,1.22 l-0.9400000000000001,-2.54 a16.27,16.27 0 0 0 5.38,-4.05 a38.42,38.42 0 0 1 -4.3,0.32000000000000006 l-0.6300000000000001,-2.67 q3.07,-1.9300000000000002 5.29,-7.05 l3.21,1 a19.66,19.66 0 0 1 -4,5.63 a21.81,21.81 0 0 0 3,-0.29000000000000004 q0.6900000000000002,-1 1.4300000000000002,-2.25 l2.92,1.4300000000000002 a30.58,30.58 0 0 1 -6.32,7.18 a25.45,25.45 0 0 0 3.3200000000000003,-0.42000000000000004 a8.14,8.14 0 0 0 -0.6500000000000001,-1.51 l2.88,-0.8200000000000001 A28.69,28.69 0 0 1 263.60350620269776,32.800448913574215 zm-4.890000000000001,8 l-2.92,0.23 a23.06,23.06 0 0 0 -0.44000000000000006,-5.46 l2.79,-0.27 A22.13,22.13 0 0 1 258.7135062026978,40.85044891357421 zm5.08,-0.9400000000000001 l-2.9,0.6900000000000002 a24.32,24.32 0 0 0 -1.58,-5.12 l2.71,-0.8200000000000001 A31.27,31.27 0 0 1 263.79350620269776,39.90044891357422 z" id="svg_5"/><path class="cls-3" d="M289.7635062026977,28.520448913574214 H281.48350620269775 v2.44 h7.41 v12.64 H281.48350620269775 V46.03044891357422 h7.41 v3 H281.48350620269775 v2.73 a71.86,71.86 0 0 0 7.62,-1.09 l0.17,3.07 q-9.3,1.55 -19.69,2.58 l-0.78,-3.11 l9.24,-0.9400000000000001 V49.03044891357422 H270.48350620269775 v-3 h7.52 v-2.42 H270.48350620269775 V30.960448913574226 h7.52 v-2.44 h-8.63 v-3.15 h8.63 V22.92044891357422 q-2.79,0.36000000000000004 -6.74,0.5700000000000001 l-0.9500000000000001,-3 a107.94,107.94 0 0 0 17.49,-2 l1.47,2.75 q-3.07,0.7100000000000001 -7.83,1.34 v2.83 h8.31 zm-11.76,7.39 v-2.21 h-4 v2.21 zm0,4.85 v-2.18 h-4 v2.18 zm7.37,-4.8100000000000005 v-2.25 H281.48350620269775 v2.25 zm0,4.8100000000000005 v-2.18 H281.48350620269775 v2.18 zm20.28,-14.15 q0,9 -0.4,17.31 a72.88,72.88 0 0 1 -0.7300000000000001,9.63 a3.46,3.46 0 0 1 -1.45,2 a6.51,6.51 0 0 1 -3.46,0.7000000000000001 q-1.11,0 -2.29,-0.11000000000000001 l-1.07,-3.6500000000000004 q1.6400000000000001,0.13 2.6,0.13 q1.87,0 2.18,-0.47000000000000003 t0.7600000000000001,-7.68 q0.44000000000000006,-7.21 0.29000000000000004,-14.29 h-3.7 q-0.11000000000000001,15.69 -5.73,26.16 l-3.3200000000000003,-1.6400000000000001 q5.73,-10.33 5.3100000000000005,-24.52 h-3.74 v-3.5700000000000003 h3.8200000000000003 q0.11000000000000001,-5.29 0,-7.85 H298.48350620269775 q0,4.05 -0.13,7.85 z" id="svg_6"/></g></svg>