<svg xmlns="http://www.w3.org/2000/svg" data-name="圖層 1" width="366" height="104"><rect id="backgroundrect" width="100%" height="100%" x="0" y="0" fill="none" stroke="none"/><defs><style>.cls-1,.cls-3{fill:#942323;}.cls-1{stroke:#942323;stroke-miterlimit:10;}.cls-1,.cls-2{fill-rule:evenodd;}.cls-2{fill:#fff;}</style></defs><title>網站</title><g class="currentLayer" style=""><title>Layer 1</title><path class="cls-1" d="M361.29349296569825,68.20051025390624 H100.86349296569824 a51.77,51.77 0 1 0 -4,9 H361.29349296569825 a4.48,4.48 0 1 0 0,-9 z" id="svg_1"/><path class="cls-2" d="M44.103492965698244,43.46051025390625 a1.56,1.56 0 1 1 0,3.12 c-3,0 -5.16,2.08 -6.18,4.9 a13.52,13.52 0 0 0 0.2,9.07 a1.56,1.56 0 0 1 -2.94,1.07 A16.64,16.64 0 0 1 34.98349296569824,50.46051025390625 c1.6700000000000002,-4.6 5.27,-7 9.13,-7 zm-1.35,-3 a12.15,12.15 0 0 0 -2.84,0.6600000000000001 a13.32,13.32 0 0 0 -7.87,8.28 a19.53,19.53 0 0 0 0.21000000000000002,13.34 c2.6900000000000004,7.39 9,12.35 15.59,12.35 a12.3,12.3 0 0 0 3.54,-0.51 a1.51,1.51 0 0 1 0.9,0 a12.35,12.35 0 0 0 3.55,0.51 c6.63,0 12.9,-5 15.59,-12.35 a19.53,19.53 0 0 0 0.21000000000000002,-13.34 a12.82,12.82 0 0 0 -19,-7.1 a1.59,1.59 0 0 1 -1.53,0 A14,14 0 0 0 42.75349296569824,40.46051025390625 zM58.073492965698236,30.32051025390625 a1.56,1.56 0 1 1 0,3.12 a4.67,4.67 0 0 0 -4.68,4.66 V38.46051025390625 A16,16 0 0 1 64.86349296569824,38.18051025390625 a16.39,16.39 0 0 1 9.74,10.14 a22.62,22.62 0 0 1 -0.21000000000000002,15.47 C71.22349296569824,72.46051025390625 63.77349296569824,78.20051025390624 55.86349296569824,78.20051025390624 a15.35,15.35 0 0 1 -4,-0.53 a15.26,15.26 0 0 1 -4,0.53 c-7.94,0 -15.38,-5.79 -18.53,-14.41 a22.66,22.66 0 0 1 -0.21000000000000002,-15.47 A16.39,16.39 0 0 1 38.86349296569824,38.18051025390625 A16,16 0 0 1 50.27349296569824,38.46051025390625 v-0.3400000000000001 a7.8,7.8 0 0 1 7.8,-7.78 z" id="svg_2"/><path class="cls-3" d="M153.91349296569825,27.020510253906252 l-4.87,7.83 v4.51 a35.52,35.52 0 0 0 4.05,-1.81 v4.12 a40,40 0 0 1 -4.05,1.9300000000000002 v13.08 a3,3 0 0 1 -1,2.33 a3.87,3.87 0 0 1 -2.6500000000000004,0.8800000000000001 q-2.81,0 -3.9,-0.08000000000000002 l-1.28,-3.7 q1.49,0.11000000000000001 3,0.1 a3.7600000000000002,3.7600000000000002 0 0 0 1.77,-0.26 a1,1 0 0 0 0.39000000000000007,-0.91 v-9.8 q-3.3200000000000003,1.24 -4.93,1.81 L139.55349296569824,43.46051025390625 q3.34,-1.2 5.79,-2.35 V34.200510253906245 q3.06,-4.6 4.5600000000000005,-7.18 h-9.620000000000001 V23.46051025390625 h13.63 zm23.35,30.53 L174.80349296569824,60.46051025390625 a54.3,54.3 0 0 0 -9.24,-7.05 a43.85,43.85 0 0 1 -12.35,6.53 l-2.41,-3.13 a40.85,40.85 0 0 0 13.47,-6.88 a36.42,36.42 0 0 0 9.08,-11.75 l3.09,1.7200000000000002 a44.08,44.08 0 0 1 -8,11 A59.5,59.5 0 0 1 177.26349296569825,57.55051025390625 zm0,-27.23 H165.94349296569825 a40.94,40.94 0 0 1 -5.79,7.54 q2.39,-0.23 6.78,-1 a42.46,42.46 0 0 0 2.67,-4.6 l3.11,1.62 q-5.06,11.28 -17.51,17.76 l-2.18,-3 a41.09,41.09 0 0 0 11,-8.17 q-3.3200000000000003,0.5700000000000001 -8.65,1.1600000000000001 l-0.9500000000000001,-2.79 a29.89,29.89 0 0 0 7.22,-8.57 h-6.87 V26.71051025390625 h8.94 a23.73,23.73 0 0 0 -2.12,-3.38 l3.93,-1.22 a22.58,22.58 0 0 1 2.5,4.6 h9.28 z" id="svg_3"/><path class="cls-3" d="M220.43349296569824,42.750510253906256 H203.80349296569824 V56.000510253906256 a3.45,3.45 0 0 1 -0.81,2.3 a3.5700000000000003,3.5700000000000003 0 0 1 -1.79,1.22 a19.7,19.7 0 0 1 -4.07,0.26 q-1.57,0 -3.13,-0.08000000000000002 L192.86349296569824,55.950510253906245 q2.54,0.19000000000000003 3.95,0.19000000000000003 a6.87,6.87 0 0 0 2.49,-0.27 A1.13,1.13 0 0 0 199.86349296569824,54.76051025390625 v-12 H183.10349296569825 V39.01051025390625 H199.86349296569824 V33.76051025390625 a59.51,59.51 0 0 0 9.76,-6.78 H188.01349296569825 V23.200510253906245 h27.74 v3.7800000000000002 a82.32,82.32 0 0 1 -11.95,9 v3 h16.63 z" id="svg_4"/><path class="cls-3" d="M234.86349296569824,22.760510253906247 q-0.5900000000000001,2.67 -1.3,5.4 L232.86349296569824,30.720510253906255 v29.06 h-3.6500000000000004 V40.000510253906256 q-0.6100000000000001,1.15 -1.6400000000000001,2.83 l-2.14,-3.8600000000000003 q3.7600000000000002,-6.42 5.92,-17.15 zm28.76,33.15 l-1.11,3.8600000000000003 q-12.05,0 -16,-1.07 a12.9,12.9 0 0 1 -6.39,-3.7800000000000002 a35.07,35.07 0 0 1 -3.6500000000000004,5.08 l-3.19,-2.41 a23.87,23.87 0 0 0 4.3,-5.71 a34.29,34.29 0 0 1 -3.3,-6.93 l3.09,-1.9300000000000002 a20.75,20.75 0 0 0 1.85,4.72 a30.48,30.48 0 0 0 1,-7.1 h-4.72 v-3 q1.9300000000000002,-3.7 4.09,-9 h-4.39 V25.300510253906253 h8.38 V28.660510253906253 q-1.37,3.5300000000000002 -3.74,8.5 H243.86349296569824 a42.41,42.41 0 0 1 -2.06,14.45 a11.71,11.71 0 0 0 3.89,3 a13.84,13.84 0 0 0 5.3,1.22 q3.09,0.16000000000000003 7.14,0.16000000000000003 Q261.10349296569825,56.02051025390625 263.6434929656982,55.91051025390625 zM263.34349296569826,34.46051025390625 H260.7634929656982 v5.75 h-6.32 v2.81 h7.87 v3.17 h-7.87 v2.46 h8.9 v3.09 h-8.9 v3.19 H250.86349296569824 V51.690510253906254 h-6.890000000000001 V48.610510253906256 H250.86349296569824 V46.15051025390625 h-6 V42.980510253906246 h6 V40.170510253906244 h-5.12 v-3 H250.86349296569824 V34.46051025390625 h-6.7 V31.280510253906243 H250.86349296569824 V28.950510253906245 h-5 v-3 h5 V22.46051025390625 h3.5700000000000003 v3.44 h6.32 v5.38 h2.58 zm-6.15,-3.13 V28.950510253906245 h-2.75 v2.33 zm0,5.88 V34.46051025390625 h-2.71 V37.16051025390625 z" id="svg_5"/><path class="cls-3" d="M306.34349296569826,39.37051025390625 h-3.8600000000000003 v5.33 H291.73349296569825 v11 a3.77,3.77 0 0 1 -1.2,3.17 a6.38,6.38 0 0 1 -3.8600000000000003,0.92 q-1.05,0 -2.35,-0.06000000000000001 l-1.07,-3.49 q1.4300000000000002,0.06000000000000001 2.29,0.06000000000000001 a5.35,5.35 0 0 0 2,-0.21000000000000002 a0.8600000000000001,0.8600000000000001 0 0 0 0.35000000000000003,-0.8 V44.700510253906245 h-9.74 v-3 H287.86349296569824 V39.37051025390625 H275.52349296569827 q0,9 -1.06,13.46 a24.12,24.12 0 0 1 -2.74,7 l-3,-2.23 q3,-5.54 3,-17.47 V25.220510253906255 H286.86349296569824 a16.38,16.38 0 0 0 -1,-2.08 l3.7800000000000002,-1.32 a21.34,21.34 0 0 1 1.51,3.4 h14.84 v3.4 H291.73349296569825 v2.44 h10.75 V36.46051025390625 h3.8600000000000003 zm-20.22,15 a68.37,68.37 0 0 1 -9.45,4.6 l-1.9300000000000002,-3 a59.51,59.51 0 0 0 9.45,-4.43 zM287.86349296569824,36.46051025390625 V34.24051025390625 h-9.74 V31.050510253906253 H287.86349296569824 V28.620510253906247 H275.52349296569827 V36.46051025390625 zm-1.8900000000000001,11.7 L283.86349296569824,51.060510253906244 A61.29,61.29 0 0 0 276.68349296569824,48.46051025390625 L278.86349296569824,45.54051025390625 A54.48,54.48 0 0 1 286.00349296569823,48.12051025390625 zM298.74349296569824,36.46051025390625 V34.24051025390625 h-7 V36.46051025390625 zm0,5.25 V39.37051025390625 h-7 v2.31 zm5.1,6.57 a32.11,32.11 0 0 1 -8.33,2.81 l-2,-3.11 A40.27,40.27 0 0 0 301.86349296569824,45.37051025390625 zm1.47,8.48 L302.86349296569824,59.310510253906244 A53.45,53.45 0 0 0 293.53349296569826,54.46051025390625 l2.1,-2.83 A52.42,52.42 0 0 1 305.31349296569823,56.730510253906246 z" id="svg_6"/></g></svg>