<svg xmlns="http://www.w3.org/2000/svg" data-name="圖層 1" width="40" height="40"><rect id="backgroundrect" width="100%" height="100%" x="0" y="0" fill="none" stroke="none" class="" style=""/><defs><style>.cls-1{fill:#942323;fill-rule:evenodd;}</style></defs><title>網站</title><g class="currentLayer" style=""><title>Layer 1</title><path class="cls-1" d="M15.78675651550293,14.534999694824222 V31.19499969482422 l5,-6 l7.77,0 L15.78675651550293,14.534999694824222 zm-2.18,-4.67 l20.92,17.56 l-12.76,0 L13.656756515502934,37.19499969482422 V9.874999694824226 zm1.09,-3.43 a5.77,5.77 0 0 1 5.76,5.76 a1,1 0 0 1 0,0.13 v0 l-2.18,-0.06000000000000003 V12.194999694824219 a3.58,3.58 0 1 0 -5.8100000000000005,2.81 l-1.35,1.7000000000000002 A5.76,5.76 0 0 1 14.78675651550293,6.444999694824219 zm0,-3.63 a9.38,9.38 0 0 1 8.84,12.53 l-2,-0.7300000000000003 a7.21,7.21 0 1 0 -9.32,4.35 l-0.7600000000000003,2 A9.39,9.39 0 0 1 14.78675651550293,2.8149996948242233 z" id="svg_1"/></g></svg>