<svg xmlns="http://www.w3.org/2000/svg" data-name="圖層 1" width="100" height="180"><rect id="backgroundrect" width="100%" height="100%" x="0" y="0" fill="none" stroke="none" class="" style=""/><defs><style>.cls-1{fill:#942323;stroke:#942323;stroke-miterlimit:10;}.cls-2{fill:#1e556d;}</style></defs><title>數字</title><g class="currentLayer" style=""><title>Layer 1</title><g class=""><path class="cls-1" d="M51.16701354980469,148.49566680908202 a31.62,31.62 0 0 1 -31.59,-31.59 a3.41,3.41 0 0 1 6.82,0 a24.76,24.76 0 1 0 49.53,0 V104.52566680908203 a3.41,3.41 0 0 1 6.82,0 v12.38 A31.62,31.62 0 0 1 51.16701354980469,148.49566680908202 z" id="svg_1"/><circle class="cls-2" cx="53.8070068359375" cy="69.16566467285156" r="14.260000228881836" id="svg_2"/><path class="cls-1" d="M54.58701354980468,106.12566680908202 A37.29,37.29 0 0 1 28.217013549804676,42.42566680908203 a3.41,3.41 0 0 1 4.82,4.82 A30.47,30.47 0 1 0 76.1270135498047,90.42566680908203 a3.41,3.41 0 1 1 4.82,4.82 A37,37 0 0 1 54.58701354980468,106.12566680908202 z" id="svg_3"/><path class="cls-1" d="M30.6270135498047,96.17566680908203 a3.4,3.4 0 0 1 -2.41,-1 A37.29,37.29 0 0 1 80.95701354980469,42.42566680908203 a3.41,3.41 0 0 1 -4.82,4.82 a30.47,30.47 0 0 0 -43.09,43.09 a3.41,3.41 0 0 1 -2.41,5.82 z" id="svg_4"/></g></g></svg>