<svg xmlns="http://www.w3.org/2000/svg" data-name="圖層 1" width="100" height="180"><rect id="backgroundrect" width="100%" height="100%" x="0" y="0" fill="none" stroke="none"/><defs><style>.cls-1{fill:#942323;stroke:#942323;stroke-miterlimit:10;}</style></defs><title>數字</title><g class="currentLayer" style=""><title>Layer 1</title><g class=""><path class="cls-1" d="M49.99999572753907,148.6549949645996 a32,32 0 1 1 32,-32 A32,32 0 0 1 49.99999572753907,148.6549949645996 zm0,-57.18 a25.18,25.18 0 1 0 25.18,25.18 A25.21,25.21 0 0 0 49.99999572753907,91.4749949645996 z" id="svg_1"/><path class="cls-1" d="M49.99999572753907,88.7049949645996 a28.68,28.68 0 1 1 28.68,-28.68 A28.72,28.72 0 0 1 49.99999572753907,88.7049949645996 zm0,-50.54 a21.86,21.86 0 1 0 21.86,21.86 A21.89,21.89 0 0 0 49.99999572753907,38.164994964599614 z" id="svg_2"/><path class="cls-1" d="M49.72999572753906,137.0649949645996 a3.41,3.41 0 0 1 0,-6.82 a14,14 0 0 0 14,-14 a3.41,3.41 0 0 1 6.82,0 A20.87,20.87 0 0 1 49.72999572753906,137.0649949645996 z" id="svg_3"/><path class="cls-1" d="M36.37999572753907,63.34499496459961 a3.41,3.41 0 0 1 -3.41,-3.41 A17.08,17.08 0 0 1 50.029995727539074,42.87499496459961 a3.41,3.41 0 0 1 0,6.82 a10.25,10.25 0 0 0 -10.23,10.23 A3.41,3.41 0 0 1 36.37999572753907,63.34499496459961 z" id="svg_4"/></g></g></svg>