<svg xmlns="http://www.w3.org/2000/svg" data-name="圖層 1" width="100" height="180"><rect id="backgroundrect" width="100%" height="100%" x="0" y="0" fill="none" stroke="none" class="" style=""/><defs><style>.cls-1{fill:#942323;stroke:#942323;stroke-miterlimit:10;}</style></defs><title>數字</title><g class="currentLayer" style=""><title>Layer 1</title><g class=""><path class="cls-1" d="M50.034984130859385,149.05637802124022 a31,31 0 0 1 -31,-31 V63.416378021240234 a31,31 0 1 1 61.93,0 v54.68 A31,31 0 0 1 50.034984130859385,149.05637802124022 zm0,-109.78 a24.17,24.17 0 0 0 -24.14,24.14 v54.68 a24.14,24.14 0 1 0 48.28,0 V63.416378021240234 A24.17,24.17 0 0 0 50.034984130859385,39.276378021240234 z" id="svg_1"/><path class="cls-1" d="M48.764984130859375,138.65637802124024 a3.41,3.41 0 0 1 0,-6.82 a14.94,14.94 0 0 0 14.92,-14.92 a3.41,3.41 0 1 1 6.82,0 A21.77,21.77 0 0 1 48.764984130859375,138.65637802124024 z" id="svg_2"/><path class="cls-1" d="M32.47498413085938,68.16637802124023 a3.41,3.41 0 0 1 -3.41,-3.41 A21.77,21.77 0 0 1 50.764984130859375,42.99637802124023 a3.41,3.41 0 1 1 0,6.82 a14.94,14.94 0 0 0 -14.92,14.92 A3.41,3.41 0 0 1 32.47498413085938,68.16637802124023 z" id="svg_3"/></g></g></svg>