<svg xmlns="http://www.w3.org/2000/svg" data-name="圖層 1" width="100" height="180"><rect id="backgroundrect" width="100%" height="100%" x="0" y="0" fill="none" stroke="none" class="" style=""/><defs><style>.cls-1{fill:#942323;stroke:#942323;stroke-miterlimit:10;}.cls-2{fill:#1e556d;}</style></defs><title>數字</title><g class="currentLayer" style=""><title>Layer 1</title><g class=""><path class="cls-1" d="M39.220091552734374,83.24000366210937 a3.46,3.46 0 0 1 -0.6900000000000004,-0.07 a26.2,26.2 0 0 1 -20.86,-25.59 V35.74000366210937 a3.41,3.41 0 0 1 3.41,-3.41 h56.05 a3.41,3.41 0 1 1 0,6.82 H24.500091552734375 V57.58000366210938 a19.35,19.35 0 0 0 15.4,18.9 a3.41,3.41 0 0 1 -0.6800000000000004,6.75 z" id="svg_1"/><ellipse class="cls-2" cx="48.620086669921875" cy="113.08000183105469" rx="13.649999618530273" ry="13.920000076293945" id="svg_2"/><path class="cls-1" d="M48.46009155273438,147.67000366210937 h-0.9 c-19.16,-0.51 -27.88,-14.66 -29.82,-22.06 a3.41,3.41 0 1 1 6.6,-1.7200000000000002 c0.18000000000000005,0.6600000000000003 4.67,16.46 23.4,17 a26.49,26.49 0 0 0 19.22,-7.62 a28.75,28.75 0 0 0 8.63,-20.49 a28.28,28.28 0 0 0 -18,-26.26 a3.41,3.41 0 0 1 2.45,-6.37 a35.14,35.14 0 0 1 22.33,32.63 A35.6,35.6 0 0 1 71.75009155273438,138.10000366210937 A33.16,33.16 0 0 1 48.46009155273438,147.67000366210937 z" id="svg_3"/></g></g></svg>