<svg xmlns="http://www.w3.org/2000/svg" data-name="圖層 1" width="100" height="180"><rect id="backgroundrect" width="100%" height="100%" x="0" y="0" fill="none" stroke="none" class="" style=""/><defs><style>.cls-1{fill:#942323;stroke:#942323;stroke-miterlimit:10;}</style></defs><title>數字</title><g class="currentLayer" style=""><title>Layer 1</title><g class=""><path class="cls-1" d="M50.27951293945313,148.4124984741211 a3.41,3.41 0 1 1 0,-6.82 a25.88,25.88 0 1 0 0,-51.76 a3.41,3.41 0 1 1 0,-6.82 a32.7,32.7 0 1 1 0,65.41 z" id="svg_1"/><path class="cls-1" d="M50.169512939453114,148.2724984741211 a32.74,32.74 0 0 1 -32.7,-32.7 a3.41,3.41 0 1 1 6.82,0 a25.88,25.88 0 0 0 51.76,0 a3.41,3.41 0 1 1 6.82,0 A32.74,32.74 0 0 1 50.169512939453114,148.2724984741211 z" id="svg_2"/><path class="cls-1" d="M78.98951293945314,67.6924984741211 a3.41,3.41 0 0 1 -3.41,-3.41 a25.88,25.88 0 0 0 -51.76,0 a3.41,3.41 0 0 1 -6.82,0 a32.7,32.7 0 0 1 65.41,0 A3.41,3.41 0 0 1 78.98951293945314,67.6924984741211 z" id="svg_3"/><path class="cls-1" d="M72.85951293945311,85.5324984741211 a3.41,3.41 0 0 1 -2.71,-5.48 A25.65,25.65 0 0 0 75.41951293945311,64.4124984741211 A25.91,25.91 0 0 0 49.53951293945312,38.51249847412109 a3.41,3.41 0 1 1 0,-6.82 A32.74,32.74 0 0 1 82.23951293945314,64.4124984741211 a32.4,32.4 0 0 1 -6.67,19.79 A3.41,3.41 0 0 1 72.85951293945311,85.5324984741211 z" id="svg_4"/><path class="cls-1" d="M65.49951293945313,65.8924984741211 a3.41,3.41 0 0 1 -3.41,-3.41 a10.25,10.25 0 0 0 -10.23,-10.23 a3.41,3.41 0 0 1 0,-6.82 a17.08,17.08 0 0 1 17.06,17.06 A3.41,3.41 0 0 1 65.49951293945313,65.8924984741211 z" id="svg_5"/></g></g></svg>