<svg xmlns="http://www.w3.org/2000/svg" data-name="圖層 1" width="100" height="180"><rect id="backgroundrect" width="100%" height="100%" x="0" y="0" fill="none" stroke="none" class="" style=""/><defs><style>.cls-1{fill:#942323;stroke:#942323;stroke-miterlimit:10;}.cls-2{fill:#1e556d;}</style></defs><title>數字</title><g class="currentLayer" style=""><title>Layer 1</title><g class=""><path class="cls-1" d="M48.514232177734385,148.820362701416 a31.07,31.07 0 0 1 -31,-31 V62.930362701416016 a31,31 0 0 1 61.91,-3.16 a3.41,3.41 0 0 1 -6.79,0.6900000000000004 A24.21,24.21 0 0 0 24.304232177734377,62.930362701416016 v54.82 a24.24,24.24 0 0 0 24.21,24.21 a3.41,3.41 0 0 1 0,6.82 z" id="svg_1"/><path class="cls-1" d="M50.004232177734366,149.11036270141602 a32.56,32.56 0 0 1 -32.53,-32.53 a3.41,3.41 0 1 1 6.82,0 a25.69,25.69 0 1 0 12.73,-22.19 a3.41,3.41 0 0 1 -3.45,-5.8900000000000015 a32.53,32.53 0 1 1 16.43,60.61 z" id="svg_2"/><circle class="cls-2" cx="50.04423522949219" cy="116.65036392211914" r="14.260000228881836" id="svg_3"/></g></g></svg>