<svg xmlns="http://www.w3.org/2000/svg" data-name="圖層 1" width="100" height="181"><rect id="backgroundrect" width="100%" height="100%" x="0" y="0" fill="none" stroke="none" class="" style=""/><defs><style>.cls-1{fill:#942323;stroke:#942323;stroke-miterlimit:10;}.cls-2{fill:#1e556d;}</style></defs><title>數字</title><g class="currentLayer" style=""><title>Layer 1</title><g class=""><path class="cls-1" d="M79.76165771484375,148.18680740356444 H23.76165771484375 a3.41,3.41 0 0 1 -3.41,-3.41 V122.92680740356445 a26.15,26.15 0 0 1 26.12,-26.12 a3.41,3.41 0 0 1 0,6.82 A19.32,19.32 0 0 0 27.161657714843756,122.92680740356445 v18.42 H79.76165771484375 a3.41,3.41 0 1 1 0,6.82 z" id="svg_1"/><circle class="cls-2" cx="49.22166442871094" cy="69.22681045532227" r="14.530000686645508" id="svg_2"/><path class="cls-1" d="M47.401657714843736,103.65680740356444 a3.41,3.41 0 1 1 0,-6.82 a28.61,28.61 0 0 0 28.57,-28.57 a29.13,29.13 0 0 0 -8.76,-20.77 a27.25,27.25 0 0 0 -19.72,-7.8100000000000005 C28.321657714843752,40.19680740356445 23.76165771484375,56.27680740356445 23.54165771484375,56.92680740356445 a3.41,3.41 0 0 1 -6.6,-1.75 c2,-7.5 10.85,-21.83 30.36,-22.35 a33.7,33.7 0 0 1 24.67,9.74 A36,36 0 0 1 82.76165771484375,68.25680740356445 A35.44,35.44 0 0 1 47.401657714843736,103.65680740356444 z" id="svg_3"/></g></g></svg>