<svg xmlns="http://www.w3.org/2000/svg" data-name="圖層 1" width="100" height="180"><rect id="backgroundrect" width="100%" height="100%" x="0" y="0" fill="none" stroke="none" class="" style=""/><defs><style>.cls-1{fill:#942323;stroke:#942323;stroke-miterlimit:10;}</style></defs><title>數字</title><g class="currentLayer" style=""><title>Layer 1</title><g class=""><path class="cls-1" d="M34.46998046875001,67.01999603271484 a3.44,3.44 0 0 1 -3.44,-3.44 a17.92,17.92 0 0 1 17.9,-17.9 a3.44,3.44 0 0 1 0,6.87 a11,11 0 0 0 -11,11 A3.44,3.44 0 0 1 34.46998046875001,67.01999603271484 z" id="svg_1"/><path class="cls-1" d="M67.50998046875,148.97999603271484 a3.44,3.44 0 0 1 -2.06,-6.19 a26.07,26.07 0 0 0 10.46,-20.76 V63.799996032714844 a25.91,25.91 0 1 0 -51.82,0 v17.23 a3.44,3.44 0 0 1 -6.87,0 V63.799996032714844 a32.78,32.78 0 1 1 65.56,0 v58.24 a33,33 0 0 1 -13.22,26.26 A3.41,3.41 0 0 1 67.50998046875,148.97999603271484 z" id="svg_2"/></g></g></svg>