<svg xmlns="http://www.w3.org/2000/svg" data-name="圖層 1" width="100" height="180"><rect id="backgroundrect" width="100%" height="100%" x="0" y="0" fill="none" stroke="none" class="" style=""/><defs><style>.cls-1{fill:#1e556d;}.cls-2{fill:#942323;stroke:#942323;stroke-miterlimit:10;}</style></defs><title>數字</title><g class="currentLayer" style=""><title>Layer 1</title><g class=""><circle class="cls-1" cx="37.899993896484375" cy="78.52764892578125" r="11.369999885559082" id="svg_1"/><path class="cls-2" d="M19.659990234374987,69.66764617919922 a3.41,3.41 0 0 1 -3.41,-3.41 a26.18,26.18 0 0 1 26.15,-26.15 a3.41,3.41 0 0 1 0,6.82 a19.35,19.35 0 0 0 -19.33,19.33 A3.41,3.41 0 0 1 19.659990234374987,69.66764617919922 z" id="svg_2"/><path class="cls-2" d="M60.329990234375,148.0776461791992 a3.41,3.41 0 0 1 -3.41,-3.41 V35.32764617919922 a3.41,3.41 0 0 1 6.82,0 V144.6676461791992 A3.41,3.41 0 0 1 60.329990234375,148.0776461791992 z" id="svg_3"/><path class="cls-2" d="M80.489990234375,112.25764617919921 H37.849990234375014 a21.77,21.77 0 0 1 -21.75,-21.75 a3.41,3.41 0 1 1 6.82,0 A14.94,14.94 0 0 0 37.849990234375014,105.40764617919922 h42.64 a3.41,3.41 0 0 1 0,6.82 z" id="svg_4"/></g></g></svg>