<svg id="圖層_1" data-name="圖層 1" xmlns="http://www.w3.org/2000/svg" viewBox="0 0 4000 4000">
  <defs>
    <style>
      .cls-1 {
        opacity: 0.71;
      }

      .cls-2 {
        fill: #dd4a43;
      }
    </style>
  </defs>
  <title>首頁紅</title>
  <g class="cls-1">
    <path class="cls-2" d="M3500.79,1835.51,2107.27,565.75a158.54,158.54,0,0,0-214.54,0L499.2,1835.52a159.27,159.27,0,0,0,107.28,277H829.05V3384.72a91.35,91.35,0,0,0,91.34,91.34h763.82a91.34,91.34,0,0,0,91.34-91.34V2612.27h448.91v772.45a91.35,91.35,0,0,0,91.34,91.34h763.78a91.34,91.34,0,0,0,91.34-91.34V2112.51h222.61a159.27,159.27,0,0,0,107.26-277Z"/>
    <path class="cls-2" d="M3238.41,1347.07V797.6a91.34,91.34,0,0,0-91.34-91.34H2533.66l704.75,640.81Z"/>
  </g>
</svg>
