<svg xmlns="http://www.w3.org/2000/svg" viewBox="0 0 837 547.69">
  <defs>
    <style>
      .cls-1 {
        fill: #1e3373;
      }

      .cls-2, .cls-4, .cls-6 {
        fill: #dd4a43;
      }

      .cls-3, .cls-5 {
        fill: #1e5eaa;
      }

      .cls-4, .cls-5 {
        opacity: 0.4;
      }

      .cls-6 {
        font-size: 33.23px;
        font-family: GenYoGothicTW-Bold-TTF, GenYoGothic TW TTF;
        font-weight: 700;
        letter-spacing: 0.5em;
      }

      .cls-7 {
        fill: #fff;
      }
    </style>
  </defs>
  <title>首頁logo</title>
  <g id="圖層_2" data-name="圖層 2">
    <g id="圖層_4" data-name="圖層 4">
      <g>
        <path class="cls-1" d="M487.55,484.85a13.3,13.3,0,1,1,0,26.59H403.94c-1.3,0-1.94.56-1.94,1.69v17.4a14.43,14.43,0,0,1-14.25,14.25h-1.7a14.43,14.43,0,0,1-14.25-14.25v-17.4a1.5,1.5,0,0,0-1.69-1.69H289.39a13.3,13.3,0,1,1,0-26.59h80.72a1.5,1.5,0,0,0,1.69-1.69V473.5c0-1.29-.57-1.94-1.69-1.94H315a14.43,14.43,0,0,1-14.26-14.25V386.5A14.45,14.45,0,0,1,315,372.24h55.1a1.5,1.5,0,0,0,1.69-1.69v-8.21c0-1.29-.57-1.94-1.69-1.94H295.43a13.29,13.29,0,1,1,0-26.58h74.68c1.12,0,1.69-.64,1.69-1.93V328a14.43,14.43,0,0,1,14.25-14.25h1.7A14.43,14.43,0,0,1,402,328v3.87a1.71,1.71,0,0,0,1.94,1.93H480.3a13.29,13.29,0,1,1,0,26.58H403.94a1.71,1.71,0,0,0-1.94,1.94v8.21c0,1.13.64,1.69,1.94,1.69h56.78A14.45,14.45,0,0,1,475,386.5v70.81a14.43,14.43,0,0,1-14.26,14.25H403.94A1.71,1.71,0,0,0,402,473.5v9.66c0,1.13.64,1.69,1.94,1.69ZM330.47,395.93a1.49,1.49,0,0,0-1.69,1.69v11.6a1.49,1.49,0,0,0,1.69,1.69h39.64a1.5,1.5,0,0,0,1.69-1.69v-11.6a1.5,1.5,0,0,0-1.69-1.69Zm-1.69,50.5a1.49,1.49,0,0,0,1.69,1.69h39.64a1.5,1.5,0,0,0,1.69-1.69v-11.6c0-1.29-.57-1.93-1.69-1.93H330.47c-1.13,0-1.69.64-1.69,1.93ZM445.5,397.62c0-1.13-.65-1.69-1.93-1.69H403.94c-1.3,0-1.94.56-1.94,1.69v11.6c0,1.13.64,1.69,1.94,1.69h39.63c1.28,0,1.93-.56,1.93-1.69Zm-1.93,50.5c1.28,0,1.93-.56,1.93-1.69v-11.6a1.71,1.71,0,0,0-1.93-1.93H403.94a1.71,1.71,0,0,0-1.94,1.93v11.6c0,1.13.64,1.69,1.94,1.69Z"/>
        <path class="cls-1" d="M769.32,338.9a10.65,10.65,0,0,1,7.61,3.14,10.18,10.18,0,0,1,3.26,7.61,10.57,10.57,0,0,1-3.26,7.73,10.42,10.42,0,0,1-7.61,3.27h-29a.77.77,0,0,0-.73.48,1,1,0,0,0,0,1,74,74,0,0,1,4.35,6.28,11.81,11.81,0,0,1,1,10.15,12.31,12.31,0,0,1-7.49,7.73l-4.84,1.93a.22.22,0,0,0-.24.25c0,.16.16.24.49.24h26.58a13.62,13.62,0,0,1,10.15,4.23,13.89,13.89,0,0,1,4.11,10v88q0,10.88-2.42,16.67t-9.43,8.94q-8,3.87-25.37,4.59H736a15.7,15.7,0,0,1-10.39-3.86,20.29,20.29,0,0,1-6.77-9.91,9.7,9.7,0,0,1-.48-3.14,9.29,9.29,0,0,1,1.93-5.56,8.43,8.43,0,0,1,7.49-4.11h13q2.9,0,3.87-.84t1-3.27v-73c0-1.28-.56-1.93-1.69-1.93h-35c-1.13,0-1.69.65-1.69,1.93v116a13.09,13.09,0,0,1-4.11,9.78,13.56,13.56,0,0,1-9.78,4,13.62,13.62,0,0,1-13.66-13.77V402.93a14.45,14.45,0,0,1,14.26-14.25h28.76a1,1,0,0,0,1-.49,1,1,0,0,0,0-1,135.93,135.93,0,0,0-15.22-25.13,3.25,3.25,0,0,0-2.9-1.45h-6.28a3,3,0,0,0-2.66,1.45,164.24,164.24,0,0,1-11.84,15.46,14,14,0,0,1-9.91,5.08h-1.45a16.12,16.12,0,0,1-9.67-3.15A2.56,2.56,0,0,1,663,379a10.84,10.84,0,0,1-4.83-9.42,11,11,0,0,1,3.14-7.74.47.47,0,0,0,.24-.72.77.77,0,0,0-.73-.48h-30.2a1.27,1.27,0,0,0-1.09.48.67.67,0,0,0,.12,1c.81,1.61,1.53,3.14,2.18,4.59a12.92,12.92,0,0,1,1.45,5.8,15.54,15.54,0,0,1-1,5.31,16,16,0,0,1-8,8L619.25,388a.71.71,0,0,0-.24.49q0,.24.48.24h31.17a14.45,14.45,0,0,1,14.26,14.25v59.45a14.45,14.45,0,0,1-14.26,14.26h-51c-1.3,0-1.94.57-1.94,1.69v29.72c0,1.13.64,1.61,1.94,1.45l29-4.35a1.5,1.5,0,0,0,.73-.72,1.57,1.57,0,0,0,0-1.21,51.32,51.32,0,0,0-3.38-4.59,10.66,10.66,0,0,1-1.94-6,16.39,16.39,0,0,1,.24-2.66,9.56,9.56,0,0,1,5.56-6.77,15.6,15.6,0,0,1,7-1.69,16.95,16.95,0,0,1,12.57,6,209.49,209.49,0,0,1,20.29,31.66,12.83,12.83,0,0,1,1.45,5.8,11.24,11.24,0,0,1-1,4.59,13.15,13.15,0,0,1-7.25,8,11,11,0,0,1-5.32,1.45,12.43,12.43,0,0,1-4.59-1,13.54,13.54,0,0,1-7.25-6.77c-.32-.64-.64-1.29-1-1.93a2.28,2.28,0,0,0-2.65-1.45q-9.19,1.68-71.53,11.6a11.4,11.4,0,0,1-2.18.24,13.7,13.7,0,0,1-7.73-2.42,12.88,12.88,0,0,1-5.32-8.45,12.41,12.41,0,0,1-.24-2.42,11.48,11.48,0,0,1,2.66-7.25,12,12,0,0,1,8.46-5.08,13.13,13.13,0,0,1,2.41-.24c1.13-.15,1.7-.88,1.7-2.17V402.93a14.43,14.43,0,0,1,14.25-14.25h26.1a1.26,1.26,0,0,0,1.09-.49A1.24,1.24,0,0,0,612,387a127.11,127.11,0,0,0-11.6-25.38,2.43,2.43,0,0,0-3.87,0q-5.55,8.46-11.6,16.19a13.9,13.9,0,0,1-9.9,5.08,7.2,7.2,0,0,1-1.69.24,14.78,14.78,0,0,1-9.19-3.14h-.24a11.25,11.25,0,0,1-5.07-8.22v-1.69a11.51,11.51,0,0,1,2.9-7.73A141.18,141.18,0,0,0,583,330a17,17,0,0,1,8.22-8.22,15.57,15.57,0,0,1,7-1.69,19.09,19.09,0,0,1,4.1.48,11.77,11.77,0,0,1,8,16.68.79.79,0,0,0-.12,1.08,1.17,1.17,0,0,0,1.08.61h39.39a13.93,13.93,0,0,1,10,4.1,13.62,13.62,0,0,1,4.23,10.15v3.15a.55.55,0,0,0,.36.6,1.12,1.12,0,0,0,.85-.12,142.62,142.62,0,0,0,17.16-26.58,18.09,18.09,0,0,1,8.21-8.46,16.2,16.2,0,0,1,11.12-1.21,12.63,12.63,0,0,1,8.22,6.28,12.5,12.5,0,0,1,.24,10.15l-.24.25a1,1,0,0,0,.12,1.08,1.17,1.17,0,0,0,1.08.61ZM635.44,421.78a1.7,1.7,0,0,0,1.93-1.93V412.6c0-1.12-.64-1.69-1.93-1.69H599.68c-1.3,0-1.94.57-1.94,1.69v7.25a1.71,1.71,0,0,0,1.94,1.93Zm-37.7,30.94a1.71,1.71,0,0,0,1.94,1.93h35.76a1.7,1.7,0,0,0,1.93-1.93V444.5c0-1.13-.64-1.69-1.93-1.69H599.68c-1.3,0-1.94.56-1.94,1.69Z"/>
        <g>
          <g>
            <path class="cls-1" d="M48.67,313.77a48.67,48.67,0,1,0,48.68,48.67A48.67,48.67,0,0,0,48.67,313.77Zm0,79.48a30.81,30.81,0,1,1,30.81-30.81A30.81,30.81,0,0,1,48.67,393.25Z"/>
            <path class="cls-1" d="M169.81,313.77a48.67,48.67,0,1,0,48.67,48.67A48.68,48.68,0,0,0,169.81,313.77Zm0,79.48a30.81,30.81,0,1,1,30.81-30.81A30.8,30.8,0,0,1,169.81,393.25Z"/>
            <g>
              <line class="cls-1" x1="84.37" y1="339.14" x2="135.12" y2="339.14"/>
              <rect class="cls-1" x="84.38" y="333.84" width="50.74" height="10.6"/>
            </g>
          </g>
          <path class="cls-1" d="M92.72,375.55l-9.28-5.13c4.29-7.76,13.11-12.58,24.21-13.21,11.67-.67,22.44,3.39,27.39,10.35l-8.63,6.15c-2.76-3.87-10.4-6.36-18.16-5.92C101,368.21,95.17,371.11,92.72,375.55Z"/>
          <path class="cls-1" d="M195.39,504.91a10.12,10.12,0,0,0-7.32-2.93H122a1.39,1.39,0,0,1-1.57-1.57V493a1.38,1.38,0,0,1,1.57-1.56h47.47a11.27,11.27,0,0,0,8.11-3.32A11,11,0,0,0,181,479.9v-52a11.68,11.68,0,0,0-11.53-11.52H50.73a11,11,0,0,0-8.2,3.42,11.22,11.22,0,0,0-3.33,8.1v52a11.36,11.36,0,0,0,11.53,11.53h44c.91,0,1.36.52,1.36,1.56v7.42c0,1-.45,1.57-1.36,1.57H30.41a10.12,10.12,0,0,0-7.32,2.93,9.54,9.54,0,0,0-3,7.13,9.83,9.83,0,0,0,3,7.22,9.93,9.93,0,0,0,7.32,3H94.69c.91,0,1.36.52,1.36,1.57v12.3a11,11,0,0,0,3.42,8.21,11.26,11.26,0,0,0,8.11,3.32H109a11.34,11.34,0,0,0,11.52-11.53v-12.3a1.39,1.39,0,0,1,1.57-1.57h66a9.93,9.93,0,0,0,7.32-3,9.83,9.83,0,0,0,3-7.22A9.54,9.54,0,0,0,195.39,504.91Zm-74.92-68.58c0-.9.52-1.36,1.57-1.36h33c1,0,1.57.46,1.57,1.36V444a1.39,1.39,0,0,1-1.57,1.57H122a1.39,1.39,0,0,1-1.57-1.57Zm0,27.55c0-.91.52-1.37,1.57-1.37h33c1,0,1.57.46,1.57,1.37v8c0,.91-.53,1.37-1.57,1.37H122c-1.05,0-1.57-.46-1.57-1.37Zm-24.42,8a1.21,1.21,0,0,1-1.36,1.37H63.82c-1,0-1.56-.46-1.56-1.37v-8c0-.91.52-1.37,1.56-1.37H94.69a1.21,1.21,0,0,1,1.36,1.37Zm0-27.94c0,1.05-.45,1.57-1.36,1.57H63.82A1.38,1.38,0,0,1,62.26,444v-7.62c0-.9.52-1.36,1.56-1.36H94.69a1.2,1.2,0,0,1,1.36,1.36Z"/>
        </g>
      </g>
      <path class="cls-1" d="M487.55,484.85a13.3,13.3,0,1,1,0,26.59H403.94c-1.3,0-1.94.56-1.94,1.69v17.4a14.43,14.43,0,0,1-14.25,14.25h-1.7a14.43,14.43,0,0,1-14.25-14.25v-17.4a1.5,1.5,0,0,0-1.69-1.69H289.39a13.3,13.3,0,1,1,0-26.59h80.72a1.5,1.5,0,0,0,1.69-1.69V473.5c0-1.29-.57-1.94-1.69-1.94H315a14.43,14.43,0,0,1-14.26-14.25V386.5A14.45,14.45,0,0,1,315,372.24h55.1a1.5,1.5,0,0,0,1.69-1.69v-8.21c0-1.29-.57-1.94-1.69-1.94H295.43a13.29,13.29,0,1,1,0-26.58h74.68c1.12,0,1.69-.64,1.69-1.93V328a14.43,14.43,0,0,1,14.25-14.25h1.7A14.43,14.43,0,0,1,402,328v3.87a1.71,1.71,0,0,0,1.94,1.93H480.3a13.29,13.29,0,1,1,0,26.58H403.94a1.71,1.71,0,0,0-1.94,1.94v8.21c0,1.13.64,1.69,1.94,1.69h56.78A14.45,14.45,0,0,1,475,386.5v70.81a14.43,14.43,0,0,1-14.26,14.25H403.94A1.71,1.71,0,0,0,402,473.5v9.66c0,1.13.64,1.69,1.94,1.69ZM330.47,395.93a1.49,1.49,0,0,0-1.69,1.69v11.6a1.49,1.49,0,0,0,1.69,1.69h39.64a1.5,1.5,0,0,0,1.69-1.69v-11.6a1.5,1.5,0,0,0-1.69-1.69Zm-1.69,50.5a1.49,1.49,0,0,0,1.69,1.69h39.64a1.5,1.5,0,0,0,1.69-1.69v-11.6c0-1.29-.57-1.93-1.69-1.93H330.47c-1.13,0-1.69.64-1.69,1.93ZM445.5,397.62c0-1.13-.65-1.69-1.93-1.69H403.94c-1.3,0-1.94.56-1.94,1.69v11.6c0,1.13.64,1.69,1.94,1.69h39.63c1.28,0,1.93-.56,1.93-1.69Zm-1.93,50.5c1.28,0,1.93-.56,1.93-1.69v-11.6a1.71,1.71,0,0,0-1.93-1.93H403.94a1.71,1.71,0,0,0-1.94,1.93v11.6c0,1.13.64,1.69,1.94,1.69Z"/>
      <path class="cls-1" d="M769.32,338.9a10.65,10.65,0,0,1,7.61,3.14,10.18,10.18,0,0,1,3.26,7.61,10.57,10.57,0,0,1-3.26,7.73,10.42,10.42,0,0,1-7.61,3.27h-29a.77.77,0,0,0-.73.48,1,1,0,0,0,0,1,74,74,0,0,1,4.35,6.28,11.81,11.81,0,0,1,1,10.15,12.31,12.31,0,0,1-7.49,7.73l-4.84,1.93a.22.22,0,0,0-.24.25c0,.16.16.24.49.24h26.58a13.62,13.62,0,0,1,10.15,4.23,13.89,13.89,0,0,1,4.11,10v88q0,10.88-2.42,16.67t-9.43,8.94q-8,3.87-25.37,4.59H736a15.7,15.7,0,0,1-10.39-3.86,20.29,20.29,0,0,1-6.77-9.91,9.7,9.7,0,0,1-.48-3.14,9.29,9.29,0,0,1,1.93-5.56,8.43,8.43,0,0,1,7.49-4.11h13q2.9,0,3.87-.84t1-3.27v-73c0-1.28-.56-1.93-1.69-1.93h-35c-1.13,0-1.69.65-1.69,1.93v116a13.09,13.09,0,0,1-4.11,9.78,13.56,13.56,0,0,1-9.78,4,13.62,13.62,0,0,1-13.66-13.77V402.93a14.45,14.45,0,0,1,14.26-14.25h28.76a1,1,0,0,0,1-.49,1,1,0,0,0,0-1,135.93,135.93,0,0,0-15.22-25.13,3.25,3.25,0,0,0-2.9-1.45h-6.28a3,3,0,0,0-2.66,1.45,164.24,164.24,0,0,1-11.84,15.46,14,14,0,0,1-9.91,5.08h-1.45a16.12,16.12,0,0,1-9.67-3.15A2.56,2.56,0,0,1,663,379a10.84,10.84,0,0,1-4.83-9.42,11,11,0,0,1,3.14-7.74.47.47,0,0,0,.24-.72.77.77,0,0,0-.73-.48h-30.2a1.27,1.27,0,0,0-1.09.48.67.67,0,0,0,.12,1c.81,1.61,1.53,3.14,2.18,4.59a12.92,12.92,0,0,1,1.45,5.8,15.54,15.54,0,0,1-1,5.31,16,16,0,0,1-8,8L619.25,388a.71.71,0,0,0-.24.49q0,.24.48.24h31.17a14.45,14.45,0,0,1,14.26,14.25v59.45a14.45,14.45,0,0,1-14.26,14.26h-51c-1.3,0-1.94.57-1.94,1.69v29.72c0,1.13.64,1.61,1.94,1.45l29-4.35a1.5,1.5,0,0,0,.73-.72,1.57,1.57,0,0,0,0-1.21,51.32,51.32,0,0,0-3.38-4.59,10.66,10.66,0,0,1-1.94-6,16.39,16.39,0,0,1,.24-2.66,9.56,9.56,0,0,1,5.56-6.77,15.6,15.6,0,0,1,7-1.69,16.95,16.95,0,0,1,12.57,6,209.49,209.49,0,0,1,20.29,31.66,12.83,12.83,0,0,1,1.45,5.8,11.24,11.24,0,0,1-1,4.59,13.15,13.15,0,0,1-7.25,8,11,11,0,0,1-5.32,1.45,12.43,12.43,0,0,1-4.59-1,13.54,13.54,0,0,1-7.25-6.77c-.32-.64-.64-1.29-1-1.93a2.28,2.28,0,0,0-2.65-1.45q-9.19,1.68-71.53,11.6a11.4,11.4,0,0,1-2.18.24,13.7,13.7,0,0,1-7.73-2.42,12.88,12.88,0,0,1-5.32-8.45,12.41,12.41,0,0,1-.24-2.42,11.48,11.48,0,0,1,2.66-7.25,12,12,0,0,1,8.46-5.08,13.13,13.13,0,0,1,2.41-.24c1.13-.15,1.7-.88,1.7-2.17V402.93a14.43,14.43,0,0,1,14.25-14.25h26.1a1.26,1.26,0,0,0,1.09-.49A1.24,1.24,0,0,0,612,387a127.11,127.11,0,0,0-11.6-25.38,2.43,2.43,0,0,0-3.87,0q-5.55,8.46-11.6,16.19a13.9,13.9,0,0,1-9.9,5.08,7.2,7.2,0,0,1-1.69.24,14.78,14.78,0,0,1-9.19-3.14h-.24a11.25,11.25,0,0,1-5.07-8.22v-1.69a11.51,11.51,0,0,1,2.9-7.73A141.18,141.18,0,0,0,583,330a17,17,0,0,1,8.22-8.22,15.57,15.57,0,0,1,7-1.69,19.09,19.09,0,0,1,4.1.48,11.77,11.77,0,0,1,8,16.68.79.79,0,0,0-.12,1.08,1.17,1.17,0,0,0,1.08.61h39.39a13.93,13.93,0,0,1,10,4.1,13.62,13.62,0,0,1,4.23,10.15v3.15a.55.55,0,0,0,.36.6,1.12,1.12,0,0,0,.85-.12,142.62,142.62,0,0,0,17.16-26.58,18.09,18.09,0,0,1,8.21-8.46,16.2,16.2,0,0,1,11.12-1.21,12.63,12.63,0,0,1,8.22,6.28,12.5,12.5,0,0,1,.24,10.15l-.24.25a1,1,0,0,0,.12,1.08,1.17,1.17,0,0,0,1.08.61ZM635.44,421.78a1.7,1.7,0,0,0,1.93-1.93V412.6c0-1.12-.64-1.69-1.93-1.69H599.68c-1.3,0-1.94.57-1.94,1.69v7.25a1.71,1.71,0,0,0,1.94,1.93Zm-37.7,30.94a1.71,1.71,0,0,0,1.94,1.93h35.76a1.7,1.7,0,0,0,1.93-1.93V444.5c0-1.13-.64-1.69-1.93-1.69H599.68c-1.3,0-1.94.56-1.94,1.69Z"/>
      <g>
        <g>
          <path class="cls-1" d="M48.67,313.77a48.67,48.67,0,1,0,48.68,48.67A48.67,48.67,0,0,0,48.67,313.77Zm0,79.48a30.81,30.81,0,1,1,30.81-30.81A30.81,30.81,0,0,1,48.67,393.25Z"/>
          <path class="cls-1" d="M169.81,313.77a48.67,48.67,0,1,0,48.67,48.67A48.68,48.68,0,0,0,169.81,313.77Zm0,79.48a30.81,30.81,0,1,1,30.81-30.81A30.8,30.8,0,0,1,169.81,393.25Z"/>
          <g>
            <line class="cls-1" x1="84.37" y1="339.14" x2="135.12" y2="339.14"/>
            <rect class="cls-1" x="84.38" y="333.84" width="50.74" height="10.6"/>
          </g>
        </g>
        <path class="cls-1" d="M92.72,375.55l-9.28-5.13c4.29-7.76,13.11-12.58,24.21-13.21,11.67-.67,22.44,3.39,27.39,10.35l-8.63,6.15c-2.76-3.87-10.4-6.36-18.16-5.92C101,368.21,95.17,371.11,92.72,375.55Z"/>
        <path class="cls-1" d="M195.39,504.91a10.12,10.12,0,0,0-7.32-2.93H122a1.39,1.39,0,0,1-1.57-1.57V493a1.38,1.38,0,0,1,1.57-1.56h47.47a11.27,11.27,0,0,0,8.11-3.32A11,11,0,0,0,181,479.9v-52a11.68,11.68,0,0,0-11.53-11.52H50.73a11,11,0,0,0-8.2,3.42,11.22,11.22,0,0,0-3.33,8.1v52a11.36,11.36,0,0,0,11.53,11.53h44c.91,0,1.36.52,1.36,1.56v7.42c0,1-.45,1.57-1.36,1.57H30.41a10.12,10.12,0,0,0-7.32,2.93,9.54,9.54,0,0,0-3,7.13,9.83,9.83,0,0,0,3,7.22,9.93,9.93,0,0,0,7.32,3H94.69c.91,0,1.36.52,1.36,1.57v12.3a11,11,0,0,0,3.42,8.21,11.26,11.26,0,0,0,8.11,3.32H109a11.34,11.34,0,0,0,11.52-11.53v-12.3a1.39,1.39,0,0,1,1.57-1.57h66a9.93,9.93,0,0,0,7.32-3,9.83,9.83,0,0,0,3-7.22A9.54,9.54,0,0,0,195.39,504.91Zm-74.92-68.58c0-.9.52-1.36,1.57-1.36h33c1,0,1.57.46,1.57,1.36V444a1.39,1.39,0,0,1-1.57,1.57H122a1.39,1.39,0,0,1-1.57-1.57Zm0,27.55c0-.91.52-1.37,1.57-1.37h33c1,0,1.57.46,1.57,1.37v8c0,.91-.53,1.37-1.57,1.37H122c-1.05,0-1.57-.46-1.57-1.37Zm-24.42,8a1.21,1.21,0,0,1-1.36,1.37H63.82c-1,0-1.56-.46-1.56-1.37v-8c0-.91.52-1.37,1.56-1.37H94.69a1.21,1.21,0,0,1,1.36,1.37Zm0-27.94c0,1.05-.45,1.57-1.36,1.57H63.82A1.38,1.38,0,0,1,62.26,444v-7.62c0-.9.52-1.36,1.56-1.36H94.69a1.2,1.2,0,0,1,1.36,1.36Z"/>
      </g>
      <path class="cls-1" d="M167.8,85.34a12.09,12.09,0,0,1,5.85-6.83,10.62,10.62,0,0,1,5.85-1.75,12.13,12.13,0,0,1,2.93.39l1.36.39a10.1,10.1,0,0,1,6.83,5.26A9.55,9.55,0,0,1,192,87.68a11,11,0,0,1-.58,3.51,226.09,226.09,0,0,1-29.84,56.36,2.91,2.91,0,0,0-.39,2.53q9,21.45,18.14,21.45,5.66,0,7.6-23.4a5.24,5.24,0,0,1,3.32-4.87,6.46,6.46,0,0,1,2.53-.59,5.7,5.7,0,0,1,3.51,1.17l1.17.78a21.24,21.24,0,0,1,7,7.41,13.63,13.63,0,0,1,1.95,7,14.2,14.2,0,0,1-.19,2.34q-3.12,19.89-9.65,27.11t-19.21,7.21q-19.31,0-33.15-25.15c-.52-.78-1.11-.85-1.76-.2a173.85,173.85,0,0,1-23,19.7,11.5,11.5,0,0,1-6.63,2.14,11.75,11.75,0,0,1-2.14-.19,12.77,12.77,0,0,1-8-4.49c-.65-.78-1.36-1.56-2.14-2.34a9.06,9.06,0,0,1-2.34-6v-1.37a9.52,9.52,0,0,1,4.29-6.82,150.62,150.62,0,0,0,29.83-25.35,2.23,2.23,0,0,0,.59-2.34q-9-31-13.26-77.62a1.38,1.38,0,0,0-1.56-1.56h-55c-.91,0-1.37.52-1.37,1.56V84c0,1,.46,1.56,1.37,1.56H99.55a10.93,10.93,0,0,1,8,3.32,11.28,11.28,0,0,1,3.12,8q0,26.32-1.76,45.25-1.17,13.65-4.48,17.94-4.68,6.43-13.85,8a83.58,83.58,0,0,1-11.5.59,12.68,12.68,0,0,1-8.39-3.12,16.86,16.86,0,0,1-5.07-8.19.6.6,0,0,0-.19-.39,14.22,14.22,0,0,1-.2-2.34,8.25,8.25,0,0,1,1.37-4.49A6.56,6.56,0,0,1,72.25,147h.2q3.51.19,5.85.2,4.1,0,5.85-2.34,2.52-3.7,3.51-36.08a1.38,1.38,0,0,0-1.56-1.56h-23c-.91,0-1.44.52-1.56,1.56Q60,160.8,45.93,189.67a7.42,7.42,0,0,1-6.24,4.48,6.48,6.48,0,0,1-1.56.2,8.92,8.92,0,0,1-6.24-2.54,27.35,27.35,0,0,1-2.34-1.75,13.65,13.65,0,0,1-4.88-7.61,16.14,16.14,0,0,1-.39-3.51,15.17,15.17,0,0,1,1.17-5.65q11.31-25.15,11.31-74.5V52a11.19,11.19,0,0,1,3.32-8.09,11,11,0,0,1,8.19-3.41h68.44a1.21,1.21,0,0,0,1.37-1.37q-.58-14.43-.59-17a10.64,10.64,0,0,1,3.32-7.8,10.89,10.89,0,0,1,8-3.32h1.95a11.34,11.34,0,0,1,11.51,11.51q0,7.61.39,16.57c0,.91.52,1.37,1.56,1.37H171.9c.13,0,.26-.1.39-.29s.06-.36-.2-.49A166.71,166.71,0,0,0,156.3,28.59a7.79,7.79,0,0,1-3.71-6v-1a7.5,7.5,0,0,1,2.34-5.46,12.36,12.36,0,0,1,7.61-3.9,10.74,10.74,0,0,1,2-.19,12.25,12.25,0,0,1,6.43,1.75q8,4.68,14.82,9.36a9.49,9.49,0,0,1,4.1,8.19,10.11,10.11,0,0,1-3.12,7.41l-.59.78a.39.39,0,0,0-.19.59.62.62,0,0,0,.58.39h7.8A11.65,11.65,0,0,1,205.83,52v.59a11,11,0,0,1-3.41,8.19,11.24,11.24,0,0,1-8.1,3.31H145.57c-.91,0-1.36.52-1.36,1.56a501.24,501.24,0,0,0,7.6,51.68.51.51,0,0,0,1,.19A195.23,195.23,0,0,0,167.8,85.34Z"/>
      <path class="cls-1" d="M452.28,78.71a11.65,11.65,0,0,1-11.51,11.5H383.44a1,1,0,0,0-.87.39,1.59,1.59,0,0,0-.3,1q19.5,56.16,63.77,79.17a8.27,8.27,0,0,1,4.48,6.05,7.2,7.2,0,0,1,.2,1.75,8.78,8.78,0,0,1-2,5.46,23.84,23.84,0,0,1-1.76,2c-.52.78-1.1,1.63-1.75,2.54a14.26,14.26,0,0,1-7.61,5.26,13.59,13.59,0,0,1-3.31.39,12.24,12.24,0,0,1-5.46-1.36q-42.12-24.37-64.16-78a.62.62,0,0,0-.58-.39.34.34,0,0,0-.39.39q-17.16,51.5-64.16,78.2a12.48,12.48,0,0,1-5.65,1.37,12.76,12.76,0,0,1-3.12-.39,15.23,15.23,0,0,1-7.8-5.27c-.91-1-1.83-2-2.73-2.92a8.15,8.15,0,0,1-2.34-5.66,3.67,3.67,0,0,1,.19-1.17,7.18,7.18,0,0,1,3.9-5.85Q330.79,147,343.86,91.58c.26-.91-.07-1.37-1-1.37h-56a11.65,11.65,0,0,1-11.51-11.5V77.15a11.66,11.66,0,0,1,11.51-11.51h59.86a1.42,1.42,0,0,0,1.56-1.36Q349.51,52,349.9,23.91a11.67,11.67,0,0,1,3.61-8.19,11.2,11.2,0,0,1,8.09-3.31h3.12a10.92,10.92,0,0,1,8,3.31,10.68,10.68,0,0,1,3.31,7.8q0,18.92-2.14,40.76c-.13.91.26,1.36,1.17,1.36h65.71a11.66,11.66,0,0,1,11.51,11.51Z"/>
      <circle class="cls-2" cx="588.73" cy="194.87" r="56.41"/>
      <circle class="cls-3" cx="754.24" cy="194.87" r="56.41"/>
      <path class="cls-1" d="M545.94,89.86a5.77,5.77,0,0,1-5.69-5.69V22.44a5.77,5.77,0,0,1,5.69-5.69h3.57a9.57,9.57,0,0,1,8.39,5l18.51,34,7.24,15.53a.36.36,0,0,0,.34.29c.16,0,.24-.1.24-.29q-1.93-17.74-1.93-25.37V22.44A5.77,5.77,0,0,1,588,16.75h2.51a5.77,5.77,0,0,1,5.69,5.69V84.17a5.77,5.77,0,0,1-5.69,5.69H587a9.59,9.59,0,0,1-8.39-5L560.21,50.7l-7.33-15.43a.34.34,0,0,0-.34-.19c-.16,0-.24.06-.24.19q.19,1.45.58,5.89c.26,3,.45,5.22.58,6.79s.27,3.59.43,6,.25,4.63.25,6.56V84.17a5.77,5.77,0,0,1-5.69,5.69Z"/>
      <path class="cls-1" d="M545.94,190a5.77,5.77,0,0,1-5.69-5.69V122.58a5.77,5.77,0,0,1,5.69-5.69h3.28a5.77,5.77,0,0,1,5.69,5.69v25.85c0,.13.05.19.14.19a.32.32,0,0,0,.24-.09l20.64-27.1a11,11,0,0,1,9.17-4.54h4.72a2.62,2.62,0,0,1,2.51,1.55,3.45,3.45,0,0,1,.29,1.35,2.47,2.47,0,0,1-.68,1.64l-18.32,23.63a1,1,0,0,0-.1,1.25l23,38.77a3.2,3.2,0,0,1-2.7,4.92h-4.73a9.77,9.77,0,0,1-8.58-4.92l-15.63-27.2q-.39-.67-.87-.09l-8.68,11.09a2.4,2.4,0,0,0-.38,1.35v14.08a5.77,5.77,0,0,1-5.69,5.69Z"/>
      <path class="cls-1" d="M634.28,191.35q-28.46,0-28.45-34.24V57.7A5.77,5.77,0,0,1,611.52,52h3.28a5.77,5.77,0,0,1,5.69,5.69V158.37q0,11,3.52,15.67t10.27,4.68q6.94,0,10.56-4.73t3.62-15.62V122.58a5.77,5.77,0,0,1,5.69-5.69h2.7a5.77,5.77,0,0,1,5.69,5.69v34.53q0,17.74-7.23,26T634.28,191.35Z"/>
      <path class="cls-1" d="M641.1,35.18a4.2,4.2,0,0,1-1.74-.38,4.15,4.15,0,0,1-2.13-2.32L632.29,19a4.11,4.11,0,0,1,2.45-5.28L671.45.25a4.11,4.11,0,0,1,5.28,2.45l4.95,13.53a4.11,4.11,0,0,1-2.45,5.28L642.51,34.93A4.07,4.07,0,0,1,641.1,35.18ZM641.43,20l2.12,5.8,29-10.6-2.12-5.8Z"/>
      <path class="cls-1" d="M637.73,90.18a7.59,7.59,0,0,1-3.06-.65L610,78.56a7.56,7.56,0,0,1-4.48-6.9V36.34A7.55,7.55,0,0,1,610,29.45l24.69-11a7.55,7.55,0,1,1,6.13,13.79l-20.21,9V66.76l20.21,9a7.55,7.55,0,0,1-3.07,14.44Z"/>
      <path class="cls-1" d="M672.87,108a4.09,4.09,0,0,1-1.42-.25L634.74,94.33a4.11,4.11,0,0,1-2.45-5.28l4.94-13.52a4.13,4.13,0,0,1,5.28-2.46L679.23,86.5a4.1,4.1,0,0,1,2.45,5.27l-4.95,13.53a4.08,4.08,0,0,1-2.13,2.32A4,4,0,0,1,672.87,108ZM641.43,88l29,10.6,2.12-5.8-29-10.59Z"/>
      <circle class="cls-4" cx="615.07" cy="222.31" r="56.41"/>
      <circle class="cls-5" cx="780.59" cy="222.31" r="56.41"/>
      <text class="cls-6" transform="translate(20.39 262.59)">BIKE FESTIVAL</text>
      <circle class="cls-5" cx="48.67" cy="362.44" r="31.14"/>
      <path class="cls-7" d="M41.7,383.23a6.83,6.83,0,0,1-2.08-.32,23.27,23.27,0,0,1-11.39-36.58,7,7,0,1,1,11,8.62,9.31,9.31,0,0,0,4.56,14.63,7,7,0,0,1-2.07,13.65Z"/>
      <circle class="cls-5" cx="169.81" cy="362.44" r="31.14"/>
      <path class="cls-7" d="M162.83,383.23a6.83,6.83,0,0,1-2.08-.32,23.16,23.16,0,0,1-16.34-22.22,23.4,23.4,0,0,1,5-14.36,7,7,0,1,1,11,8.62,9.31,9.31,0,0,0,4.56,14.63,7,7,0,0,1-2.07,13.65Z"/>
    </g>
  </g>
</svg>
