<svg xmlns="http://www.w3.org/2000/svg" data-name="圖層 1" width="64" height="63"><rect id="backgroundrect" width="100%" height="100%" x="0" y="0" fill="none" stroke="none" class="" style=""/><defs><style>.cls-1{fill:#942323;stroke:#942323;stroke-miterlimit:10;fill-rule:evenodd;}</style></defs><title>贊助商</title><g class="currentLayer" style=""><title>Layer 1</title><path class="cls-1" d="M27.40999694824218,27.330003662109377 l10.48,26.48 l16,-16 l-26.52,-10.48 zm-25.28,-5.12 h11 a2.13,2.13 0 1 1 0,4.26 h-11 a2.13,2.13 0 1 1 0,-4.26 zm22.24,-0.6700000000000002 l34.16,13.49 a2.12,2.12 0 0 1 0.7300000000000001,3.5 l-8.81,8.79 l12.6,12.55 a2.15,2.15 0 0 1 0,3 a2.23,2.23 0 0 1 -1.52,0.6200000000000001 a2.19,2.19 0 0 1 -1.52,-0.6200000000000001 l-12.58,-12.57 l-8.81,8.79 a2.12,2.12 0 0 1 -1.52,0.6200000000000001 a1.53,1.53 0 0 1 -0.43000000000000005,0 a2.1,2.1 0 0 1 -1.56,-1.3 l-13.5,-34.08 a2.14,2.14 0 0 1 2.7600000000000002,-2.77 zM9.429996948242191,7.270003662109374 a2.14,2.14 0 0 1 1.52,0.6200000000000001 L18.699996948242188,15.660003662109375 a2.15,2.15 0 0 1 0,3 a2.19,2.19 0 0 1 -1.52,0.6200000000000001 A2.14,2.14 0 0 1 15.699996948242188,18.660003662109375 l-7.79,-7.77 a2.12,2.12 0 0 1 0,-3 a2.14,2.14 0 0 1 1.52,-0.6200000000000001 zm15,-7.27 a2.14,2.14 0 0 1 2.14,2.13 v11 a2.14,2.14 0 0 1 -4.28,0 v-11 a2.14,2.14 0 0 1 2.14,-2.13 z" id="svg_1"/></g></svg>