<svg id="圖層_1" data-name="圖層 1" xmlns="http://www.w3.org/2000/svg" viewBox="0 0 4000 4000">
  <defs>
    <style>
      .cls-1 {
        fill: #e57772;
      }
    </style>
  </defs>
  <title>2</title>
  <path class="cls-1" d="M2565.43,3125H1390.63q-102.6,0-102.54-102.54v-8.79q0-87.89,102.54-178.71,448.23-407.16,666.5-716.31t218.26-564q0-184.57-96.68-294.44t-278.32-109.86q-170,0-331.05,140.63-105.48,105.46-205.08,5.86-96.69-96.69,8.79-190.43Q1627.93,875.06,1941.41,875q301.69,0,484.86,181.64t183.11,480.47q0,298.83-210.94,622.56t-597.66,692.87Q2000,2832.1,2161.13,2832h404.3q146.46,0,146.48,146.49T2565.43,3125Z"/>
</svg>
