<svg id="圖層_1" data-name="圖層 1" xmlns="http://www.w3.org/2000/svg" viewBox="0 0 4000 4000">
  <defs>
    <style>
      .cls-1 {
        fill: #e57772;
      }
    </style>
  </defs>
  <title>3</title>
  <path class="cls-1" d="M2709.72,2511.23q0,293-210.93,462.89T1971.44,3144q-389.67,0-644.53-228.51-73.28-73.19,0-172.85,90.77-125.92,205.08-23.44,184.58,143.58,410.16,143.55,190.4,0,306.15-98.14T2364,2496.58q0-164-101.07-263.67T1927.5,2104q-76.23-5.82-148-43.94t-71.78-96.68q0-58.56,68.85-96.68t142.09-44q369.14-64.39,369.14-372.07,0-146.45-90.82-232.91t-249-89.35q-172.92,3-319.34,111.33-120.18,99.63-213.87-11.72-87.88-111.3,20.51-193.36Q1681.4,856,1959.72,856q304.66,0,490.73,150.88t186,420.41q0,375.06-380.86,518.55v14.65q202.15,49.86,328.13,193.36T2709.72,2511.23Z"/>
</svg>
