<svg id="圖層_1" data-name="圖層 1" xmlns="http://www.w3.org/2000/svg" viewBox="0 0 4000 4000">
  <defs>
    <style>
      .cls-1 {
        fill: #e57772;
      }
    </style>
  </defs>
  <title>6</title>
  <path class="cls-1" d="M1543,1131.35Q1759.74,856,2123.05,856q263.67,0,460,152.34,93.72,82.07,5.86,184.57-105.48,111.39-222.66,11.72-114.26-67.35-225.58-67.38-231.48,0-375,199.22T1610.35,1981a697.74,697.74,0,0,1,227.05-186q133.27-68.79,253.42-68.85,287.08,0,454.1,177.25t167,520q0,322.32-191.89,521.48T2049.8,3144q-334,0-547.85-281.25t-213.86-817.38Q1288.09,1444.88,1543,1131.35Zm213.87,1590.82q111.3,158.2,290,158.2,149.4,0,246.09-124.51t96.68-332.52q0-213.81-93.75-329.59T2026.37,1978q-231.48,0-410.16,257.81Q1642.58,2564,1756.84,2722.17Z"/>
</svg>
