<svg id="圖層_1" data-name="圖層 1" xmlns="http://www.w3.org/2000/svg" viewBox="0 0 4000 4000">
  <defs>
    <style>
      .cls-1 {
        fill: #e57772;
      }
    </style>
  </defs>
  <title>4</title>
  <path class="cls-1" d="M2174.32,2509.77h-808.6q-67.44,0-106.93-39.56t-39.55-104v-8.79q0-76.14,43.94-143.55l767.58-1210q67.35-108.35,199.22-108.4h79.1q84.93,0,137.7,52.73t52.73,137.7V2243.16h149.42q131.84,0,131.83,131.84,0,134.79-131.83,134.77H2499.51v433.59q0,161.16-164.06,161.13-161.16,0-161.13-161.13Zm-606.45-266.61h606.45V1663.09q0-64.39,17.57-424.81h-11.71q-82.07,175.79-175.79,339.85Z"/>
</svg>
