<svg id="圖層_1" data-name="圖層 1" xmlns="http://www.w3.org/2000/svg" viewBox="0 0 4000 4000">
  <defs>
    <style>
      .cls-1 {
        fill: #e57772;
      }
    </style>
  </defs>
  <title>8</title>
  <path class="cls-1" d="M2002.93,3141.11q-298.83,0-509.77-159.66t-210.93-426.27q0-202.16,111.32-353t284.18-241.7V1945.8q-295.95-210.93-295.89-515.62,0-257.76,177.24-414.55t452.64-156.74q284.12,0,454.1,162.59t169.92,423.34q0,155.34-85,293T2345.7,1963.38V1978q372,213.9,372.07,585.93,0,249.06-199.22,413.09T2002.93,3141.11Zm228.52-890.62q-108.43-82-383.79-190.43-257.85,178.74-257.82,460,0,164.11,120.12,268.07t298.83,104q169.86,0,275.39-90.82t105.47-246.09Q2389.65,2370.61,2231.45,2250.49Zm-407.23-544.92q96.67,85,322.26,169.92,199.2-184.58,199.22-410.16,0-158.2-90.82-257.81t-249-99.61q-137.76,0-227,87.89t-89.36,234.38Q1689.45,1591.34,1824.22,1705.57Z"/>
</svg>
