<svg id="圖層_1" data-name="圖層 1" xmlns="http://www.w3.org/2000/svg" viewBox="0 0 4000 4000">
  <defs>
    <style>
      .cls-1 {
        fill: #e57772;
      }
    </style>
  </defs>
  <title>9</title>
  <path class="cls-1" d="M2458.5,2862.79Q2244.6,3144,1890.14,3144q-275.43,0-471.68-152.34-90.86-76.14-5.86-178.71,99.54-117.13,219.72-14.65,114.27,64.48,243.17,64.45,219.72,0,361.81-202.15T2394,2016.11q-96.67,117.23-228.51,187.5t-257.82,70.32q-284.2,0-451.17-177.25t-167-514.16q0-322.23,190.43-524.41T1945.8,856q334,0,549.32,273.92t215.33,798.34Q2710.45,2534.67,2458.5,2862.79ZM2247.56,1274.9q-111.39-152.28-298.83-152.34-146.54,0-241.7,124.51t-95.21,335.45q0,210.93,90.82,326.66t263.67,115.72q237.3,0,421.87-269.53Q2367.64,1441.93,2247.56,1274.9Z"/>
</svg>
