<svg id="圖層_1" data-name="圖層 1" xmlns="http://www.w3.org/2000/svg" viewBox="0 0 4000 4000">
  <defs>
    <style>
      .cls-1 {
        fill: #e57772;
      }
    </style>
  </defs>
  <title>5</title>
  <path class="cls-1" d="M1677,876.46h788.09q146.45,0,146.48,143.56,0,149.42-146.48,149.41H1791.3l-49.81,565.43q152.29-76.14,301.76-76.17,295.88,0,483.4,177.25t187.5,522.95q0,351.56-218.26,558.1T1970,3123.54q-375.06,0-641.6-219.73-82.07-70.32-5.86-175.78,87.89-123,199.22-26.37,184.56,140.63,407.22,140.63,190.41,0,314.94-128.91t124.52-342.77q0-216.78-114.26-338.38t-307.62-121.59q-131.83,0-257.81,64.46-99.65,55.7-181.64,4.39t-76.17-145L1477.82,1064q2.88-84.93,58.6-136.23T1677,876.46Z"/>
</svg>
