<svg xmlns="http://www.w3.org/2000/svg" data-name="圖層 1" width="41" height="62"><rect id="backgroundrect" width="100%" height="100%" x="0" y="0" fill="none" stroke="none"/><defs><style>.cls-1{fill:#942323;}.cls-2{fill:#133180;}.cls-3{fill:#1e556d;}</style></defs><title>網站</title><g class="currentLayer" style=""><title>Layer 1</title><path class="cls-1" d="M36.25998413085938,52.24369812011719 c-0.7300000000000001,6.38 -7.27,10.88 -14.57,10 s-12.64,-6.71 -11.9,-13.08 c0.55,-4.75 4.29,-8.59 9.54,-9.78 a1.36,1.36 0 0 1 1.59,0.81 a1.08,1.08 0 0 1 -0.8800000000000001,1.37 c-4.23,1 -7.25,4.05 -7.7,7.890000000000001 c-0.5900000000000001,5.14 3.72,9.870000000000001 9.6,10.55 s11.15,-3 11.75,-8.1 c0.45,-3.91 -2,-7.75 -6,-9.57 a1.09,1.09 0 0 1 -0.6000000000000001,-1.52 a1.35,1.35 0 0 1 1.7200000000000002,-0.48000000000000004 C33.81998413085938,42.60369812011719 36.81998413085938,47.37369812011718 36.25998413085938,52.24369812011719 z" id="svg_1"/><path class="cls-2" d="M22.379984130859384,20.573698120117186 a1,1 0 0 1 -0.19000000000000003,0.49000000000000005 a1.3800000000000001,1.3800000000000001 0 0 1 -1.78,0.30000000000000004 l-0.31000000000000005,-0.19000000000000003 a1.06,1.06 0 0 1 -0.35000000000000003,-1.58 a1.3900000000000001,1.3900000000000001 0 0 1 1.79,-0.25 l0.25,0.15000000000000002 A1.12,1.12 0 0 1 22.379984130859384,20.573698120117186 z" id="svg_2"/><path class="cls-1" d="M40.74998413085939,13.243698120117188 c-0.7300000000000001,6.38 -7.27,10.88 -14.57,10 a14.77,14.77 0 0 1 -5.77,-1.9 a1.06,1.06 0 0 1 -0.4,-1.57 a1.3800000000000001,1.3800000000000001 0 0 1 1.78,-0.30000000000000004 a11.92,11.92 0 0 0 4.66,1.53 c5.890000000000001,0.6800000000000002 11.15,-3 11.75,-8.1 s-3.72,-9.870000000000001 -9.6,-10.55 a11.91,11.91 0 0 0 -4.890000000000001,0.43000000000000005 a1.3800000000000001,1.3800000000000001 0 0 1 -1.6600000000000001,-0.7000000000000001 a1.06,1.06 0 0 1 0.7400000000000001,-1.44 a14.77,14.77 0 0 1 6.06,-0.54 C36.139984130859375,0.9736981201171915 41.47998413085938,6.843698120117182 40.74998413085939,13.243698120117188 z" id="svg_3"/><path class="cls-3" d="M27.24998413085939,10.56369812011718 L12.839984130859364,20.493698120117188 l-4.37,-4.8 a1.42,1.42 0 0 0 -1.81,-0.21000000000000002 a1,1 0 0 0 -0.18000000000000002,1.58 l14.79,16.26 l-14.41,-1.6600000000000001 a1.3,1.3 0 0 0 -1.26,0.55 a1,1 0 0 0 0.14,1.25 l16.29,17.91 a1.42,1.42 0 0 0 1.81,0.21000000000000002 a1,1 0 0 0 0.18000000000000002,-1.58 L9.699984130859377,34.24369812011719 L24.139984130859375,35.91369812011719 h0 l3.11,0.36000000000000004 l-0.25,2.13 a1.3,1.3 0 0 0 2.56,0.29000000000000004 l0.37000000000000005,-3.25 l0.39000000000000007,-3.4 a1.3,1.3 0 0 0 -2.56,-0.29000000000000004 l-0.26,2.2800000000000002 l-2.58,-0.30000000000000004 L14.469984130859388,22.243698120117188 l14.41,-9.93 a1,1 0 0 0 0.18000000000000002,-1.58 A1.42,1.42 0 0 0 27.24998413085939,10.56369812011718 z" id="svg_4"/><path class="cls-1" d="M4.4699841308593875,30.423698120117194 l-0.81,7 a1.86,1.86 0 0 1 -3.66,-0.42000000000000004 l0.81,-7 a1.86,1.86 0 0 1 3.66,0.42000000000000004 z" id="svg_5"/><path class="cls-3" d="M14.649984130859366,8.543698120117185 l-0.8700000000000001,7.57 a1.3,1.3 0 0 1 -2.56,-0.29000000000000004 L12.139984130859375,8.243698120117188 a1.3,1.3 0 0 1 2.56,0.29000000000000004 z" id="svg_6"/></g></svg>