<svg xmlns="http://www.w3.org/2000/svg" viewBox="0 0 275.28 251.17">
  <defs>
    <style>
      .cls-1 {
        fill: #dd4a43;
        opacity: 0.4;
      }

      .cls-2 {
        fill: #1e3373;
      }
    </style>
  </defs>
  <title>家長專欄+</title>
  <g id="圖層_2" data-name="圖層 2">
    <g id="圖層_4" data-name="圖層 4">
      <circle class="cls-1" cx="183.98" cy="159.87" r="91.3"/>
      <g>
        <path class="cls-2" d="M33.52,216.23l2.93,2.5a57.91,57.91,0,0,1-7.81,5.2,20.28,20.28,0,0,0,9.65,8.59,10.51,10.51,0,0,0-2.62,3.24q-10.11-4.87-14.06-20.39h-.08a21.88,21.88,0,0,1-3.67,2.54,17.84,17.84,0,0,1,4.26,5.41,16.24,16.24,0,0,1,1.81,5.76,12.77,12.77,0,0,1-.43,5,6.07,6.07,0,0,1-2.12,3.32,7,7,0,0,1-4.5,1.49c-1,0-2.18,0-3.43-.12a8.38,8.38,0,0,0-1.06-3.55,34.85,34.85,0,0,0,3.75.19,3.66,3.66,0,0,0,2.62-.82,3.91,3.91,0,0,0,1.31-2.34,10,10,0,0,0,0-3.75,53.23,53.23,0,0,1-7.62,4.84,54.63,54.63,0,0,1-8.32,3.64,15.87,15.87,0,0,0-1.95-3.09,47.79,47.79,0,0,0,9.2-3.56,34.07,34.07,0,0,0,7.67-5,18.9,18.9,0,0,0-1.05-2,54.92,54.92,0,0,1-12.54,6.33A9.91,9.91,0,0,0,3.6,226.7a47.84,47.84,0,0,0,6.82-2.48A32.25,32.25,0,0,0,16.3,221a12.62,12.62,0,0,0-1.49-1.41,62.28,62.28,0,0,1-9.65,3.6,13.6,13.6,0,0,0-1.95-2.89,46.64,46.64,0,0,0,13.13-4.89H9v-3.2H30.87v3.2H25a34.21,34.21,0,0,0,2.11,5.74A51.06,51.06,0,0,0,33.52,216.23ZM7.16,208.81v4.92H3.49v-8.32H18.06v-3.36h3.82v3.36H36.69v8.32H32.94v-4.92Z"/>
        <path class="cls-2" d="M81.29,224.2l3,2a57.34,57.34,0,0,1-8.28,5,26.52,26.52,0,0,0,10.5,4.26,9.43,9.43,0,0,0-2.34,3.32,26.81,26.81,0,0,1-11.13-5.16,24.53,24.53,0,0,1-7-9.49h-5.2v9.57l9.61-1.48.23,3.28q-8.9,1.56-17.77,2.93l-.9-3.4c.13,0,1.8-.27,5-.74V224.2H50.2v-3.32h6.87V203.54H81.8v3.12H60.86v2.74h19.8v3H60.86v2.78h19.8v2.93H60.86v2.81h25v3.32Zm-.08,0H69.84a21.52,21.52,0,0,0,3.72,5A51.07,51.07,0,0,0,81.21,224.2Z"/>
        <path class="cls-2" d="M134.06,227.09v3H124.8V235a5.07,5.07,0,0,1-.37,2.15,2.32,2.32,0,0,1-1.43,1.09c-.91.32-3.1.47-6.56.47a10.45,10.45,0,0,0-1.13-3.2c2.44.08,4.14.09,5.07,0a1.21,1.21,0,0,0,.63-.18.64.64,0,0,0,.15-.49v-4.8H107.88a27.42,27.42,0,0,1,5.43,4.34l-2.69,2.42a28.74,28.74,0,0,0-6.29-5.2l1.8-1.56H98v-3h23.16v-2q-12.61.31-21.44.43l-.12-2.81q3.44,0,14.53-.08v-1.88H102.22V209.63h11.91v-1.87h-15V204.9h15v-2.81h3.64v2.81h14.76v2.86H117.77v1.87h12.3v11.09h-3.71a32.11,32.11,0,0,1,6.21,3.6l-2.19,2a23.15,23.15,0,0,0-2.11-1.45l-3.47.08v2.15Zm-28.32-15v2h8.39v-2Zm0,6.37h8.39v-2.11h-8.39Zm20.7-6.37h-8.67v2h8.67Zm0,6.37v-2.11h-8.67v2.11Zm-8.67,2.3v1.88l6.44-.08a20.31,20.31,0,0,0-2.46-1l.94-.79Z"/>
        <path class="cls-2" d="M168.66,216.15h-7.31v22.62h-3.12V221.94l-1.88,3a40.8,40.8,0,0,0-2.26-3.75v17.5h-3.44V222.64a37.83,37.83,0,0,1-3.67,8.94,16.63,16.63,0,0,0-1.8-3.2,34.55,34.55,0,0,0,3-6.62,59.34,59.34,0,0,0,2.21-8.11H146v-3.36h4.69v-8.24h3.44v8.24h3.51v3.36h-3.51V217a45.61,45.61,0,0,1,4.14,4.73V203.85h10.43Zm-3-9.57h-4.34v2.19h4.34Zm-4.34,6.88h4.34v-2.35h-4.34Zm19.85-9.65v31.64a4.81,4.81,0,0,1-.26,1.78,2.1,2.1,0,0,1-.95,1,12,12,0,0,1-4.38.51,8.69,8.69,0,0,0-.82-2.26l-.08.11a25.38,25.38,0,0,1-4-4v5h-2.62v-4.92a19.8,19.8,0,0,1-4.34,4.22,9.13,9.13,0,0,0-1.87-2,17.06,17.06,0,0,0,5.35-4.68H163v-7.85h5.08v-1.57H162.6V218.5h5.51v-1.8h2.62v1.8h5.86v2.26h-5.86v1.57h5.35v7.85h-4.42a19.85,19.85,0,0,0,5.08,4.33,17.92,17.92,0,0,0-1.56,1.53h2.15a.53.53,0,0,0,.55-.59v-19.3h-7.43V203.81Zm-16.14,20.35v4.22h3.36v-4.22Zm.43,1,1.41-.47A10,10,0,0,1,168,227.4l-1.37.55A11,11,0,0,0,165.49,225.18Zm8.6,3.2v-4.22h-3.64v4.22Zm-2-.47-1.28-.51c.8-1.87,1.22-2.83,1.25-2.89l1.52.63C173.06,226.15,172.56,227.08,172.09,227.91Zm5.79-21.37h-4.57v2.23h4.57Zm-4.57,6.92h4.57v-2.31h-4.57Z"/>
      </g>
      <g>
        <path class="cls-2" d="M82,163.9H6.66v-6.66H20.49a3.33,3.33,0,1,0,0-6.66H6.78a24.32,24.32,0,0,1,21.08-21.65L42,143.05a3.34,3.34,0,0,0,4.71,0L60.8,128.93A24.31,24.31,0,0,1,82,153v10.9ZM29.62,91.05A10.42,10.42,0,0,1,40,80.65H59v7.76A7.1,7.1,0,0,1,52,95.49H29.62V91.05Zm22,37.68L44.33,136l-7.25-7.25Zm-22-26.58H52a13.68,13.68,0,0,0,7.09-2v7.18a14.71,14.71,0,1,1-29.42,0v-5.21Zm30.92,20a3.09,3.09,0,0,0-.74-.12,21.31,21.31,0,0,0,5.9-14.72V89.84a3.73,3.73,0,0,0,0-.48c0-.31,0-.63,0-1V77.32A3.33,3.33,0,0,0,62.37,74H40A17.08,17.08,0,0,0,23,91.05v16.31a21.34,21.34,0,0,0,5.89,14.72,3.09,3.09,0,0,0-.73.12A31,31,0,0,0,0,153v14.23a3.33,3.33,0,0,0,3.33,3.33h82a3.34,3.34,0,0,0,3.34-3.33V153a31,31,0,0,0-28.12-30.8Z"/>
        <path class="cls-2" d="M126.24,62,119,54.74h14.5L126.24,62ZM111.53,17.06a10.42,10.42,0,0,1,10.4-10.4h19v7.76a7.08,7.08,0,0,1-7.08,7.08H111.53V17.06Zm0,16.31v-5.2h22.33a13.65,13.65,0,0,0,7.08-2v7.18a14.71,14.71,0,1,1-29.41,0Zm30.92,14.84a3.09,3.09,0,0,0-.74-.12,21.31,21.31,0,0,0,5.9-14.72V15.85a3.57,3.57,0,0,0,0-.47c0-.32,0-.64,0-1V3.33A3.34,3.34,0,0,0,144.27,0H121.93a17.08,17.08,0,0,0-17.06,17.06V33.37a21.3,21.3,0,0,0,5.89,14.72,3,3,0,0,0-.73.12A31,31,0,0,0,81.91,79V93.24a3.34,3.34,0,0,0,3.33,3.34H112a3.34,3.34,0,0,0,0-6.67H88.57V79A24.29,24.29,0,0,1,109.76,55l14.12,14.11a3.32,3.32,0,0,0,4.71,0L142.71,55A24.29,24.29,0,0,1,163.9,79v10.9H139.36a3.34,3.34,0,0,0,0,6.67h27.87a3.34,3.34,0,0,0,3.33-3.34V79a31,31,0,0,0-28.11-30.8Z"/>
        <path class="cls-2" d="M128.59,95.6a3.32,3.32,0,1,0-2.35,1,3.36,3.36,0,0,0,2.35-1Z"/>
        <path class="cls-2" d="M6.66,16.66a10,10,0,0,1,10-10H58.49a10,10,0,0,1,10,10v17.4a3.35,3.35,0,0,0,1,2.36l9.22,9.22h-7.2a3.33,3.33,0,0,0-3.25,2.58A10,10,0,0,1,58.49,56H16.66a10,10,0,0,1-10-10V16.66Zm10,46H58.49A16.56,16.56,0,0,0,73.91,52.3H86.73a3.33,3.33,0,0,0,2.35-5.69L75.15,32.68v-16A16.67,16.67,0,0,0,58.49,0H16.66A16.67,16.67,0,0,0,0,16.66V46A16.67,16.67,0,0,0,16.66,62.63Z"/>
        <path class="cls-2" d="M163.9,153.91a10,10,0,0,1-10,10H112.07a10,10,0,0,1-10-10V136.5a3.3,3.3,0,0,0-1-2.35l-9.22-9.23h7.21a3.34,3.34,0,0,0,3.25-2.58,9.93,9.93,0,0,1,9.73-7.74h41.84a10,10,0,0,1,10,10v29.32Zm-10-46H112.07a16.56,16.56,0,0,0-15.41,10.32H83.84A3.34,3.34,0,0,0,81.48,124l13.93,13.93v16a16.68,16.68,0,0,0,16.66,16.65h41.84a16.67,16.67,0,0,0,16.65-16.65V124.59a16.67,16.67,0,0,0-16.65-16.65Z"/>
        <path class="cls-2" d="M143.25,130.39l-8.85,8.85-4.12-4.12a3.33,3.33,0,0,0-4.71,4.72l6.47,6.47a3.34,3.34,0,0,0,4.71,0L148,135.1a3.33,3.33,0,0,0-4.71-4.71Z"/>
        <path class="cls-2" d="M33,26.22a3.33,3.33,0,0,0,3.33-3.33,4.89,4.89,0,1,1,6,4.77,5.59,5.59,0,0,0-4.4,5.48v1.78a3.33,3.33,0,1,0,6.66,0V34A11.55,11.55,0,1,0,29.65,22.89,3.33,3.33,0,0,0,33,26.22Z"/>
        <path class="cls-2" d="M41.2,44.34a3.33,3.33,0,1,0,2.35,1,3.35,3.35,0,0,0-2.35-1Z"/>
        <path class="cls-2" d="M33.81,150.58a3.31,3.31,0,1,0,2.36,1,3.35,3.35,0,0,0-2.36-1Z"/>
      </g>
    </g>
  </g>
</svg>
