<svg xmlns="http://www.w3.org/2000/svg" viewBox="0 0 262.63 252.9">
  <defs>
    <style>
      .cls-1 {
        fill: #1e5eaa;
        opacity: 0.4;
      }

      .cls-2 {
        fill: #1e3373;
      }
    </style>
  </defs>
  <title>我要報名</title>
  <g id="圖層_2" data-name="圖層 2">
    <g id="圖層_4" data-name="圖層 4">
      <circle class="cls-1" cx="171.33" cy="161.59" r="91.3"/>
      <g>
        <path class="cls-2" d="M31.17,220.42l3.32,1.4a40.48,40.48,0,0,1-6.76,9.07c1.44,4,2.93,6,4.5,6,.49,0,.86-.53,1.11-1.6a32.88,32.88,0,0,0,.53-5.31A7.41,7.41,0,0,0,37,232q-.47,5-1.56,6.83a3.83,3.83,0,0,1-3.55,1.8q-4.35,0-7.15-6.91a44.86,44.86,0,0,1-7.93,5.39,14.32,14.32,0,0,0-2.54-3A40.58,40.58,0,0,0,23.48,230a65.62,65.62,0,0,1-2.11-11.21H12.5v5.58l6.72-1.33.27,3.32-7,1.57v8a6,6,0,0,1-.43,2.54,2.67,2.67,0,0,1-1.48,1.33c-1.2.5-3.48.74-6.84.74a13.08,13.08,0,0,0-1.41-3.75c2.63.08,4.46.1,5.47,0,.63,0,.94-.32.94-.9v-7.1c-1,.2-2.38.5-4.1.87s-2.92.64-3.6.77l-1-3.71c1.41-.24,4.32-.77,8.75-1.61v-6.32H.66V215.3H8.75v-5.55q-3.55.58-6.87,1A11,11,0,0,0,.7,207.68a93.09,93.09,0,0,0,15.82-3.47l2.58,3.12A56.58,56.58,0,0,1,12.5,209v6.29H21c-.34-3.75-.53-7.47-.55-11.17h3.87q0,5.7.43,11.17H36.13v3.52h-11a72.06,72.06,0,0,0,1.44,8.12A34,34,0,0,0,31.17,220.42Zm4.22-9.07-3,2.19a23,23,0,0,0-2.52-3.3,40,40,0,0,0-3.41-3.46l2.81-1.91A32.89,32.89,0,0,1,35.39,211.35Z"/>
        <path class="cls-2" d="M84.45,228.35H76.71a17.26,17.26,0,0,1-4.41,5.82,107.36,107.36,0,0,1,10.86,3.4l-2.19,3a106.62,106.62,0,0,0-12.38-4.06q-6.14,3-18.25,3.95A8.29,8.29,0,0,0,49,237.25q9.21-.42,14.29-2.07-2.15-.54-5.74-1.33l-.66.86-3.56-1.13c1-1.3,2.29-3.05,3.83-5.23H48.31v-3H59.25c1.33-2.08,2-3.14,2-3.16H51.09V211.47H59.8v-2.85H49.17v-3.28H83.43v3.28h-11v2.85H82v10.67H64.84l.58.15-1,1.62-.88,1.39H84.45ZM54.56,214.48v4.65H59.8v-4.65Zm18,13.87H61.48c-.21.31-.54.77-1,1.38s-.79,1.09-1,1.43c2.17.42,5,1,8.48,1.87A14.2,14.2,0,0,0,72.57,228.35Zm-9.22-19.73v2.85h5.59v-2.85Zm0,10.51h5.59v-4.65H63.35Zm14.92-4.65H72.45v4.65h5.82Z"/>
        <path class="cls-2" d="M106.82,210.73v3.48h7v3.16H110.1l1.72.43c-.76,1.93-1.43,3.5-2,4.73h3.55v3.2h-6.52v3.75h6v3.16h-6v7.74h-3.48v-7.74H97.09v-3.16h6.25v-3.75H96.7v-3.2h3.52a17.29,17.29,0,0,0-1.52-4.73l1.64-.43H96v-3.16h7.3v-3.48H97.48V207.6h5.86v-3.75h3.48v3.75h5.55v3.13Zm1.45,11.8-1.33-.36a46.21,46.21,0,0,0,1.68-4.8h-7a18.3,18.3,0,0,1,1.57,4.8l-1.29.36Zm21.21-3.64,2.26.82a38.45,38.45,0,0,1-4.49,13,19.72,19.72,0,0,0,5.94,4.77,10.56,10.56,0,0,0-2.46,3,22.21,22.21,0,0,1-5.51-4.73,22.92,22.92,0,0,1-4.88,4.76,10.18,10.18,0,0,0-2.07-2.14v2.11h-3.36v-35h15.93v7.54a4.75,4.75,0,0,1-.37,2.11,2.31,2.31,0,0,1-1.38,1.1,23,23,0,0,1-6.37.54,10.92,10.92,0,0,0-1.13-3.2c2.44.08,4.11.09,5,0q.78,0,.78-.63v-4.21h-9.1v10.23h10.62Zm-11.21,3.21v15.58a20.47,20.47,0,0,0,4.76-4.8A42.86,42.86,0,0,1,118.27,222.1Zm9.53,0h-6.41a34.1,34.1,0,0,0,3.56,7.65A30.71,30.71,0,0,0,127.8,222.1Z"/>
        <path class="cls-2" d="M176.34,223.39v17.07h-3.82v-1.92H156v1.92h-3.71V227.68q-3.36,1.09-6.29,1.8a12.55,12.55,0,0,0-1.91-3.44A55.84,55.84,0,0,0,158.65,221a71.08,71.08,0,0,0-7-5.86,38.23,38.23,0,0,1-4.14,2.39,9.14,9.14,0,0,0-2.54-3,33.55,33.55,0,0,0,8-5,25.91,25.91,0,0,0,5.3-5.92l4.22.86c-.81,1.17-1.62,2.24-2.43,3.2h13l.63-.19,2.54,1.52q-4.31,8.64-14.34,14.38Zm-5.74-12.31H156.77l-2.18,1.84a68.23,68.23,0,0,1,7.5,6A30.07,30.07,0,0,0,170.6,211.08ZM156,235.14h16.49v-8.39H156Z"/>
      </g>
      <g>
        <path class="cls-2" d="M184.74,155.42,35,172.56,20.3,44.21,170.05,27.06l14.69,128.36ZM17.85,22.82,167.6,5.67l1.83,16L19.69,38.86l-1.84-16ZM169.66,0,14.56,17.77a2.71,2.71,0,0,0-2.37,3L30,175.85a2.69,2.69,0,0,0,3,2.37L188,160.46a2.7,2.7,0,0,0,2.37-3L172.64,2.39a2.69,2.69,0,0,0-3-2.37Z"/>
        <path class="cls-2" d="M23.5,24.88l5.35-.61a2.69,2.69,0,0,1,3,2.36L32.44,32a2.69,2.69,0,0,1-2.36,3l-5.35.61a2.69,2.69,0,0,1-3-2.36l-.61-5.35a2.69,2.69,0,0,1,2.36-3Z"/>
        <path class="cls-2" d="M36.87,23.35l5.35-.61a2.69,2.69,0,0,1,3,2.36l.61,5.35a2.69,2.69,0,0,1-2.36,3L38.1,34a2.69,2.69,0,0,1-3-2.36l-.61-5.35a2.69,2.69,0,0,1,2.36-3Z"/>
        <path class="cls-2" d="M50.24,21.82l5.35-.62a2.7,2.7,0,0,1,3,2.37l.61,5.35a2.69,2.69,0,0,1-2.36,3l-5.35.61a2.69,2.69,0,0,1-3-2.36l-.61-5.35a2.69,2.69,0,0,1,2.36-3Z"/>
        <polygon class="cls-2" points="154.84 12.55 165.53 11.33 166.15 16.67 155.45 17.9 154.84 12.55 154.84 12.55"/>
        <polygon class="cls-2" points="146.82 13.47 152.16 12.86 152.78 18.2 147.43 18.82 146.82 13.47 146.82 13.47"/>
        <path class="cls-2" d="M36.73,69.42,127.65,59l1.83,16L38.57,85.46l-1.84-16Zm124.59-.25L148.42,65a2.7,2.7,0,0,0-3.14,4l2.42,4-12.87,1.47L133,58.4l26.74-3.06,1.58,13.83Zm-1.58,13.4-6.15-10.24L165,76l-5.21,6.57ZM36.51,91.12,150.74,78l6.38,10.63a2.7,2.7,0,0,0,3.69.92,2.59,2.59,0,0,0,.72-.64l10.05-12.64a2.7,2.7,0,0,0-1.28-4.24L167,71l-2.17-18.94a2.69,2.69,0,0,0-3-2.37L33.44,64.38a2.69,2.69,0,0,0-2.36,3l2.44,21.39a2.7,2.7,0,0,0,3,2.37Z"/>
        <path class="cls-2" d="M110.7,147.64l-5.34.61-.62-5.34,5.35-.62.61,5.35Zm1.45-11-10.69,1.22a2.69,2.69,0,0,0-2.37,3l1.22,10.7a2.69,2.69,0,0,0,3,2.37l10.7-1.23a2.69,2.69,0,0,0,2.37-3L115.13,139a2.69,2.69,0,0,0-3-2.37Z"/>
        <path class="cls-2" d="M137.44,144.58l-5.34.61-.62-5.35,5.35-.61.61,5.35Zm1.45-11L128.2,134.8a2.69,2.69,0,0,0-2.37,3l1.22,10.7a2.7,2.7,0,0,0,3,2.37l10.69-1.23a2.69,2.69,0,0,0,2.37-3L141.87,136a2.68,2.68,0,0,0-3-2.37Z"/>
        <path class="cls-2" d="M84,150.7l-5.34.62L78,146l5.35-.62L84,150.7Zm1.45-11-10.69,1.23a2.68,2.68,0,0,0-2.37,3l1.22,10.69a2.69,2.69,0,0,0,3,2.37l10.7-1.23a2.68,2.68,0,0,0,2.37-3l-1.23-10.69a2.69,2.69,0,0,0-3-2.37Z"/>
        <polygon class="cls-2" points="59.12 99.36 101.91 94.47 102.52 99.81 59.73 104.71 59.12 99.36 59.12 99.36"/>
        <polygon class="cls-2" points="43.08 101.2 53.77 99.98 54.39 105.33 43.69 106.55 43.08 101.2 43.08 101.2"/>
        <polygon class="cls-2" points="107.25 93.85 128.65 91.41 129.26 96.75 107.87 99.2 107.25 93.85 107.25 93.85"/>
        <polygon class="cls-2" points="134 90.79 150.04 88.95 150.65 94.3 134.61 96.14 134 90.79 134 90.79"/>
      </g>
    </g>
  </g>
</svg>
