<svg xmlns="http://www.w3.org/2000/svg" viewBox="0 0 262.51 255.35">
  <defs>
    <style>
      .cls-1 {
        fill: #dd4a43;
        opacity: 0.4;
      }

      .cls-2 {
        fill: #1e3373;
      }
    </style>
  </defs>
  <title>活動摘要+</title>
  <g id="圖層_2" data-name="圖層 2">
    <g id="圖層_4" data-name="圖層 4">
      <circle class="cls-1" cx="171.21" cy="164.05" r="91.3"/>
      <g>
        <path class="cls-2" d="M9.41,221.55l-2.07,3.08A79.66,79.66,0,0,0,0,220.34l2-2.74Q7.73,220.45,9.41,221.55Zm-5.5,20.9L.82,240a104.37,104.37,0,0,0,7.5-12.62l2.7,2.46A140.92,140.92,0,0,1,3.91,242.45Zm7.54-31.61-2.19,3c-1-.67-3.41-2.13-7.35-4.37L4,206.78A71,71,0,0,1,11.45,210.84Zm25,10.55H25.9v5.94h8.24v15.39H30.59v-1.49H17.34v1.68H14V227.33h8.39v-5.94H11.25v-3.55H22.34v-5.71q-4.61.7-8.32,1A11.44,11.44,0,0,0,13,210q12.73-1.32,19-3.63l2.93,2.89a52.34,52.34,0,0,1-9,2.31v6.29H36.48Zm-5.89,16.49v-7.19H17.34v7.19Z"/>
        <path class="cls-2" d="M75.5,215.34h8.28c0,.86-.08,1.43-.08,1.71q-.35,12.9-.74,17.8T81.63,241a3.14,3.14,0,0,1-1.15,1.21,5.08,5.08,0,0,1-1.66.51,26.73,26.73,0,0,1-4.92,0,9.4,9.4,0,0,0-1.06-3.52c1.23.11,2.62.16,4.18.16a1.7,1.7,0,0,0,1.45-.67q.66-.85,1-5.21t.59-14.75H75.34a55.81,55.81,0,0,1-2.4,14.81,19.48,19.48,0,0,1-6.78,9.61,9.17,9.17,0,0,0-2.69-2.78,6.77,6.77,0,0,0,.74-.54q-9.76,1.13-15.82,1.68l-.47-3.17q3.12-.19,8.36-.66v-3.05H49v-2.73h7.26v-2H49.13v-12h7.15V215.8H48V213h8.24V210.8q-3.09.24-7.11.4a8.59,8.59,0,0,0-.9-2.7,108.15,108.15,0,0,0,17.19-1.95l1.76,2.81c-2.22.44-4.73.81-7.54,1.09V213h8.09v2.31H72q0-2.75,0-8.56h3.6Q75.58,209.87,75.5,215.34Zm-23.32,5v2.46h4.1V220.3Zm0,7.18h4.1V225h-4.1Zm7.5,7.19v2.74l7.58-.78a20.51,20.51,0,0,0,3.3-7.5,59.17,59.17,0,0,0,1.27-10.36H67.61v-3H59.68v2.08h7.46v12H59.68v2h7.54v2.73Zm0-11.91H64V220.3h-4.3ZM64,225h-4.3v2.46H64Z"/>
        <path class="cls-2" d="M107.72,223l.47,3.4c-.45.16-1.12.38-2,.67s-1.61.5-2.07.66v11.13c0,1.77-.49,2.92-1.45,3.44a13,13,0,0,1-5.19.7,10.76,10.76,0,0,0-1-3.43c1.85,0,3,0,3.52,0a.64.64,0,0,0,.74-.71V228.7c-1.38.41-2.84.87-4.38,1.36l-.82-3.59,5.2-1.45v-7.57H96V214h4.65v-7.74h3.4V214h4v3.44h-4v6.6ZM132,209.87V213h-4.3l.27,0c-.67,1.77-1.26,3.23-1.75,4.38h5.35v21.48a6,6,0,0,1-.3,2.13,2.21,2.21,0,0,1-1.11,1.19,15.69,15.69,0,0,1-5.31.59,9.48,9.48,0,0,0-1-3.32c1.07,0,2.28,0,3.64,0a.58.58,0,0,0,.62-.66V220.53h-6.6v3.09h5.08v2.77h-5.08v3.32h4.22v8.59h-8.4V240h-2.74V229.71h4.07v-3.32H113.5v-2.77h5.12v-3.09h-6.49v22.35h-3.36V217.45h5a18.74,18.74,0,0,0-1.25-4.15l1.33-.27h-5.62v-3.16h10v-3.64h3.67v3.64Zm-9,7.58-.19,0A46,46,0,0,0,124.2,213h-8.36a15.19,15.19,0,0,1,1.37,4.34l-.31.08Zm-.11,18.28v-3.4h-5.55v3.4Z"/>
        <path class="cls-2" d="M180.33,230.8h-7.74a17.2,17.2,0,0,1-4.41,5.83A107.61,107.61,0,0,1,179,240l-2.19,3A106.62,106.62,0,0,0,164.47,239q-6.14,3-18.24,3.94a8.39,8.39,0,0,0-1.37-3.24,57.85,57.85,0,0,0,14.3-2.07c-1.44-.36-3.35-.81-5.75-1.33l-.66.86L149.2,236c1-1.3,2.29-3,3.82-5.24H144.2v-3h10.93c1.33-2.09,2-3.14,2-3.17H147V213.93h8.71v-2.85H145.05V207.8h34.26v3.28h-11v2.85h9.49v10.66H160.72l.58.16-1,1.62-.88,1.39h20.94Zm-29.88-13.86v4.65h5.23v-4.65Zm18,13.86H157.36c-.21.32-.54.78-1,1.39s-.78,1.09-1,1.43c2.16.41,5,1,8.47,1.87A14,14,0,0,0,168.45,230.8Zm-9.22-19.72v2.85h5.59v-2.85Zm0,10.51h5.59v-4.65h-5.59Zm14.93-4.65h-5.82v4.65h5.82Z"/>
      </g>
      <g>
        <path class="cls-2" d="M149.18,6.38,133,9.43l-.51-2.7a8.26,8.26,0,1,0-16.23,3.06l.51,2.7-27,5.09-.51-2.7a8.26,8.26,0,0,0-16.23,3l.51,2.71-27,5.09L45.9,23a8.26,8.26,0,1,0-16.23,3l.51,2.71L14,31.84A13.78,13.78,0,0,0,3,47.91L26.41,172.32a13.76,13.76,0,0,0,16.06,11L177.7,157.83a13.77,13.77,0,0,0,11-16.07L165.24,17.35a13.76,13.76,0,0,0-16.06-11ZM121.62,8.77a2.75,2.75,0,1,1,5.41-1L130.09,24a2.75,2.75,0,0,1-5.41,1ZM78.35,16.92a2.75,2.75,0,1,1,5.41-1l3.06,16.22a2.75,2.75,0,1,1-5.41,1ZM35.08,25.07a2.75,2.75,0,1,1,5.41-1l3,16.22a2.75,2.75,0,1,1-5.41,1ZM15,37.25l16.23-3,1.53,8.11A8.25,8.25,0,1,0,49,39.25l-1.53-8.11,27.05-5.09L76,34.16a8.25,8.25,0,1,0,16.22-3L90.7,23l27-5.09L119.27,26A8.26,8.26,0,1,0,135.5,23L134,14.84l16.22-3.05a8.26,8.26,0,0,1,9.65,6.58L163.4,37.3,12,65.83,8.39,46.89A8.26,8.26,0,0,1,15,37.25ZM176.68,152.42,41.46,177.89a8.28,8.28,0,0,1-9.65-6.59L13,71.23,164.42,42.71l18.84,100.07a8.26,8.26,0,0,1-6.58,9.64Z"/>
        <path class="cls-2" d="M154.46,64.19l-10.82,2a2.75,2.75,0,0,0-2.19,3.21l2,10.82a2.74,2.74,0,0,0,3.21,2.19l10.82-2a2.75,2.75,0,0,0,2.19-3.22l-2-10.81a2.75,2.75,0,0,0-3.22-2.2Zm-.66,11.33-5.41,1-1-5.41,5.41-1Z"/>
        <path class="cls-2" d="M110.56,128.47l-10.82,2a2.75,2.75,0,0,0-2.19,3.22l2,10.82a2.76,2.76,0,0,0,3.22,2.19l10.82-2a2.75,2.75,0,0,0,2.19-3.21l-2-10.82a2.75,2.75,0,0,0-3.21-2.19Zm-.67,11.32-5.41,1-1-5.41,5.4-1Z"/>
        <path class="cls-2" d="M73.33,79.47l-10.82,2a2.74,2.74,0,0,0-2.19,3.21l2,10.82a2.75,2.75,0,0,0,3.22,2.19l10.81-2a2.75,2.75,0,0,0,2.2-3.22l-2-10.81a2.75,2.75,0,0,0-3.21-2.2ZM72.66,90.8l-5.41,1-1-5.41,5.41-1Z"/>
        <path class="cls-2" d="M51.38,111.61l-10.82,2a2.76,2.76,0,0,0-2.2,3.21l2,10.82a2.75,2.75,0,0,0,3.22,2.19l10.81-2a2.76,2.76,0,0,0,2.2-3.22l-2-10.82a2.75,2.75,0,0,0-3.21-2.19Zm-.67,11.33-5.41,1-1-5.4,5.41-1Z"/>
        <path class="cls-2" d="M78.42,106.51l-10.82,2a2.75,2.75,0,0,0-2.19,3.22l2,10.81a2.75,2.75,0,0,0,3.21,2.2l10.82-2a2.75,2.75,0,0,0,2.19-3.21l-2-10.82a2.77,2.77,0,0,0-3.22-2.2Zm-.67,11.33-5.4,1-1-5.41,5.41-1Z"/>
        <path class="cls-2" d="M56.47,138.65l-10.82,2a2.75,2.75,0,0,0-2.19,3.21l2,10.82a2.77,2.77,0,0,0,3.22,2.2l10.82-2a2.75,2.75,0,0,0,2.19-3.21l-2-10.82a2.76,2.76,0,0,0-3.21-2.2ZM55.8,150l-5.41,1-1-5.41,5.4-1Z"/>
        <path class="cls-2" d="M83.52,133.56l-10.82,2a2.75,2.75,0,0,0-2.2,3.21l2,10.82a2.75,2.75,0,0,0,3.21,2.19l10.82-2a2.76,2.76,0,0,0,2.2-3.22l-2-10.82a2.75,2.75,0,0,0-3.21-2.19Zm-.67,11.33-5.41,1-1-5.41,5.41-1Z"/>
        <path class="cls-2" d="M132.63,79.85l-13.91.48-8.51-11.8a2.76,2.76,0,0,0-4.9.93l-3.63,14.08L88.55,88.15A2.75,2.75,0,0,0,87.88,93l11.77,8.25L100,116a2.75,2.75,0,0,0,4.5,2l10.81-8.94,13.32,4.4a2.75,2.75,0,0,0,3.44-3.55l-5-13.87,8-12a2.75,2.75,0,0,0-2.39-4.27ZM121.71,94.2a2.72,2.72,0,0,0-.3,2.46l3.57,9.85-9.38-3.1a2.76,2.76,0,0,0-2.62.49l-7.61,6.3-.26-10.47a2.79,2.79,0,0,0-1.17-2.19l-8.52-6,9.47-3.32a2.77,2.77,0,0,0,1.75-1.91l2.54-9.83,5.93,8.23a2.77,2.77,0,0,0,2.33,1.14l10-.35Z"/>
        <path class="cls-2" d="M159.56,91.24l-10.82,2a2.76,2.76,0,0,0-2.2,3.22l2,10.81a2.75,2.75,0,0,0,3.21,2.2l10.82-2a2.76,2.76,0,0,0,2.2-3.21l-2-10.82a2.74,2.74,0,0,0-3.21-2.19Zm-.67,11.32-5.41,1-1-5.41,5.41-1Z"/>
        <path class="cls-2" d="M164.65,118.28l-10.82,2a2.75,2.75,0,0,0-2.19,3.21l2,10.82a2.75,2.75,0,0,0,3.22,2.19l10.82-2a2.75,2.75,0,0,0,2.19-3.22l-2-10.81a2.75,2.75,0,0,0-3.21-2.2ZM164,129.61l-5.41,1-1-5.41,5.41-1Z"/>
        <path class="cls-2" d="M137.6,123.37l-10.81,2a2.75,2.75,0,0,0-2.2,3.21l2,10.82a2.75,2.75,0,0,0,3.21,2.2l10.82-2a2.76,2.76,0,0,0,2.2-3.21l-2-10.82a2.76,2.76,0,0,0-3.22-2.2Zm-.66,11.33-5.41,1-1-5.41,5.41-1Z"/>
      </g>
    </g>
  </g>
</svg>
