<svg xmlns="http://www.w3.org/2000/svg" viewBox="0 0 262.2 237.27">
  <defs>
    <style>
      .cls-1 {
        fill: #1e5eaa;
        opacity: 0.4;
      }

      .cls-2 {
        fill: #1e3373;
      }
    </style>
  </defs>
  <title>最新消息</title>
  <g id="圖層_2" data-name="圖層 2">
    <g id="圖層_4" data-name="圖層 4">
      <circle class="cls-1" cx="170.9" cy="145.97" r="91.3"/>
      <g>
        <path class="cls-2" d="M32,208.23l2.31.86a22.53,22.53,0,0,1-5.59,9.42,21,21,0,0,0,7.66,3.43,9.19,9.19,0,0,0-1.21,1.33,7.51,7.51,0,0,0-1,1.56,22.74,22.74,0,0,1-8-4.14,27.62,27.62,0,0,1-7.38,4A9.08,9.08,0,0,0,16.91,222v2.85H13.36v-3.55c-1.07.1-2.55.26-4.43.47L4,222.29c-1.4.16-2.64.29-3.71.39L0,219.44c.39,0,1-.08,1.84-.17l1.79-.18V206.28H.35v-3.05h35v3.05H16.91v15.43a22.54,22.54,0,0,0,6.72-3.36,25.56,25.56,0,0,1-4-6.52l2.15-.59h-3.6v-2.89H31.33Zm-1-18.83v12H5.08v-12ZM13.36,206.28H7.07v2.23h6.29Zm-6.29,4.88v2.35h6.29v-2.35Zm0,7.62,6.29-.59v-2H7.07Zm20.16-24.61V191.9H8.63v2.27Zm0,4.69v-2.31H8.63v2.31Zm2.5,12.38h-7a17.83,17.83,0,0,0,3.36,5A19.4,19.4,0,0,0,29.73,211.24Z"/>
        <path class="cls-2" d="M65.07,216.51l-2.15,2.78a42.31,42.31,0,0,0-3.87-4v9.49H55.46v-9.37a28.86,28.86,0,0,1-6,6.72,11.93,11.93,0,0,0-2.38-2.66,21.31,21.31,0,0,0,4.1-3.61,28.57,28.57,0,0,0,3.52-4.79H48v-3.16h7.42v-3.63H47.92v-3.17h4.14a18.54,18.54,0,0,0-1.4-5.15l2.69-.71H48.47v-3.08h7v-3.79h3.59v3.79h7v3.08H61.2l2.82.67q-1.48,3.75-2.19,5.19h4.65v3.17H59.05v3.63h7.08v3.16H59.05v.67c.42.31,1.05.79,1.88,1.44s1.7,1.34,2.6,2.07Zm-4.41-21.25H53.55a16.36,16.36,0,0,1,1.6,5.24l-2.35.62h8.79l-2.73-.62A34.14,34.14,0,0,0,60.66,195.26Zm23.63,6.14v3.43H80.07v19.81H76.48V204.83H71.32v.35q0,13.53-6.25,19.81a6.39,6.39,0,0,0-1.15-1.41,7.89,7.89,0,0,0-1.47-1.17,16.32,16.32,0,0,0,2.85-3.92A17.73,17.73,0,0,0,67,213.92a37.78,37.78,0,0,0,.66-4.36c.1-1.3.16-2.77.16-4.41V191.32l2.5.7a50,50,0,0,0,10.62-3.44l3,2.7a59.42,59.42,0,0,1-12.58,3.63v6.49Z"/>
        <path class="cls-2" d="M105,203.08l-2.11,3.08a21,21,0,0,0-3.27-2.28,31.14,31.14,0,0,0-4.08-2l2-2.82A29.17,29.17,0,0,1,105,203.08ZM100,224.33l-3.2-2.43a104.11,104.11,0,0,0,7.11-12.65l2.81,2.42A133.46,133.46,0,0,1,100,224.33Zm7.07-31.68-2.11,3a27.38,27.38,0,0,0-7.26-4.53l2.07-2.73A24.3,24.3,0,0,1,107.09,192.65Zm22,7v20.93a5.71,5.71,0,0,1-.38,2.31,2.49,2.49,0,0,1-1.3,1.25c-1,.42-3.16.62-6.41.62a13.16,13.16,0,0,0-1.09-3.51c.93.05,1.9.08,2.91.1s1.6,0,1.81,0c.55,0,.82-.29.82-.78v-3.83H113.23v8.12h-3.64V200l-.54.55a10.4,10.4,0,0,0-2.93-2,25.06,25.06,0,0,0,3.22-3.83,24.54,24.54,0,0,0,2.44-4.26l3.63,1.09a37.54,37.54,0,0,1-5.54,8.21h7.5V188.11h3.75v11.57Zm-3.64,3.47H113.23v3.56h12.26Zm-12.26,10.43h12.26v-3.67H113.23Zm9.8-21.83L126,190a38.8,38.8,0,0,1,3.73,4.06,27,27,0,0,1,2.72,4l-3.13,2a22.09,22.09,0,0,0-2.58-4A47.43,47.43,0,0,0,123,191.75Z"/>
        <path class="cls-2" d="M146.46,223.54l-3.08-2.14a16.09,16.09,0,0,0,4.8-8l3.28,1.21Q149.54,220.85,146.46,223.54Zm28.17-32.26v19.45H149.82V191.28H159a20.8,20.8,0,0,0,1.09-3.56l4.46.67c-.26.6-.77,1.56-1.53,2.89Zm-3.79,5.62v-2.73H153.38v2.73Zm0,5.47v-2.73H153.38v2.73Zm0,5.51v-2.77H153.38v2.77Zm-11,13.48h6.52c.81,0,1.33-.21,1.57-.63a8.7,8.7,0,0,0,.47-3,9.06,9.06,0,0,0,3.35,1.29c-.23,2.27-.69,3.78-1.36,4.53s-1.9,1.14-3.67,1.14h-7.23c-2.27,0-3.78-.32-4.55-.94s-1.15-1.82-1.15-3.59v-6.22h3.63v6.18c0,.54.14.89.43,1A5.36,5.36,0,0,0,159.82,221.36ZM158,212.72l2.74-1.87a24,24,0,0,1,5.9,5.66l-2.93,2A23,23,0,0,0,158,212.72Zm12.58,2.15,3-1.87a35,35,0,0,1,4.22,4.22,19.89,19.89,0,0,1,2.89,4.25l-3.2,2.11a20.15,20.15,0,0,0-2.76-4.29A37.84,37.84,0,0,0,170.56,214.87Z"/>
      </g>
      <g>
        <path class="cls-2" d="M148,124.76l-83.74-28-4.94-28,69.11-55,19.57,111Zm-76.54,2.82a23.21,23.21,0,0,1-18.11-21l6.26-1.1,36.3,12.16a23.36,23.36,0,0,1-24.45,9.91Zm-38.16-27.4L29.07,76.06l21-3.7,4.26,24.12-21,3.7ZM128.77,1,51.93,62.1,22.55,67.28a4.89,4.89,0,0,0-4,5.68l5.94,33.73a4.9,4.9,0,0,0,5.68,4l13.47-2.38a33,33,0,0,0,25.68,28.84,35.7,35.7,0,0,0,36.09-16.29l47.29,15.83c5.78,1,6.69-3.84,6.4-5.49L136.69,3.92c-.33-1.68-2.7-5.77-7.92-3Z"/>
        <path class="cls-2" d="M161.16,45.26l12-16.3a4.91,4.91,0,0,0-7.9-5.83l-12,16.36a4.84,4.84,0,0,0,1,6.86,5.76,5.76,0,0,0,6.85-1.09Z"/>
        <path class="cls-2" d="M189.47,55.24l-19.92,3.51a4.91,4.91,0,0,0,1.7,9.67l19.92-3.52a4.9,4.9,0,1,0-1.7-9.66Z"/>
        <path class="cls-2" d="M168,84a4.91,4.91,0,1,0-5.43,8.18l16.89,11.2c1.07.72,5,1.14,6.8-1.38a4.86,4.86,0,0,0-1.38-6.8L168,84Z"/>
      </g>
    </g>
  </g>
</svg>
