<svg xmlns="http://www.w3.org/2000/svg" viewBox="0 0 274.69 243.36">
  <defs>
    <style>
      .cls-1 {
        fill: #dd4a43;
        opacity: 0.4;
      }

      .cls-2 {
        fill: #1e3373;
      }
    </style>
  </defs>
  <title>科系介紹+</title>
  <g id="圖層_2" data-name="圖層 2">
    <g id="圖層_4" data-name="圖層 4">
      <circle class="cls-1" cx="183.39" cy="152.06" r="91.3"/>
      <g>
        <path class="cls-2" d="M16.8,215.57l-3.32,4.53c-.29-.7-.85-1.81-1.68-3.32v14.81H6.17V219.24a32.73,32.73,0,0,1-3.51,6.33A25.25,25.25,0,0,0,0,220a34.43,34.43,0,0,0,5.43-9.73H.51v-5.39H6.17v-3.71q-2.73.39-3.9.51a17.08,17.08,0,0,0-1.53-4.46,54.59,54.59,0,0,0,13-3.32l3.13,4.73A50.34,50.34,0,0,1,11.8,200v4.81h4.92v5.39H11.8v.16c.49.41,1.33,1.25,2.52,2.5S16.33,215,16.8,215.57Zm21.83,5.27-4.49.79v9.92H28.4v-8.87l-11.56,2.11-.9-5.55L28.4,217V193.54h5.74V216l3.59-.62ZM16.76,209.63l3.75-3.32a33.46,33.46,0,0,1,6.25,5.94l-4,3.71A31.93,31.93,0,0,0,16.76,209.63ZM28,201.7l-4.06,3.64a29.41,29.41,0,0,0-5.75-6.29L22,195.8A32.12,32.12,0,0,1,28,201.7Z"/>
        <path class="cls-2" d="M56.75,220.73l6,2.26a33.85,33.85,0,0,1-4.39,4.46,44.23,44.23,0,0,1-5,3.78,33.91,33.91,0,0,0-5.31-4,30,30,0,0,0,4.82-3A21.37,21.37,0,0,0,56.75,220.73Zm30-2.54-5.27,3.47c-.37-.57-1-1.41-1.88-2.53q-2.92.15-9.18.39v12.07H64.17V219.75c-4.43.16-9.29.31-14.61.47L49,214.44c4-.05,6.73-.11,8.24-.16.49-.31,1.26-.86,2.3-1.64a55.29,55.29,0,0,0-7.58-5.7l4-3.75.72.45c.35.22.63.38.84.49q1.29-1.29,2.58-2.82c-3.26.13-6.12.2-8.6.2a17.68,17.68,0,0,0-1.32-5.2q18.63-.27,29.06-2.46l4.1,4.92a114.9,114.9,0,0,1-15.08,2.07,70.38,70.38,0,0,1-6.25,6.33c.63.45,1.37,1,2.23,1.72a72.35,72.35,0,0,0,8.28-8l5.7,3a126,126,0,0,1-12,10.24l8.48-.2c-1-1-1.67-1.65-2.11-2.07l4.8-3Q84.33,214.75,86.75,218.19Zm-15.08,5.62,4.88-3.32a49,49,0,0,1,9.34,6.88l-5.31,3.75A43.18,43.18,0,0,0,71.67,223.81Z"/>
        <path class="cls-2" d="M111.86,193.42h6.33a34.15,34.15,0,0,0,7.44,8.75,30.15,30.15,0,0,0,9.35,5.39,35.47,35.47,0,0,0-3.86,5.35,45.16,45.16,0,0,1-6-3.63v22.31H119V208.54h5.08a35.78,35.78,0,0,1-8.83-9.14,35.53,35.53,0,0,1-9,9.41h5.2v4.57a34,34,0,0,1-.28,4.61,28.59,28.59,0,0,1-1.07,4.65,14.78,14.78,0,0,1-2.62,4.86,18.85,18.85,0,0,1-4.59,4.09,17.8,17.8,0,0,0-2.26-2.19,19.76,19.76,0,0,0-2.66-2,17.39,17.39,0,0,0,4-3.29,11.58,11.58,0,0,0,2.28-3.77,19,19,0,0,0,.94-3.57,26,26,0,0,0,.23-3.59V209.4A45.52,45.52,0,0,1,99.63,213a15.35,15.35,0,0,0-1.58-2.48,19.85,19.85,0,0,0-2-2.36,33.31,33.31,0,0,0,9.39-6.47A32.75,32.75,0,0,0,111.86,193.42Z"/>
        <path class="cls-2" d="M160.64,195.38H181.5c0,.91-.05,1.57-.08,2-.08,4.4-.21,7.55-.41,9.45a8,8,0,0,1-1,3.79,4.93,4.93,0,0,1-3.28,1.8,39.44,39.44,0,0,1-5,.19,11.49,11.49,0,0,0-1.68-5.35c1.06.1,2.38.16,3.94.16a1.81,1.81,0,0,0,1.33-.47c.36-.44.63-2.53.78-6.25h-4.8a20.35,20.35,0,0,1-2.62,7.71,14.55,14.55,0,0,1-6.29,5.3,11.93,11.93,0,0,0-1.44-2.35,12.67,12.67,0,0,0-1.88-2,24.9,24.9,0,0,1,2.07,5.94L157,217.09a13.32,13.32,0,0,0-.39-1.83l-1.33.12v2.85l3.4-1.1a49.36,49.36,0,0,1,2.46,7.27l-4.26,1.52c-.21-1.07-.74-2.95-1.6-5.66v11.33h-5V219.91a32.74,32.74,0,0,1-2.07,8.9,22.55,22.55,0,0,0-4.38-2.11q1.41-3,1.84-9.22l4.61.79v-2.54l-5.55.35-.5-5,3-.12,1.45-1.91a33,33,0,0,0-4.49-5.32l2.73-4,.74.7a40.9,40.9,0,0,0,2.62-6.75l5,1.83q-3.12,5.94-4.49,8.09a12,12,0,0,1,.82,1c1.17-1.92,2.28-4,3.32-6.13l4.69,2.15q-2.77,4.19-5,7.27l3.08-1.29c.39.7.83,1.6,1.33,2.69a10.53,10.53,0,0,0,4.59-3.51,12.39,12.39,0,0,0,1.89-5.08h-4.84Zm-8.32,15.42,2.73-.11c-.59-1.36-.92-2.09-1-2.19C153.45,209.33,152.87,210.1,152.32,210.8ZM162,231.51V214.28h18.67v17.07h-5.59V230h-7.77v1.53Zm13.08-12.15h-7.77v5.55h7.77Z"/>
      </g>
      <path class="cls-2" d="M168.19,34.22,94,39.12a3.05,3.05,0,1,0,.41,6.09L157.52,41,99.51,78l-85.18-24L89,6.35l85.18,24.06-6,3.81ZM158.38,102A86.49,86.49,0,0,1,50.05,117.93l-7.3-49.65L99.17,84.22a3,3,0,0,0,2.47-.36l49.44-31.53,7.3,49.67Zm25.51,6.19a3,3,0,1,1-6,.88l-.51-3.48a3,3,0,0,1,.26-1.75l1.95-4.13,3.06,3.39a3.06,3.06,0,0,1,.75,1.59l.51,3.5ZM182.34,26.4,89.32.11a3,3,0,0,0-2.46.37l-81.52,52a3,3,0,0,0-.93,4.2,3.08,3.08,0,0,0,1.74,1.3l30.18,8.52,7.91,53.78a3,3,0,0,0,1.41,2.14A92.57,92.57,0,0,0,163.88,105a3.08,3.08,0,0,0,.73-2.46L156.7,48.75,168,41.58l7.68,52.25-3.52,7.42a9.06,9.06,0,0,0-.77,5.23l.51,3.49a9.13,9.13,0,0,0,18.06-2.66l-.51-3.49A9.08,9.08,0,0,0,187.15,99L181.65,93,173.57,38l9.58-6.1a3,3,0,0,0-.81-5.5Z"/>
    </g>
  </g>
</svg>
